M48
; DRILL file {KiCad (5.1.6)-1} date 07/02/20 12:50:39
; FORMAT={-:-/ absolute / inch / decimal}
; #@! TF.CreationDate,2020-07-02T12:50:39+02:00
; #@! TF.GenerationSoftware,Kicad,Pcbnew,(5.1.6)-1
FMAT,2
INCH
T1C0.0157
T2C0.0315
T3C0.0335
T4C0.0394
T5C0.0433
T6C0.0472
T7C0.1260
T8C0.1378
%
G90
G05
T1
X4.0748Y-4.8031
X4.1142Y-4.8033
X4.252Y-4.4882
X4.2707Y-4.311
X4.2717Y-4.4291
X4.3004Y-4.5451
X4.3091Y-4.4006
X4.311Y-4.626
X4.3307Y-5.4134
X4.3701Y-4.1535
X4.3701Y-5.315
X4.4685Y-4.6457
X4.4685Y-4.8031
X4.4685Y-4.311
X4.469Y-4.1934
X4.5079Y-5.0591
X4.5184Y-4.4148
X4.5276Y-3.9764
X4.5472Y-2.4409
X4.5472Y-2.4803
X4.5472Y-2.5197
X4.5472Y-2.5591
X4.5472Y-2.7756
X4.5866Y-2.4409
X4.5866Y-2.4803
X4.5866Y-2.5197
X4.5866Y-2.5591
X4.5866Y-4.2913
X4.5866Y-4.3701
X4.626Y-2.4409
X4.626Y-2.4803
X4.626Y-2.5197
X4.626Y-2.5591
X4.626Y-3.9961
X4.6457Y-4.4291
X4.6654Y-2.4409
X4.6654Y-2.4803
X4.6654Y-2.5197
X4.6654Y-2.5591
X4.6654Y-3.7205
X4.6654Y-4.1732
X4.6654Y-4.2913
X4.6654Y-4.3307
X4.6654Y-4.3701
X4.7244Y-3.0315
X4.7638Y-3.9961
X4.7638Y-4.2323
X4.8031Y-2.937
X4.8228Y-4.1535
X4.8425Y-4.6063
X4.8622Y-2.4409
X4.8622Y-2.4803
X4.8622Y-2.5197
X4.8622Y-2.5591
X4.8622Y-5.315
X4.8622Y-5.3543
X4.8622Y-5.3937
X4.8622Y-5.4331
X4.8637Y-3.404
X4.8819Y-2.7362
X4.8819Y-4.7047
X4.9016Y-2.4409
X4.9016Y-2.4803
X4.9016Y-2.5197
X4.9016Y-2.5591
X4.9016Y-3.2126
X4.9016Y-3.4252
X4.9016Y-4.6063
X4.9016Y-5.315
X4.9016Y-5.3543
X4.9016Y-5.3937
X4.9016Y-5.4331
X4.939Y-2.9783
X4.9409Y-2.4409
X4.9409Y-2.4803
X4.9409Y-2.5197
X4.9409Y-2.5591
X4.9409Y-4.0748
X4.9409Y-5.315
X4.9409Y-5.3543
X4.9409Y-5.3937
X4.9409Y-5.4331
X4.9803Y-2.4409
X4.9803Y-2.4803
X4.9803Y-2.5197
X4.9803Y-2.5591
X4.9803Y-2.937
X4.9803Y-5.315
X4.9803Y-5.3543
X4.9803Y-5.3937
X4.9803Y-5.4331
X5.0394Y-3.7598
X5.0591Y-5.748
X5.0787Y-3.4252
X5.0787Y-4.252
X5.0787Y-4.4291
X5.127Y-4.3307
X5.1378Y-3.8583
X5.2735Y-5.2537
X5.2756Y-2.874
X5.2756Y-3.4252
X5.2756Y-4.252
X5.2756Y-4.5276
X5.2756Y-5.0591
X5.2953Y-2.7953
X5.2953Y-3.4646
X5.2953Y-3.6614
X5.3563Y-4.3504
X5.3642Y-5.8563
X5.374Y-5.3346
X5.3937Y-3.6417
X5.4035Y-5.8563
X5.4134Y-5.3346
X5.4134Y-5.374
X5.4134Y-5.4134
X5.4134Y-5.4528
X5.4429Y-5.8563
X5.4724Y-3.5433
X5.4823Y-5.8563
X5.4921Y-4.3701
X5.5217Y-5.8563
X5.5315Y-4.4882
X5.5512Y-3.4646
X5.5512Y-4.2717
X5.5709Y-2.8346
X5.5709Y-3.6417
X5.5906Y-3.0315
X5.6102Y-3.8386
X5.6102Y-4.0817
X5.6102Y-4.685
X5.6102Y-4.9213
X5.6496Y-5.1378
X5.7087Y-3.248
X5.748Y-2.9331
X5.7677Y-3.7402
X5.7677Y-4.5866
X5.8858Y-3.0906
X5.8858Y-3.1299
X5.8858Y-3.1693
X5.8858Y-3.2087
X5.8858Y-4.2717
X5.8858Y-4.311
X5.8858Y-4.3504
X5.8858Y-4.3898
X5.8858Y-5.4528
X5.8858Y-5.4921
X5.8858Y-5.5315
X5.8858Y-5.5709
X5.9252Y-3.0906
X5.9252Y-3.1299
X5.9252Y-3.1693
X5.9252Y-3.2087
X5.9252Y-4.2717
X5.9252Y-4.311
X5.9252Y-4.3504
X5.9252Y-4.3898
X5.9252Y-5.4528
X5.9252Y-5.4921
X5.9252Y-5.5315
X5.9252Y-5.5709
X5.9646Y-3.0906
X5.9646Y-3.1299
X5.9646Y-3.1693
X5.9646Y-3.2087
X5.9646Y-4.2717
X5.9646Y-4.311
X5.9646Y-4.3504
X5.9646Y-4.3898
X5.9646Y-5.4528
X5.9646Y-5.4921
X5.9646Y-5.5315
X5.9646Y-5.5709
X6.0039Y-3.0906
X6.0039Y-3.1299
X6.0039Y-3.1693
X6.0039Y-3.2087
X6.0039Y-4.2717
X6.0039Y-4.311
X6.0039Y-4.3504
X6.0039Y-4.3898
X6.0039Y-5.4528
X6.0039Y-5.4921
X6.0039Y-5.5315
X6.0039Y-5.5709
X7.1654Y-2.126
X7.1654Y-2.9528
X7.1654Y-3.3071
X7.1654Y-4.1339
X7.1654Y-4.4882
X7.1654Y-5.315
X7.1654Y-5.3543
X7.1939Y-2.3622
X7.1939Y-3.1496
X7.1939Y-3.5433
X7.1939Y-4.3307
X7.1939Y-4.7244
X7.4606Y-2.4016
X7.4606Y-2.4409
X7.4606Y-2.4803
X7.4606Y-2.5197
X7.4606Y-3.0906
X7.4606Y-3.1299
X7.4606Y-3.1693
X7.4606Y-3.2087
X7.4606Y-3.5827
X7.4606Y-3.622
X7.4606Y-3.6614
X7.4606Y-3.7008
X7.4606Y-4.2717
X7.4606Y-4.311
X7.4606Y-4.3504
X7.4606Y-4.3898
X7.4606Y-4.7638
X7.4606Y-4.8031
X7.4606Y-4.8425
X7.4606Y-4.8819
X7.4606Y-5.4528
X7.4606Y-5.4921
X7.4606Y-5.5315
X7.4606Y-5.5709
X7.5Y-2.4016
X7.5Y-2.4409
X7.5Y-2.4803
X7.5Y-2.5197
X7.5Y-3.0906
X7.5Y-3.1299
X7.5Y-3.1693
X7.5Y-3.2087
X7.5Y-3.5827
X7.5Y-3.622
X7.5Y-3.6614
X7.5Y-3.7008
X7.5Y-4.2717
X7.5Y-4.311
X7.5Y-4.3504
X7.5Y-4.3898
X7.5Y-4.7638
X7.5Y-4.8031
X7.5Y-4.8425
X7.5Y-4.8819
X7.5Y-5.4528
X7.5Y-5.4921
X7.5Y-5.5315
X7.5Y-5.5709
X7.5394Y-2.4016
X7.5394Y-2.4409
X7.5394Y-2.4803
X7.5394Y-2.5197
X7.5394Y-3.0906
X7.5394Y-3.1299
X7.5394Y-3.1693
X7.5394Y-3.2087
X7.5394Y-3.5827
X7.5394Y-3.622
X7.5394Y-3.6614
X7.5394Y-3.7008
X7.5394Y-4.2717
X7.5394Y-4.311
X7.5394Y-4.3504
X7.5394Y-4.3898
X7.5394Y-4.7638
X7.5394Y-4.8031
X7.5394Y-4.8425
X7.5394Y-4.8819
X7.5394Y-5.4528
X7.5394Y-5.4921
X7.5394Y-5.5315
X7.5394Y-5.5709
X7.5787Y-2.4016
X7.5787Y-2.4409
X7.5787Y-2.4803
X7.5787Y-2.5197
X7.5787Y-3.0906
X7.5787Y-3.1299
X7.5787Y-3.1693
X7.5787Y-3.2087
X7.5787Y-3.5827
X7.5787Y-3.622
X7.5787Y-3.6614
X7.5787Y-3.7008
X7.5787Y-4.2717
X7.5787Y-4.311
X7.5787Y-4.3504
X7.5787Y-4.3898
X7.5787Y-4.7638
X7.5787Y-4.8031
X7.5787Y-4.8425
X7.5787Y-4.8819
X7.5787Y-5.4528
X7.5787Y-5.4921
X7.5787Y-5.5315
X7.5787Y-5.5709
X7.5984Y-2.6969
X7.5984Y-2.7362
X7.5984Y-2.7756
X7.5984Y-2.815
X7.5984Y-3.878
X7.5984Y-3.9173
X7.5984Y-3.9567
X7.5984Y-3.9961
X7.5984Y-5.0591
X7.5984Y-5.0984
X7.5984Y-5.1378
X7.5984Y-5.1772
X7.6378Y-2.6969
X7.6378Y-2.7362
X7.6378Y-2.7756
X7.6378Y-2.815
X7.6378Y-3.878
X7.6378Y-3.9173
X7.6378Y-3.9567
X7.6378Y-3.9961
X7.6378Y-5.0591
X7.6378Y-5.0984
X7.6378Y-5.1378
X7.6378Y-5.1772
X7.6772Y-2.6969
X7.6772Y-2.7362
X7.6772Y-2.7756
X7.6772Y-2.815
X7.6772Y-3.878
X7.6772Y-3.9173
X7.6772Y-3.9567
X7.6772Y-3.9961
X7.6772Y-5.0591
X7.6772Y-5.0984
X7.6772Y-5.1378
X7.6772Y-5.1772
X7.7165Y-2.6969
X7.7165Y-2.7362
X7.7165Y-2.7756
X7.7165Y-2.815
X7.7165Y-3.878
X7.7165Y-3.9173
X7.7165Y-3.9567
X7.7165Y-3.9961
X7.7165Y-5.0591
X7.7165Y-5.0984
X7.7165Y-5.1378
X7.7165Y-5.1772
T2
X7.3622Y-2.0866
X7.3622Y-2.2244
X7.3622Y-4.4488
X7.3622Y-4.5866
X7.6969Y-3.2874
X7.6969Y-3.4252
X4.378Y-2.8543
X4.378Y-2.9921
X7.3622Y-5.6496
X7.3622Y-5.7874
X4.4094Y-3.563
X4.4094Y-3.7008
X4.7638Y-2.5197
X4.7638Y-2.6575
X4.4291Y-2.5197
X4.4291Y-2.6575
X5.4331Y-2.5197
X5.4331Y-2.6575
X7.6969Y-4.4685
X7.6969Y-4.6063
X5.0984Y-2.5197
X5.0984Y-2.6575
X4.3898Y-3.2087
X4.3898Y-3.3465
X7.3622Y-3.2677
X7.3622Y-3.4055
T3
X4.1339Y-2.7953
X4.1339Y-2.8953
X4.1339Y-3.0953
X4.1339Y-3.1953
X4.1339Y-3.2953
T4
X4.0551Y-3.9567
X4.0551Y-4.0567
X4.0551Y-4.1567
X4.0551Y-4.2567
X4.0551Y-4.3567
X4.0551Y-4.4567
X4.0551Y-4.5567
T5
X7.7953Y-2.3622
X7.7953Y-2.4622
X7.7953Y-2.5622
X7.7953Y-4.7244
X7.7953Y-4.8244
X7.7953Y-4.9244
X7.7953Y-2.9528
X7.7953Y-3.0528
X7.7953Y-3.1528
X4.0945Y-2.3984
X4.0945Y-2.4984
X4.0945Y-2.5984
X7.7953Y-5.315
X7.7953Y-5.415
X7.7953Y-5.515
X7.7953Y-3.5433
X7.7953Y-3.6433
X7.7953Y-3.7433
X5.415Y-5.5709
X5.415Y-5.6709
X5.415Y-5.7709
X7.7953Y-4.1339
X7.7953Y-4.2339
X7.7953Y-4.3339
X5.6496Y-5.5709
X5.6496Y-5.6709
X5.6496Y-5.7709
T6
X6.2622Y-4.3307
X7.3622Y-4.3307
X6.2598Y-5.1181
X7.3598Y-5.1181
X6.2598Y-4.7244
X7.3598Y-4.7244
X6.2598Y-2.3622
X7.3598Y-2.3622
X6.2622Y-5.5118
X7.3622Y-5.5118
X6.2622Y-3.1496
X7.3622Y-3.1496
X6.2598Y-3.5433
X7.3598Y-3.5433
X6.2598Y-2.7559
X7.3598Y-2.7559
X4.3898Y-5.1772
X5.4898Y-5.1772
X6.2598Y-3.937
X7.3598Y-3.937
T7
X7.6772Y-2.126
X4.1339Y-5.748
X4.1339Y-2.126
X7.6772Y-5.748
T8
X8.4512Y-2.4622
X8.4512Y-4.8244
X8.4512Y-3.0528
X8.4512Y-5.415
X8.4512Y-3.6433
X8.4512Y-4.2339
T0
M30
