G04 #@! TF.GenerationSoftware,KiCad,Pcbnew,(5.1.6)-1*
G04 #@! TF.CreationDate,2020-07-02T12:50:25+02:00*
G04 #@! TF.ProjectId,LT1166_amp,4c543131-3636-45f6-916d-702e6b696361,rev?*
G04 #@! TF.SameCoordinates,Original*
G04 #@! TF.FileFunction,Copper,L2,Inr*
G04 #@! TF.FilePolarity,Positive*
%FSLAX46Y46*%
G04 Gerber Fmt 4.6, Leading zero omitted, Abs format (unit mm)*
G04 Created by KiCad (PCBNEW (5.1.6)-1) date 2020-07-02 12:50:25*
%MOMM*%
%LPD*%
G01*
G04 APERTURE LIST*
G04 #@! TA.AperFunction,ViaPad*
%ADD10O,1.700000X1.700000*%
G04 #@! TD*
G04 #@! TA.AperFunction,ViaPad*
%ADD11R,1.700000X1.700000*%
G04 #@! TD*
G04 #@! TA.AperFunction,ViaPad*
%ADD12O,2.000000X1.905000*%
G04 #@! TD*
G04 #@! TA.AperFunction,ViaPad*
%ADD13R,2.000000X1.905000*%
G04 #@! TD*
G04 #@! TA.AperFunction,ViaPad*
%ADD14C,1.600000*%
G04 #@! TD*
G04 #@! TA.AperFunction,ViaPad*
%ADD15R,1.600000X1.600000*%
G04 #@! TD*
G04 #@! TA.AperFunction,ViaPad*
%ADD16C,1.850000*%
G04 #@! TD*
G04 #@! TA.AperFunction,ViaPad*
%ADD17R,1.850000X1.850000*%
G04 #@! TD*
G04 #@! TA.AperFunction,ViaPad*
%ADD18O,2.400000X2.400000*%
G04 #@! TD*
G04 #@! TA.AperFunction,ViaPad*
%ADD19C,2.400000*%
G04 #@! TD*
G04 #@! TA.AperFunction,ViaPad*
%ADD20C,6.400000*%
G04 #@! TD*
G04 #@! TA.AperFunction,ViaPad*
%ADD21C,0.800000*%
G04 #@! TD*
G04 #@! TA.AperFunction,Conductor*
%ADD22C,1.000000*%
G04 #@! TD*
G04 #@! TA.AperFunction,Conductor*
%ADD23C,0.250000*%
G04 #@! TD*
G04 #@! TA.AperFunction,Conductor*
%ADD24C,0.254000*%
G04 #@! TD*
G04 APERTURE END LIST*
D10*
X103000000Y-115740000D03*
X103000000Y-113200000D03*
X103000000Y-110660000D03*
X103000000Y-108120000D03*
X103000000Y-105580000D03*
X103000000Y-103040000D03*
D11*
X103000000Y-100500000D03*
D12*
X104000000Y-60920000D03*
X104000000Y-63460000D03*
D13*
X104000000Y-66000000D03*
D14*
X111500000Y-81500000D03*
D15*
X111500000Y-85000000D03*
D14*
X111200000Y-76000000D03*
D15*
X111200000Y-72500000D03*
D14*
X112000000Y-90500000D03*
D15*
X112000000Y-94000000D03*
D16*
X105000000Y-83700000D03*
X105000000Y-81160000D03*
X105000000Y-78620000D03*
X105000000Y-73540000D03*
D17*
X105000000Y-71000000D03*
D14*
X129500000Y-64000000D03*
D15*
X129500000Y-67500000D03*
D14*
X138000000Y-64000000D03*
D15*
X138000000Y-67500000D03*
D14*
X121000000Y-67500000D03*
D15*
X121000000Y-64000000D03*
D14*
X112500000Y-67500000D03*
D15*
X112500000Y-64000000D03*
D12*
X137540000Y-146580000D03*
X137540000Y-144040000D03*
D13*
X137540000Y-141500000D03*
D12*
X143500000Y-146580000D03*
X143500000Y-144040000D03*
D13*
X143500000Y-141500000D03*
D12*
X198000000Y-80080000D03*
X198000000Y-77540000D03*
D13*
X198000000Y-75000000D03*
D12*
X198000000Y-65080000D03*
X198000000Y-62540000D03*
D13*
X198000000Y-60000000D03*
D14*
X195500000Y-83500000D03*
D15*
X195500000Y-87000000D03*
D14*
X187000000Y-53000000D03*
D15*
X187000000Y-56500000D03*
D18*
X186940000Y-60000000D03*
D19*
X159000000Y-60000000D03*
D18*
X159060000Y-80000000D03*
D19*
X187000000Y-80000000D03*
D18*
X186940000Y-70000000D03*
D19*
X159000000Y-70000000D03*
D18*
X139440000Y-131500000D03*
D19*
X111500000Y-131500000D03*
D12*
X198000000Y-140080000D03*
X198000000Y-137540000D03*
D13*
X198000000Y-135000000D03*
D12*
X198000000Y-125080000D03*
X198000000Y-122540000D03*
D13*
X198000000Y-120000000D03*
D12*
X198000000Y-110080000D03*
X198000000Y-107540000D03*
D13*
X198000000Y-105000000D03*
D12*
X198000000Y-95080000D03*
X198000000Y-92540000D03*
D13*
X198000000Y-90000000D03*
D14*
X187000000Y-143500000D03*
D15*
X187000000Y-147000000D03*
D14*
X187000000Y-113000000D03*
D15*
X187000000Y-116500000D03*
D14*
X195500000Y-113500000D03*
D15*
X195500000Y-117000000D03*
D14*
X187000000Y-83000000D03*
D15*
X187000000Y-86500000D03*
D20*
X195000000Y-146000000D03*
X105000000Y-146000000D03*
X195000000Y-54000000D03*
X105000000Y-54000000D03*
D18*
X159060000Y-140000000D03*
D19*
X187000000Y-140000000D03*
D18*
X186940000Y-130000000D03*
D19*
X159000000Y-130000000D03*
D18*
X186940000Y-120000000D03*
D19*
X159000000Y-120000000D03*
D18*
X159060000Y-110000000D03*
D19*
X187000000Y-110000000D03*
D18*
X186940000Y-100000000D03*
D19*
X159000000Y-100000000D03*
D18*
X186940000Y-90000000D03*
D19*
X159000000Y-90000000D03*
D21*
X123500000Y-135000000D03*
X134000000Y-73000000D03*
X134000000Y-87000000D03*
X123500000Y-62000000D03*
X124500000Y-62000000D03*
X125500000Y-62000000D03*
X126500000Y-62000000D03*
X123500000Y-63000000D03*
X124500000Y-63000000D03*
X125500000Y-63000000D03*
X126500000Y-63000000D03*
X123500000Y-64000000D03*
X124500000Y-64000000D03*
X125500000Y-64000000D03*
X126500000Y-64000000D03*
X123500000Y-65000000D03*
X124500000Y-65000000D03*
X125500000Y-65000000D03*
X126500000Y-65000000D03*
X124500000Y-135000000D03*
X125500000Y-135000000D03*
X126500000Y-135000000D03*
X123500000Y-136000000D03*
X124500000Y-136000000D03*
X125500000Y-136000000D03*
X126500000Y-136000000D03*
X123500000Y-137000000D03*
X124500000Y-137000000D03*
X123500000Y-138000000D03*
X124500000Y-138000000D03*
X125500000Y-138000000D03*
X134000000Y-108000000D03*
X134500000Y-93000000D03*
X134000000Y-115000000D03*
X134000000Y-128500000D03*
X125500000Y-137000000D03*
X126500000Y-137000000D03*
X126500000Y-138000000D03*
X103500000Y-122000000D03*
X113500000Y-122000000D03*
X118500000Y-111000000D03*
X116500000Y-111000000D03*
X116500000Y-109000000D03*
X118500000Y-109000000D03*
X125500000Y-103500000D03*
X110000000Y-137500000D03*
X126500000Y-74600000D03*
X125450846Y-75649154D03*
X122000000Y-74600000D03*
X137500000Y-138500000D03*
X137500000Y-137500000D03*
X137500000Y-136500000D03*
X137500000Y-135500000D03*
X136500000Y-135500000D03*
X133947313Y-133443127D03*
X114500000Y-128500000D03*
X113500000Y-118000000D03*
X124500000Y-81600000D03*
X124000000Y-69500000D03*
X122500000Y-105500000D03*
X115000000Y-101000000D03*
X109500000Y-117500000D03*
X128000000Y-95500000D03*
X115500000Y-62000000D03*
X189500000Y-91000000D03*
X189500000Y-121000000D03*
X189500000Y-61000000D03*
X190500000Y-61000000D03*
X191500000Y-61000000D03*
X192500000Y-61000000D03*
X189500000Y-62000000D03*
X190500000Y-62000000D03*
X191500000Y-62000000D03*
X192500000Y-62000000D03*
X189500000Y-63000000D03*
X190500000Y-63000000D03*
X191500000Y-63000000D03*
X192500000Y-63000000D03*
X189500000Y-64000000D03*
X190500000Y-64000000D03*
X191500000Y-64000000D03*
X192500000Y-64000000D03*
X190500000Y-91000000D03*
X191500000Y-91000000D03*
X192500000Y-91000000D03*
X189500000Y-92000000D03*
X190500000Y-92000000D03*
X191500000Y-92000000D03*
X192500000Y-92000000D03*
X189500000Y-93000000D03*
X190500000Y-93000000D03*
X191500000Y-93000000D03*
X192500000Y-93000000D03*
X189500000Y-94000000D03*
X190500000Y-94000000D03*
X191500000Y-94000000D03*
X192500000Y-94000000D03*
X190500000Y-121000000D03*
X191500000Y-121000000D03*
X192500000Y-121000000D03*
X189500000Y-122000000D03*
X190500000Y-122000000D03*
X191500000Y-122000000D03*
X192500000Y-122000000D03*
X189500000Y-123000000D03*
X190500000Y-123000000D03*
X191500000Y-123000000D03*
X192500000Y-123000000D03*
X189500000Y-124000000D03*
X190500000Y-124000000D03*
X191500000Y-124000000D03*
X192500000Y-124000000D03*
X116500000Y-62000000D03*
X117500000Y-62000000D03*
X118500000Y-62000000D03*
X115500000Y-63000000D03*
X116500000Y-63000000D03*
X117500000Y-63000000D03*
X118500000Y-63000000D03*
X115500000Y-64000000D03*
X116500000Y-64000000D03*
X117500000Y-64000000D03*
X118500000Y-64000000D03*
X115500000Y-65000000D03*
X116500000Y-65000000D03*
X117500000Y-65000000D03*
X118500000Y-65000000D03*
X182000000Y-54000000D03*
X141500000Y-72000000D03*
X182725000Y-60000000D03*
X142000000Y-77000000D03*
X182000000Y-75000000D03*
X141000000Y-88000000D03*
X149500000Y-108500000D03*
X149500000Y-138500000D03*
X149500000Y-78500000D03*
X189500000Y-108500000D03*
X189500000Y-138500000D03*
X189500000Y-78500000D03*
X190500000Y-78500000D03*
X191500000Y-78500000D03*
X192500000Y-78500000D03*
X189500000Y-79500000D03*
X190500000Y-79500000D03*
X191500000Y-79500000D03*
X192500000Y-79500000D03*
X189500000Y-80500000D03*
X190500000Y-80500000D03*
X191500000Y-80500000D03*
X192500000Y-80500000D03*
X189500000Y-81500000D03*
X190500000Y-81500000D03*
X191500000Y-81500000D03*
X192500000Y-81500000D03*
X190500000Y-108500000D03*
X191500000Y-108500000D03*
X192500000Y-108500000D03*
X189500000Y-109500000D03*
X190500000Y-109500000D03*
X191500000Y-109500000D03*
X192500000Y-109500000D03*
X189500000Y-110500000D03*
X190500000Y-110500000D03*
X191500000Y-110500000D03*
X192500000Y-110500000D03*
X189500000Y-111500000D03*
X190500000Y-111500000D03*
X191500000Y-111500000D03*
X192500000Y-111500000D03*
X190500000Y-138500000D03*
X191500000Y-138500000D03*
X192500000Y-138500000D03*
X189500000Y-139500000D03*
X190500000Y-139500000D03*
X191500000Y-139500000D03*
X192500000Y-139500000D03*
X189500000Y-140500000D03*
X190500000Y-140500000D03*
X191500000Y-140500000D03*
X192500000Y-140500000D03*
X189500000Y-141500000D03*
X190500000Y-141500000D03*
X191500000Y-141500000D03*
X192500000Y-141500000D03*
X150500000Y-78500000D03*
X151500000Y-78500000D03*
X152500000Y-78500000D03*
X149500000Y-79500000D03*
X150500000Y-79500000D03*
X151500000Y-79500000D03*
X152500000Y-79500000D03*
X149500000Y-80500000D03*
X150500000Y-80500000D03*
X151500000Y-80500000D03*
X152500000Y-80500000D03*
X149500000Y-81500000D03*
X150500000Y-81500000D03*
X151500000Y-81500000D03*
X152500000Y-81500000D03*
X150500000Y-108500000D03*
X151500000Y-108500000D03*
X152500000Y-108500000D03*
X149500000Y-109500000D03*
X150500000Y-109500000D03*
X151500000Y-109500000D03*
X152500000Y-109500000D03*
X149500000Y-110500000D03*
X150500000Y-110500000D03*
X151500000Y-110500000D03*
X152500000Y-110500000D03*
X149500000Y-111500000D03*
X150500000Y-111500000D03*
X151500000Y-111500000D03*
X152500000Y-111500000D03*
X150500000Y-138500000D03*
X151500000Y-138500000D03*
X152500000Y-138500000D03*
X149500000Y-139500000D03*
X150500000Y-139500000D03*
X151500000Y-139500000D03*
X152500000Y-139500000D03*
X149500000Y-140500000D03*
X150500000Y-140500000D03*
X151500000Y-140500000D03*
X152500000Y-140500000D03*
X149500000Y-141500000D03*
X150500000Y-141500000D03*
X151500000Y-141500000D03*
X152500000Y-141500000D03*
X146000000Y-74500000D03*
X146500000Y-95000000D03*
X129000000Y-87000000D03*
X129000000Y-108000000D03*
X182000000Y-84000000D03*
X141500000Y-92500000D03*
X182725000Y-90000000D03*
X142500000Y-97500000D03*
X182000000Y-105000000D03*
X141000000Y-108500000D03*
X182000000Y-114000000D03*
X140500000Y-114000000D03*
X182725000Y-120000000D03*
X142500000Y-119000000D03*
X182000000Y-135000000D03*
X143500000Y-130500000D03*
X182725000Y-80000000D03*
X145000000Y-82500000D03*
X182725000Y-110000000D03*
X142500000Y-103675000D03*
X182000000Y-136000000D03*
X142500000Y-125000000D03*
X146500000Y-116500000D03*
X134500000Y-71000000D03*
X137000000Y-92500000D03*
X124500000Y-117000000D03*
X139500000Y-111000000D03*
X139000000Y-90000000D03*
X129000000Y-112500000D03*
X130225000Y-110000000D03*
X123537653Y-86462347D03*
X130500000Y-98000000D03*
X113500010Y-109500000D03*
X123000000Y-117000000D03*
X118500000Y-110000000D03*
X121000000Y-101500000D03*
X124500000Y-87000000D03*
X115500000Y-70500000D03*
X120000000Y-77000000D03*
X104499996Y-122002932D03*
X193000000Y-98500000D03*
X193000000Y-128500000D03*
X193000000Y-68500000D03*
X194000000Y-68500000D03*
X195000000Y-68500000D03*
X196000000Y-68500000D03*
X193000000Y-69500000D03*
X194000000Y-69500000D03*
X195000000Y-69500000D03*
X196000000Y-69500000D03*
X193000000Y-70500000D03*
X194000000Y-70500000D03*
X195000000Y-70500000D03*
X196000000Y-70500000D03*
X193000000Y-71500000D03*
X194000000Y-71500000D03*
X195000000Y-71500000D03*
X196000000Y-71500000D03*
X194000000Y-98500000D03*
X195000000Y-98500000D03*
X196000000Y-98500000D03*
X193000000Y-99500000D03*
X194000000Y-99500000D03*
X195000000Y-99500000D03*
X196000000Y-99500000D03*
X193000000Y-100500000D03*
X194000000Y-100500000D03*
X195000000Y-100500000D03*
X196000000Y-100500000D03*
X193000000Y-101500000D03*
X194000000Y-101500000D03*
X195000000Y-101500000D03*
X196000000Y-101500000D03*
X194000000Y-128500000D03*
X195000000Y-128500000D03*
X196000000Y-128500000D03*
X193000000Y-129500000D03*
X194000000Y-129500000D03*
X195000000Y-129500000D03*
X196000000Y-129500000D03*
X193000000Y-130500000D03*
X194000000Y-130500000D03*
X195000000Y-130500000D03*
X196000000Y-130500000D03*
X193000000Y-131500000D03*
X194000000Y-131500000D03*
X195000000Y-131500000D03*
X196000000Y-131500000D03*
X124000000Y-119500000D03*
X136049990Y-110500000D03*
X134500000Y-88000000D03*
X111000000Y-105500000D03*
X108474695Y-109500000D03*
X136249999Y-148750001D03*
X137249999Y-148750001D03*
X138249999Y-148750001D03*
X139249999Y-148750001D03*
X140249999Y-148750001D03*
X109230000Y-115445000D03*
X121000000Y-107500000D03*
X118000000Y-112500000D03*
X108500000Y-112500000D03*
X109449990Y-111775000D03*
X114767711Y-112134756D03*
X118500000Y-106000000D03*
X108000000Y-114000000D03*
X113512653Y-106512653D03*
X128500000Y-146000000D03*
X118500000Y-94500000D03*
X117500000Y-101500000D03*
X111000000Y-135000000D03*
D22*
X110500000Y-66000000D02*
X112500000Y-64000000D01*
X104000000Y-66000000D02*
X110500000Y-66000000D01*
D23*
X134500000Y-71000000D02*
X137000000Y-73500000D01*
X137000000Y-73500000D02*
X137000000Y-92500000D01*
X139073002Y-111000000D02*
X139500000Y-111000000D01*
X124500000Y-117000000D02*
X133073002Y-117000000D01*
X133073002Y-117000000D02*
X139073002Y-111000000D01*
X139000000Y-110500000D02*
X139500000Y-111000000D01*
X139000000Y-90000000D02*
X139000000Y-110500000D01*
X130500000Y-91926998D02*
X130500000Y-98000000D01*
X123537653Y-86462347D02*
X123937652Y-86062348D01*
X124635350Y-86062348D02*
X130500000Y-91926998D01*
X123937652Y-86062348D02*
X124635350Y-86062348D01*
X116774999Y-93225001D02*
X123537653Y-86462347D01*
X116774999Y-106225011D02*
X116774999Y-93225001D01*
X113500010Y-109500000D02*
X116774999Y-106225011D01*
X118573002Y-110000000D02*
X118500000Y-110000000D01*
X121774999Y-113201997D02*
X118573002Y-110000000D01*
X123000000Y-117000000D02*
X121774999Y-115774999D01*
X121774999Y-115774999D02*
X121774999Y-113201997D01*
X119065685Y-110000000D02*
X118500000Y-110000000D01*
X120274999Y-102225001D02*
X120274999Y-108790686D01*
X120274999Y-108790686D02*
X119065685Y-110000000D01*
X121000000Y-101500000D02*
X120274999Y-102225001D01*
X124500000Y-98000000D02*
X121000000Y-101500000D01*
X124500000Y-87000000D02*
X124500000Y-98000000D01*
X123774999Y-119274999D02*
X123774999Y-116651999D01*
X123774999Y-116651999D02*
X129701997Y-110725001D01*
X129701997Y-110725001D02*
X135824989Y-110725001D01*
X124000000Y-119500000D02*
X123774999Y-119274999D01*
X135824989Y-110725001D02*
X136049990Y-110500000D01*
X136049990Y-110500000D02*
X136049990Y-89549990D01*
X136049990Y-89549990D02*
X134500000Y-88000000D01*
D24*
G36*
X102555330Y-51021161D02*
G01*
X102021161Y-51555330D01*
X101601467Y-52183446D01*
X101312377Y-52881372D01*
X101165000Y-53622285D01*
X101165000Y-54377715D01*
X101312377Y-55118628D01*
X101601467Y-55816554D01*
X102021161Y-56444670D01*
X102555330Y-56978839D01*
X103183446Y-57398533D01*
X103881372Y-57687623D01*
X104622285Y-57835000D01*
X105377715Y-57835000D01*
X106118628Y-57687623D01*
X106816554Y-57398533D01*
X106964018Y-57300000D01*
X185561928Y-57300000D01*
X185574188Y-57424482D01*
X185610498Y-57544180D01*
X185669463Y-57654494D01*
X185748815Y-57751185D01*
X185845506Y-57830537D01*
X185955820Y-57889502D01*
X186075518Y-57925812D01*
X186200000Y-57938072D01*
X186714250Y-57935000D01*
X186873000Y-57776250D01*
X186873000Y-56627000D01*
X187127000Y-56627000D01*
X187127000Y-57776250D01*
X187285750Y-57935000D01*
X187800000Y-57938072D01*
X187924482Y-57925812D01*
X188044180Y-57889502D01*
X188154494Y-57830537D01*
X188251185Y-57751185D01*
X188330537Y-57654494D01*
X188389502Y-57544180D01*
X188425812Y-57424482D01*
X188438072Y-57300000D01*
X188435000Y-56785750D01*
X188276250Y-56627000D01*
X187127000Y-56627000D01*
X186873000Y-56627000D01*
X185723750Y-56627000D01*
X185565000Y-56785750D01*
X185561928Y-57300000D01*
X106964018Y-57300000D01*
X107444670Y-56978839D01*
X107978839Y-56444670D01*
X108398533Y-55816554D01*
X108446811Y-55700000D01*
X185561928Y-55700000D01*
X185565000Y-56214250D01*
X185723750Y-56373000D01*
X186873000Y-56373000D01*
X186873000Y-55223750D01*
X187127000Y-55223750D01*
X187127000Y-56373000D01*
X188276250Y-56373000D01*
X188435000Y-56214250D01*
X188438072Y-55700000D01*
X188425812Y-55575518D01*
X188389502Y-55455820D01*
X188330537Y-55345506D01*
X188251185Y-55248815D01*
X188154494Y-55169463D01*
X188044180Y-55110498D01*
X187924482Y-55074188D01*
X187800000Y-55061928D01*
X187285750Y-55065000D01*
X187127000Y-55223750D01*
X186873000Y-55223750D01*
X186714250Y-55065000D01*
X186200000Y-55061928D01*
X186075518Y-55074188D01*
X185955820Y-55110498D01*
X185845506Y-55169463D01*
X185748815Y-55248815D01*
X185669463Y-55345506D01*
X185610498Y-55455820D01*
X185574188Y-55575518D01*
X185561928Y-55700000D01*
X108446811Y-55700000D01*
X108687623Y-55118628D01*
X108835000Y-54377715D01*
X108835000Y-53898061D01*
X180965000Y-53898061D01*
X180965000Y-54101939D01*
X181004774Y-54301898D01*
X181082795Y-54490256D01*
X181196063Y-54659774D01*
X181340226Y-54803937D01*
X181509744Y-54917205D01*
X181698102Y-54995226D01*
X181898061Y-55035000D01*
X182101939Y-55035000D01*
X182301898Y-54995226D01*
X182490256Y-54917205D01*
X182659774Y-54803937D01*
X182803937Y-54659774D01*
X182917205Y-54490256D01*
X182995226Y-54301898D01*
X183035000Y-54101939D01*
X183035000Y-53898061D01*
X182995226Y-53698102D01*
X182917205Y-53509744D01*
X182803937Y-53340226D01*
X182659774Y-53196063D01*
X182490256Y-53082795D01*
X182301898Y-53004774D01*
X182101939Y-52965000D01*
X181898061Y-52965000D01*
X181698102Y-53004774D01*
X181509744Y-53082795D01*
X181340226Y-53196063D01*
X181196063Y-53340226D01*
X181082795Y-53509744D01*
X181004774Y-53698102D01*
X180965000Y-53898061D01*
X108835000Y-53898061D01*
X108835000Y-53622285D01*
X108687623Y-52881372D01*
X108678218Y-52858665D01*
X185565000Y-52858665D01*
X185565000Y-53141335D01*
X185620147Y-53418574D01*
X185728320Y-53679727D01*
X185885363Y-53914759D01*
X186085241Y-54114637D01*
X186320273Y-54271680D01*
X186581426Y-54379853D01*
X186858665Y-54435000D01*
X187141335Y-54435000D01*
X187418574Y-54379853D01*
X187679727Y-54271680D01*
X187914759Y-54114637D01*
X188114637Y-53914759D01*
X188271680Y-53679727D01*
X188379853Y-53418574D01*
X188435000Y-53141335D01*
X188435000Y-52858665D01*
X188379853Y-52581426D01*
X188271680Y-52320273D01*
X188114637Y-52085241D01*
X187914759Y-51885363D01*
X187679727Y-51728320D01*
X187418574Y-51620147D01*
X187141335Y-51565000D01*
X186858665Y-51565000D01*
X186581426Y-51620147D01*
X186320273Y-51728320D01*
X186085241Y-51885363D01*
X185885363Y-52085241D01*
X185728320Y-52320273D01*
X185620147Y-52581426D01*
X185565000Y-52858665D01*
X108678218Y-52858665D01*
X108398533Y-52183446D01*
X107978839Y-51555330D01*
X107444670Y-51021161D01*
X106904155Y-50660000D01*
X193095845Y-50660000D01*
X192555330Y-51021161D01*
X192021161Y-51555330D01*
X191601467Y-52183446D01*
X191312377Y-52881372D01*
X191165000Y-53622285D01*
X191165000Y-54377715D01*
X191312377Y-55118628D01*
X191601467Y-55816554D01*
X192021161Y-56444670D01*
X192555330Y-56978839D01*
X193183446Y-57398533D01*
X193881372Y-57687623D01*
X194622285Y-57835000D01*
X195377715Y-57835000D01*
X196118628Y-57687623D01*
X196816554Y-57398533D01*
X197444670Y-56978839D01*
X197978839Y-56444670D01*
X198398533Y-55816554D01*
X198687623Y-55118628D01*
X198835000Y-54377715D01*
X198835000Y-53622285D01*
X198687623Y-52881372D01*
X198398533Y-52183446D01*
X197978839Y-51555330D01*
X197444670Y-51021161D01*
X196904155Y-50660000D01*
X199340000Y-50660000D01*
X199340000Y-58509216D01*
X199244180Y-58457998D01*
X199124482Y-58421688D01*
X199000000Y-58409428D01*
X197000000Y-58409428D01*
X196875518Y-58421688D01*
X196755820Y-58457998D01*
X196645506Y-58516963D01*
X196548815Y-58596315D01*
X196469463Y-58693006D01*
X196410498Y-58803320D01*
X196374188Y-58923018D01*
X196361928Y-59047500D01*
X196361928Y-60952500D01*
X196374188Y-61076982D01*
X196410498Y-61196680D01*
X196469463Y-61306994D01*
X196548815Y-61403685D01*
X196645506Y-61483037D01*
X196729446Y-61527905D01*
X196626155Y-61653765D01*
X196478745Y-61929551D01*
X196387970Y-62228796D01*
X196357319Y-62540000D01*
X196387970Y-62851204D01*
X196478745Y-63150449D01*
X196626155Y-63426235D01*
X196824537Y-63667963D01*
X196997609Y-63810000D01*
X196824537Y-63952037D01*
X196626155Y-64193765D01*
X196478745Y-64469551D01*
X196387970Y-64768796D01*
X196357319Y-65080000D01*
X196387970Y-65391204D01*
X196478745Y-65690449D01*
X196626155Y-65966235D01*
X196824537Y-66207963D01*
X197066265Y-66406345D01*
X197342051Y-66553755D01*
X197641296Y-66644530D01*
X197874514Y-66667500D01*
X198125486Y-66667500D01*
X198358704Y-66644530D01*
X198657949Y-66553755D01*
X198933735Y-66406345D01*
X199175463Y-66207963D01*
X199340000Y-66007475D01*
X199340000Y-73509216D01*
X199244180Y-73457998D01*
X199124482Y-73421688D01*
X199000000Y-73409428D01*
X197000000Y-73409428D01*
X196875518Y-73421688D01*
X196755820Y-73457998D01*
X196645506Y-73516963D01*
X196548815Y-73596315D01*
X196469463Y-73693006D01*
X196410498Y-73803320D01*
X196374188Y-73923018D01*
X196361928Y-74047500D01*
X196361928Y-75952500D01*
X196374188Y-76076982D01*
X196410498Y-76196680D01*
X196469463Y-76306994D01*
X196548815Y-76403685D01*
X196645506Y-76483037D01*
X196729446Y-76527905D01*
X196626155Y-76653765D01*
X196478745Y-76929551D01*
X196387970Y-77228796D01*
X196357319Y-77540000D01*
X196387970Y-77851204D01*
X196478745Y-78150449D01*
X196626155Y-78426235D01*
X196824537Y-78667963D01*
X196997609Y-78810000D01*
X196824537Y-78952037D01*
X196626155Y-79193765D01*
X196478745Y-79469551D01*
X196387970Y-79768796D01*
X196357319Y-80080000D01*
X196387970Y-80391204D01*
X196478745Y-80690449D01*
X196626155Y-80966235D01*
X196824537Y-81207963D01*
X197066265Y-81406345D01*
X197342051Y-81553755D01*
X197641296Y-81644530D01*
X197874514Y-81667500D01*
X198125486Y-81667500D01*
X198358704Y-81644530D01*
X198657949Y-81553755D01*
X198933735Y-81406345D01*
X199175463Y-81207963D01*
X199340000Y-81007475D01*
X199340000Y-88509216D01*
X199244180Y-88457998D01*
X199124482Y-88421688D01*
X199000000Y-88409428D01*
X197000000Y-88409428D01*
X196875518Y-88421688D01*
X196755820Y-88457998D01*
X196645506Y-88516963D01*
X196548815Y-88596315D01*
X196469463Y-88693006D01*
X196410498Y-88803320D01*
X196374188Y-88923018D01*
X196361928Y-89047500D01*
X196361928Y-90952500D01*
X196374188Y-91076982D01*
X196410498Y-91196680D01*
X196469463Y-91306994D01*
X196548815Y-91403685D01*
X196645506Y-91483037D01*
X196729446Y-91527905D01*
X196626155Y-91653765D01*
X196478745Y-91929551D01*
X196387970Y-92228796D01*
X196357319Y-92540000D01*
X196387970Y-92851204D01*
X196478745Y-93150449D01*
X196626155Y-93426235D01*
X196824537Y-93667963D01*
X196997609Y-93810000D01*
X196824537Y-93952037D01*
X196626155Y-94193765D01*
X196478745Y-94469551D01*
X196387970Y-94768796D01*
X196357319Y-95080000D01*
X196387970Y-95391204D01*
X196478745Y-95690449D01*
X196626155Y-95966235D01*
X196824537Y-96207963D01*
X197066265Y-96406345D01*
X197342051Y-96553755D01*
X197641296Y-96644530D01*
X197874514Y-96667500D01*
X198125486Y-96667500D01*
X198358704Y-96644530D01*
X198657949Y-96553755D01*
X198933735Y-96406345D01*
X199175463Y-96207963D01*
X199340000Y-96007474D01*
X199340001Y-103509216D01*
X199244180Y-103457998D01*
X199124482Y-103421688D01*
X199000000Y-103409428D01*
X197000000Y-103409428D01*
X196875518Y-103421688D01*
X196755820Y-103457998D01*
X196645506Y-103516963D01*
X196548815Y-103596315D01*
X196469463Y-103693006D01*
X196410498Y-103803320D01*
X196374188Y-103923018D01*
X196361928Y-104047500D01*
X196361928Y-105952500D01*
X196374188Y-106076982D01*
X196410498Y-106196680D01*
X196469463Y-106306994D01*
X196548815Y-106403685D01*
X196645506Y-106483037D01*
X196729446Y-106527905D01*
X196626155Y-106653765D01*
X196478745Y-106929551D01*
X196387970Y-107228796D01*
X196357319Y-107540000D01*
X196387970Y-107851204D01*
X196478745Y-108150449D01*
X196626155Y-108426235D01*
X196824537Y-108667963D01*
X196997609Y-108810000D01*
X196824537Y-108952037D01*
X196626155Y-109193765D01*
X196478745Y-109469551D01*
X196387970Y-109768796D01*
X196357319Y-110080000D01*
X196387970Y-110391204D01*
X196478745Y-110690449D01*
X196626155Y-110966235D01*
X196824537Y-111207963D01*
X197066265Y-111406345D01*
X197342051Y-111553755D01*
X197641296Y-111644530D01*
X197874514Y-111667500D01*
X198125486Y-111667500D01*
X198358704Y-111644530D01*
X198657949Y-111553755D01*
X198933735Y-111406345D01*
X199175463Y-111207963D01*
X199340001Y-111007474D01*
X199340001Y-118509216D01*
X199244180Y-118457998D01*
X199124482Y-118421688D01*
X199000000Y-118409428D01*
X197000000Y-118409428D01*
X196875518Y-118421688D01*
X196755820Y-118457998D01*
X196645506Y-118516963D01*
X196548815Y-118596315D01*
X196469463Y-118693006D01*
X196410498Y-118803320D01*
X196374188Y-118923018D01*
X196361928Y-119047500D01*
X196361928Y-120952500D01*
X196374188Y-121076982D01*
X196410498Y-121196680D01*
X196469463Y-121306994D01*
X196548815Y-121403685D01*
X196645506Y-121483037D01*
X196729446Y-121527905D01*
X196626155Y-121653765D01*
X196478745Y-121929551D01*
X196387970Y-122228796D01*
X196357319Y-122540000D01*
X196387970Y-122851204D01*
X196478745Y-123150449D01*
X196626155Y-123426235D01*
X196824537Y-123667963D01*
X196997609Y-123810000D01*
X196824537Y-123952037D01*
X196626155Y-124193765D01*
X196478745Y-124469551D01*
X196387970Y-124768796D01*
X196357319Y-125080000D01*
X196387970Y-125391204D01*
X196478745Y-125690449D01*
X196626155Y-125966235D01*
X196824537Y-126207963D01*
X197066265Y-126406345D01*
X197342051Y-126553755D01*
X197641296Y-126644530D01*
X197874514Y-126667500D01*
X198125486Y-126667500D01*
X198358704Y-126644530D01*
X198657949Y-126553755D01*
X198933735Y-126406345D01*
X199175463Y-126207963D01*
X199340001Y-126007474D01*
X199340001Y-133509216D01*
X199244180Y-133457998D01*
X199124482Y-133421688D01*
X199000000Y-133409428D01*
X197000000Y-133409428D01*
X196875518Y-133421688D01*
X196755820Y-133457998D01*
X196645506Y-133516963D01*
X196548815Y-133596315D01*
X196469463Y-133693006D01*
X196410498Y-133803320D01*
X196374188Y-133923018D01*
X196361928Y-134047500D01*
X196361928Y-135952500D01*
X196374188Y-136076982D01*
X196410498Y-136196680D01*
X196469463Y-136306994D01*
X196548815Y-136403685D01*
X196645506Y-136483037D01*
X196729446Y-136527905D01*
X196626155Y-136653765D01*
X196478745Y-136929551D01*
X196387970Y-137228796D01*
X196357319Y-137540000D01*
X196387970Y-137851204D01*
X196478745Y-138150449D01*
X196626155Y-138426235D01*
X196824537Y-138667963D01*
X196997609Y-138810000D01*
X196824537Y-138952037D01*
X196626155Y-139193765D01*
X196478745Y-139469551D01*
X196387970Y-139768796D01*
X196357319Y-140080000D01*
X196387970Y-140391204D01*
X196478745Y-140690449D01*
X196626155Y-140966235D01*
X196824537Y-141207963D01*
X197066265Y-141406345D01*
X197342051Y-141553755D01*
X197641296Y-141644530D01*
X197874514Y-141667500D01*
X198125486Y-141667500D01*
X198358704Y-141644530D01*
X198657949Y-141553755D01*
X198933735Y-141406345D01*
X199175463Y-141207963D01*
X199340001Y-141007474D01*
X199340001Y-149340000D01*
X196904155Y-149340000D01*
X197444670Y-148978839D01*
X197978839Y-148444670D01*
X198398533Y-147816554D01*
X198687623Y-147118628D01*
X198835000Y-146377715D01*
X198835000Y-145622285D01*
X198687623Y-144881372D01*
X198398533Y-144183446D01*
X197978839Y-143555330D01*
X197444670Y-143021161D01*
X196816554Y-142601467D01*
X196118628Y-142312377D01*
X195377715Y-142165000D01*
X194622285Y-142165000D01*
X193881372Y-142312377D01*
X193183446Y-142601467D01*
X192555330Y-143021161D01*
X192021161Y-143555330D01*
X191601467Y-144183446D01*
X191312377Y-144881372D01*
X191165000Y-145622285D01*
X191165000Y-146377715D01*
X191312377Y-147118628D01*
X191601467Y-147816554D01*
X192021161Y-148444670D01*
X192555330Y-148978839D01*
X193095845Y-149340000D01*
X141127000Y-149340000D01*
X141127000Y-149300427D01*
X141167204Y-149240257D01*
X141245225Y-149051899D01*
X141284999Y-148851940D01*
X141284999Y-148648062D01*
X141245225Y-148448103D01*
X141167204Y-148259745D01*
X141127000Y-148199575D01*
X141127000Y-144040000D01*
X141857319Y-144040000D01*
X141887970Y-144351204D01*
X141978745Y-144650449D01*
X142126155Y-144926235D01*
X142324537Y-145167963D01*
X142497609Y-145310000D01*
X142324537Y-145452037D01*
X142126155Y-145693765D01*
X141978745Y-145969551D01*
X141887970Y-146268796D01*
X141857319Y-146580000D01*
X141887970Y-146891204D01*
X141978745Y-147190449D01*
X142126155Y-147466235D01*
X142324537Y-147707963D01*
X142566265Y-147906345D01*
X142842051Y-148053755D01*
X143141296Y-148144530D01*
X143374514Y-148167500D01*
X143625486Y-148167500D01*
X143858704Y-148144530D01*
X144157949Y-148053755D01*
X144433735Y-147906345D01*
X144675463Y-147707963D01*
X144873845Y-147466235D01*
X145021255Y-147190449D01*
X145112030Y-146891204D01*
X145142681Y-146580000D01*
X145112030Y-146268796D01*
X145091161Y-146200000D01*
X185561928Y-146200000D01*
X185561928Y-147800000D01*
X185574188Y-147924482D01*
X185610498Y-148044180D01*
X185669463Y-148154494D01*
X185748815Y-148251185D01*
X185845506Y-148330537D01*
X185955820Y-148389502D01*
X186075518Y-148425812D01*
X186200000Y-148438072D01*
X187800000Y-148438072D01*
X187924482Y-148425812D01*
X188044180Y-148389502D01*
X188154494Y-148330537D01*
X188251185Y-148251185D01*
X188330537Y-148154494D01*
X188389502Y-148044180D01*
X188425812Y-147924482D01*
X188438072Y-147800000D01*
X188438072Y-146200000D01*
X188425812Y-146075518D01*
X188389502Y-145955820D01*
X188330537Y-145845506D01*
X188251185Y-145748815D01*
X188154494Y-145669463D01*
X188044180Y-145610498D01*
X187924482Y-145574188D01*
X187800000Y-145561928D01*
X186200000Y-145561928D01*
X186075518Y-145574188D01*
X185955820Y-145610498D01*
X185845506Y-145669463D01*
X185748815Y-145748815D01*
X185669463Y-145845506D01*
X185610498Y-145955820D01*
X185574188Y-146075518D01*
X185561928Y-146200000D01*
X145091161Y-146200000D01*
X145021255Y-145969551D01*
X144873845Y-145693765D01*
X144675463Y-145452037D01*
X144502391Y-145310000D01*
X144675463Y-145167963D01*
X144873845Y-144926235D01*
X145021255Y-144650449D01*
X145112030Y-144351204D01*
X145142681Y-144040000D01*
X145112030Y-143728796D01*
X145021255Y-143429551D01*
X144873845Y-143153765D01*
X144770554Y-143027905D01*
X144854494Y-142983037D01*
X144951185Y-142903685D01*
X145030537Y-142806994D01*
X145089502Y-142696680D01*
X145125812Y-142576982D01*
X145138072Y-142452500D01*
X145138072Y-140547500D01*
X145125812Y-140423018D01*
X145089502Y-140303320D01*
X145030537Y-140193006D01*
X144951185Y-140096315D01*
X144854494Y-140016963D01*
X144744180Y-139957998D01*
X144624482Y-139921688D01*
X144500000Y-139909428D01*
X142500000Y-139909428D01*
X142375518Y-139921688D01*
X142255820Y-139957998D01*
X142145506Y-140016963D01*
X142048815Y-140096315D01*
X141969463Y-140193006D01*
X141910498Y-140303320D01*
X141874188Y-140423018D01*
X141861928Y-140547500D01*
X141861928Y-142452500D01*
X141874188Y-142576982D01*
X141910498Y-142696680D01*
X141969463Y-142806994D01*
X142048815Y-142903685D01*
X142145506Y-142983037D01*
X142229446Y-143027905D01*
X142126155Y-143153765D01*
X141978745Y-143429551D01*
X141887970Y-143728796D01*
X141857319Y-144040000D01*
X141127000Y-144040000D01*
X141127000Y-133500000D01*
X147365000Y-133500000D01*
X147365000Y-144500000D01*
X147377201Y-144623882D01*
X147413336Y-144743004D01*
X147472017Y-144852787D01*
X147550987Y-144949013D01*
X147647213Y-145027983D01*
X147756996Y-145086664D01*
X147876118Y-145122799D01*
X148000000Y-145135000D01*
X190000000Y-145135000D01*
X190123882Y-145122799D01*
X190243004Y-145086664D01*
X190352787Y-145027983D01*
X190449013Y-144949013D01*
X192974149Y-142423877D01*
X192990256Y-142417205D01*
X193159774Y-142303937D01*
X193303937Y-142159774D01*
X193417205Y-141990256D01*
X193423877Y-141974149D01*
X195949013Y-139449013D01*
X196027983Y-139352787D01*
X196086664Y-139243004D01*
X196122799Y-139123882D01*
X196135000Y-139000000D01*
X196135000Y-133500000D01*
X196122799Y-133376118D01*
X196086664Y-133256996D01*
X196027983Y-133147213D01*
X195949013Y-133050987D01*
X195852787Y-132972017D01*
X195743004Y-132913336D01*
X195623882Y-132877201D01*
X195500000Y-132865000D01*
X148000000Y-132865000D01*
X147876118Y-132877201D01*
X147756996Y-132913336D01*
X147647213Y-132972017D01*
X147550987Y-133050987D01*
X147472017Y-133147213D01*
X147413336Y-133256996D01*
X147377201Y-133376118D01*
X147365000Y-133500000D01*
X141127000Y-133500000D01*
X141127000Y-132222308D01*
X141204482Y-132035250D01*
X141275000Y-131680732D01*
X141275000Y-131319268D01*
X141204482Y-130964750D01*
X141127000Y-130777692D01*
X141127000Y-130398061D01*
X142465000Y-130398061D01*
X142465000Y-130601939D01*
X142504774Y-130801898D01*
X142582795Y-130990256D01*
X142696063Y-131159774D01*
X142840226Y-131303937D01*
X143009744Y-131417205D01*
X143198102Y-131495226D01*
X143398061Y-131535000D01*
X143601939Y-131535000D01*
X143801898Y-131495226D01*
X143990256Y-131417205D01*
X144159774Y-131303937D01*
X144303937Y-131159774D01*
X144417205Y-130990256D01*
X144495226Y-130801898D01*
X144535000Y-130601939D01*
X144535000Y-130398061D01*
X144495226Y-130198102D01*
X144417205Y-130009744D01*
X144303937Y-129840226D01*
X144282979Y-129819268D01*
X157165000Y-129819268D01*
X157165000Y-130180732D01*
X157235518Y-130535250D01*
X157373844Y-130869199D01*
X157574662Y-131169744D01*
X157830256Y-131425338D01*
X158130801Y-131626156D01*
X158464750Y-131764482D01*
X158819268Y-131835000D01*
X159180732Y-131835000D01*
X159535250Y-131764482D01*
X159869199Y-131626156D01*
X160169744Y-131425338D01*
X160425338Y-131169744D01*
X160626156Y-130869199D01*
X160764482Y-130535250D01*
X160835000Y-130180732D01*
X160835000Y-129819268D01*
X185105000Y-129819268D01*
X185105000Y-130180732D01*
X185175518Y-130535250D01*
X185313844Y-130869199D01*
X185514662Y-131169744D01*
X185770256Y-131425338D01*
X186070801Y-131626156D01*
X186404750Y-131764482D01*
X186759268Y-131835000D01*
X187120732Y-131835000D01*
X187475250Y-131764482D01*
X187809199Y-131626156D01*
X188109744Y-131425338D01*
X188365338Y-131169744D01*
X188566156Y-130869199D01*
X188704482Y-130535250D01*
X188775000Y-130180732D01*
X188775000Y-129819268D01*
X188704482Y-129464750D01*
X188566156Y-129130801D01*
X188365338Y-128830256D01*
X188109744Y-128574662D01*
X187845443Y-128398061D01*
X191965000Y-128398061D01*
X191965000Y-128601939D01*
X192004774Y-128801898D01*
X192082795Y-128990256D01*
X192089306Y-129000000D01*
X192082795Y-129009744D01*
X192004774Y-129198102D01*
X191965000Y-129398061D01*
X191965000Y-129601939D01*
X192004774Y-129801898D01*
X192082795Y-129990256D01*
X192089306Y-130000000D01*
X192082795Y-130009744D01*
X192004774Y-130198102D01*
X191965000Y-130398061D01*
X191965000Y-130601939D01*
X192004774Y-130801898D01*
X192082795Y-130990256D01*
X192089306Y-131000000D01*
X192082795Y-131009744D01*
X192004774Y-131198102D01*
X191965000Y-131398061D01*
X191965000Y-131601939D01*
X192004774Y-131801898D01*
X192082795Y-131990256D01*
X192196063Y-132159774D01*
X192340226Y-132303937D01*
X192509744Y-132417205D01*
X192698102Y-132495226D01*
X192898061Y-132535000D01*
X193101939Y-132535000D01*
X193301898Y-132495226D01*
X193490256Y-132417205D01*
X193500000Y-132410694D01*
X193509744Y-132417205D01*
X193698102Y-132495226D01*
X193898061Y-132535000D01*
X194101939Y-132535000D01*
X194301898Y-132495226D01*
X194490256Y-132417205D01*
X194500000Y-132410694D01*
X194509744Y-132417205D01*
X194698102Y-132495226D01*
X194898061Y-132535000D01*
X195101939Y-132535000D01*
X195301898Y-132495226D01*
X195490256Y-132417205D01*
X195500000Y-132410694D01*
X195509744Y-132417205D01*
X195698102Y-132495226D01*
X195898061Y-132535000D01*
X196101939Y-132535000D01*
X196301898Y-132495226D01*
X196490256Y-132417205D01*
X196659774Y-132303937D01*
X196803937Y-132159774D01*
X196917205Y-131990256D01*
X196995226Y-131801898D01*
X197035000Y-131601939D01*
X197035000Y-131398061D01*
X196995226Y-131198102D01*
X196917205Y-131009744D01*
X196910694Y-131000000D01*
X196917205Y-130990256D01*
X196995226Y-130801898D01*
X197035000Y-130601939D01*
X197035000Y-130398061D01*
X196995226Y-130198102D01*
X196917205Y-130009744D01*
X196910694Y-130000000D01*
X196917205Y-129990256D01*
X196995226Y-129801898D01*
X197035000Y-129601939D01*
X197035000Y-129398061D01*
X196995226Y-129198102D01*
X196917205Y-129009744D01*
X196910694Y-129000000D01*
X196917205Y-128990256D01*
X196995226Y-128801898D01*
X197035000Y-128601939D01*
X197035000Y-128398061D01*
X196995226Y-128198102D01*
X196917205Y-128009744D01*
X196803937Y-127840226D01*
X196659774Y-127696063D01*
X196490256Y-127582795D01*
X196301898Y-127504774D01*
X196101939Y-127465000D01*
X195898061Y-127465000D01*
X195698102Y-127504774D01*
X195509744Y-127582795D01*
X195500000Y-127589306D01*
X195490256Y-127582795D01*
X195301898Y-127504774D01*
X195101939Y-127465000D01*
X194898061Y-127465000D01*
X194698102Y-127504774D01*
X194509744Y-127582795D01*
X194500000Y-127589306D01*
X194490256Y-127582795D01*
X194301898Y-127504774D01*
X194101939Y-127465000D01*
X193898061Y-127465000D01*
X193698102Y-127504774D01*
X193509744Y-127582795D01*
X193500000Y-127589306D01*
X193490256Y-127582795D01*
X193301898Y-127504774D01*
X193101939Y-127465000D01*
X192898061Y-127465000D01*
X192698102Y-127504774D01*
X192509744Y-127582795D01*
X192340226Y-127696063D01*
X192196063Y-127840226D01*
X192082795Y-128009744D01*
X192004774Y-128198102D01*
X191965000Y-128398061D01*
X187845443Y-128398061D01*
X187809199Y-128373844D01*
X187475250Y-128235518D01*
X187120732Y-128165000D01*
X186759268Y-128165000D01*
X186404750Y-128235518D01*
X186070801Y-128373844D01*
X185770256Y-128574662D01*
X185514662Y-128830256D01*
X185313844Y-129130801D01*
X185175518Y-129464750D01*
X185105000Y-129819268D01*
X160835000Y-129819268D01*
X160764482Y-129464750D01*
X160626156Y-129130801D01*
X160425338Y-128830256D01*
X160169744Y-128574662D01*
X159869199Y-128373844D01*
X159535250Y-128235518D01*
X159180732Y-128165000D01*
X158819268Y-128165000D01*
X158464750Y-128235518D01*
X158130801Y-128373844D01*
X157830256Y-128574662D01*
X157574662Y-128830256D01*
X157373844Y-129130801D01*
X157235518Y-129464750D01*
X157165000Y-129819268D01*
X144282979Y-129819268D01*
X144159774Y-129696063D01*
X143990256Y-129582795D01*
X143801898Y-129504774D01*
X143601939Y-129465000D01*
X143398061Y-129465000D01*
X143198102Y-129504774D01*
X143009744Y-129582795D01*
X142840226Y-129696063D01*
X142696063Y-129840226D01*
X142582795Y-130009744D01*
X142504774Y-130198102D01*
X142465000Y-130398061D01*
X141127000Y-130398061D01*
X141127000Y-124898061D01*
X141465000Y-124898061D01*
X141465000Y-125101939D01*
X141504774Y-125301898D01*
X141582795Y-125490256D01*
X141696063Y-125659774D01*
X141840226Y-125803937D01*
X142009744Y-125917205D01*
X142198102Y-125995226D01*
X142398061Y-126035000D01*
X142601939Y-126035000D01*
X142801898Y-125995226D01*
X142990256Y-125917205D01*
X143159774Y-125803937D01*
X143303937Y-125659774D01*
X143417205Y-125490256D01*
X143495226Y-125301898D01*
X143535000Y-125101939D01*
X143535000Y-124898061D01*
X143495226Y-124698102D01*
X143417205Y-124509744D01*
X143303937Y-124340226D01*
X143159774Y-124196063D01*
X142990256Y-124082795D01*
X142801898Y-124004774D01*
X142601939Y-123965000D01*
X142398061Y-123965000D01*
X142198102Y-124004774D01*
X142009744Y-124082795D01*
X141840226Y-124196063D01*
X141696063Y-124340226D01*
X141582795Y-124509744D01*
X141504774Y-124698102D01*
X141465000Y-124898061D01*
X141127000Y-124898061D01*
X141127000Y-118898061D01*
X141465000Y-118898061D01*
X141465000Y-119101939D01*
X141504774Y-119301898D01*
X141582795Y-119490256D01*
X141696063Y-119659774D01*
X141840226Y-119803937D01*
X142009744Y-119917205D01*
X142198102Y-119995226D01*
X142398061Y-120035000D01*
X142601939Y-120035000D01*
X142801898Y-119995226D01*
X142990256Y-119917205D01*
X143136829Y-119819268D01*
X157165000Y-119819268D01*
X157165000Y-120180732D01*
X157235518Y-120535250D01*
X157373844Y-120869199D01*
X157574662Y-121169744D01*
X157830256Y-121425338D01*
X158130801Y-121626156D01*
X158464750Y-121764482D01*
X158819268Y-121835000D01*
X159180732Y-121835000D01*
X159535250Y-121764482D01*
X159869199Y-121626156D01*
X160169744Y-121425338D01*
X160425338Y-121169744D01*
X160626156Y-120869199D01*
X160764482Y-120535250D01*
X160835000Y-120180732D01*
X160835000Y-119898061D01*
X181690000Y-119898061D01*
X181690000Y-120101939D01*
X181729774Y-120301898D01*
X181807795Y-120490256D01*
X181921063Y-120659774D01*
X182065226Y-120803937D01*
X182234744Y-120917205D01*
X182423102Y-120995226D01*
X182623061Y-121035000D01*
X182826939Y-121035000D01*
X183026898Y-120995226D01*
X183215256Y-120917205D01*
X183384774Y-120803937D01*
X183528937Y-120659774D01*
X183642205Y-120490256D01*
X183720226Y-120301898D01*
X183760000Y-120101939D01*
X183760000Y-119898061D01*
X183744328Y-119819268D01*
X185105000Y-119819268D01*
X185105000Y-120180732D01*
X185175518Y-120535250D01*
X185313844Y-120869199D01*
X185514662Y-121169744D01*
X185770256Y-121425338D01*
X186070801Y-121626156D01*
X186404750Y-121764482D01*
X186759268Y-121835000D01*
X187120732Y-121835000D01*
X187475250Y-121764482D01*
X187809199Y-121626156D01*
X188109744Y-121425338D01*
X188365338Y-121169744D01*
X188566156Y-120869199D01*
X188704482Y-120535250D01*
X188775000Y-120180732D01*
X188775000Y-119819268D01*
X188704482Y-119464750D01*
X188566156Y-119130801D01*
X188365338Y-118830256D01*
X188109744Y-118574662D01*
X187809199Y-118373844D01*
X187475250Y-118235518D01*
X187120732Y-118165000D01*
X186759268Y-118165000D01*
X186404750Y-118235518D01*
X186070801Y-118373844D01*
X185770256Y-118574662D01*
X185514662Y-118830256D01*
X185313844Y-119130801D01*
X185175518Y-119464750D01*
X185105000Y-119819268D01*
X183744328Y-119819268D01*
X183720226Y-119698102D01*
X183642205Y-119509744D01*
X183528937Y-119340226D01*
X183384774Y-119196063D01*
X183215256Y-119082795D01*
X183026898Y-119004774D01*
X182826939Y-118965000D01*
X182623061Y-118965000D01*
X182423102Y-119004774D01*
X182234744Y-119082795D01*
X182065226Y-119196063D01*
X181921063Y-119340226D01*
X181807795Y-119509744D01*
X181729774Y-119698102D01*
X181690000Y-119898061D01*
X160835000Y-119898061D01*
X160835000Y-119819268D01*
X160764482Y-119464750D01*
X160626156Y-119130801D01*
X160425338Y-118830256D01*
X160169744Y-118574662D01*
X159869199Y-118373844D01*
X159535250Y-118235518D01*
X159180732Y-118165000D01*
X158819268Y-118165000D01*
X158464750Y-118235518D01*
X158130801Y-118373844D01*
X157830256Y-118574662D01*
X157574662Y-118830256D01*
X157373844Y-119130801D01*
X157235518Y-119464750D01*
X157165000Y-119819268D01*
X143136829Y-119819268D01*
X143159774Y-119803937D01*
X143303937Y-119659774D01*
X143417205Y-119490256D01*
X143495226Y-119301898D01*
X143535000Y-119101939D01*
X143535000Y-118898061D01*
X143495226Y-118698102D01*
X143417205Y-118509744D01*
X143303937Y-118340226D01*
X143159774Y-118196063D01*
X142990256Y-118082795D01*
X142801898Y-118004774D01*
X142601939Y-117965000D01*
X142398061Y-117965000D01*
X142198102Y-118004774D01*
X142009744Y-118082795D01*
X141840226Y-118196063D01*
X141696063Y-118340226D01*
X141582795Y-118509744D01*
X141504774Y-118698102D01*
X141465000Y-118898061D01*
X141127000Y-118898061D01*
X141127000Y-116398061D01*
X145465000Y-116398061D01*
X145465000Y-116601939D01*
X145504774Y-116801898D01*
X145582795Y-116990256D01*
X145696063Y-117159774D01*
X145840226Y-117303937D01*
X146009744Y-117417205D01*
X146198102Y-117495226D01*
X146398061Y-117535000D01*
X146601939Y-117535000D01*
X146801898Y-117495226D01*
X146990256Y-117417205D01*
X147159774Y-117303937D01*
X147163711Y-117300000D01*
X185561928Y-117300000D01*
X185574188Y-117424482D01*
X185610498Y-117544180D01*
X185669463Y-117654494D01*
X185748815Y-117751185D01*
X185845506Y-117830537D01*
X185955820Y-117889502D01*
X186075518Y-117925812D01*
X186200000Y-117938072D01*
X186714250Y-117935000D01*
X186873000Y-117776250D01*
X186873000Y-116627000D01*
X187127000Y-116627000D01*
X187127000Y-117776250D01*
X187285750Y-117935000D01*
X187800000Y-117938072D01*
X187924482Y-117925812D01*
X188044180Y-117889502D01*
X188154494Y-117830537D01*
X188251185Y-117751185D01*
X188330537Y-117654494D01*
X188389502Y-117544180D01*
X188425812Y-117424482D01*
X188438072Y-117300000D01*
X188435000Y-116785750D01*
X188276250Y-116627000D01*
X187127000Y-116627000D01*
X186873000Y-116627000D01*
X185723750Y-116627000D01*
X185565000Y-116785750D01*
X185561928Y-117300000D01*
X147163711Y-117300000D01*
X147303937Y-117159774D01*
X147417205Y-116990256D01*
X147495226Y-116801898D01*
X147535000Y-116601939D01*
X147535000Y-116398061D01*
X147495226Y-116198102D01*
X147417205Y-116009744D01*
X147303937Y-115840226D01*
X147159774Y-115696063D01*
X146990256Y-115582795D01*
X146801898Y-115504774D01*
X146601939Y-115465000D01*
X146398061Y-115465000D01*
X146198102Y-115504774D01*
X146009744Y-115582795D01*
X145840226Y-115696063D01*
X145696063Y-115840226D01*
X145582795Y-116009744D01*
X145504774Y-116198102D01*
X145465000Y-116398061D01*
X141127000Y-116398061D01*
X141127000Y-114825836D01*
X141159774Y-114803937D01*
X141303937Y-114659774D01*
X141417205Y-114490256D01*
X141495226Y-114301898D01*
X141535000Y-114101939D01*
X141535000Y-113898061D01*
X141495226Y-113698102D01*
X141417205Y-113509744D01*
X141303937Y-113340226D01*
X141159774Y-113196063D01*
X141127000Y-113174164D01*
X141127000Y-109530015D01*
X141301898Y-109495226D01*
X141490256Y-109417205D01*
X141659774Y-109303937D01*
X141803937Y-109159774D01*
X141917205Y-108990256D01*
X141995226Y-108801898D01*
X142035000Y-108601939D01*
X142035000Y-108398061D01*
X141995226Y-108198102D01*
X141917205Y-108009744D01*
X141803937Y-107840226D01*
X141659774Y-107696063D01*
X141490256Y-107582795D01*
X141301898Y-107504774D01*
X141127000Y-107469985D01*
X141127000Y-103573061D01*
X141465000Y-103573061D01*
X141465000Y-103776939D01*
X141504774Y-103976898D01*
X141582795Y-104165256D01*
X141696063Y-104334774D01*
X141840226Y-104478937D01*
X142009744Y-104592205D01*
X142198102Y-104670226D01*
X142398061Y-104710000D01*
X142601939Y-104710000D01*
X142801898Y-104670226D01*
X142990256Y-104592205D01*
X143159774Y-104478937D01*
X143303937Y-104334774D01*
X143417205Y-104165256D01*
X143495226Y-103976898D01*
X143535000Y-103776939D01*
X143535000Y-103573061D01*
X143520468Y-103500000D01*
X147365000Y-103500000D01*
X147365000Y-114500000D01*
X147377201Y-114623882D01*
X147413336Y-114743004D01*
X147472017Y-114852787D01*
X147550987Y-114949013D01*
X147647213Y-115027983D01*
X147756996Y-115086664D01*
X147876118Y-115122799D01*
X148000000Y-115135000D01*
X185909981Y-115135000D01*
X185845506Y-115169463D01*
X185748815Y-115248815D01*
X185669463Y-115345506D01*
X185610498Y-115455820D01*
X185574188Y-115575518D01*
X185561928Y-115700000D01*
X185565000Y-116214250D01*
X185723750Y-116373000D01*
X186873000Y-116373000D01*
X186873000Y-116353000D01*
X187127000Y-116353000D01*
X187127000Y-116373000D01*
X188276250Y-116373000D01*
X188435000Y-116214250D01*
X188438072Y-115700000D01*
X188425812Y-115575518D01*
X188389502Y-115455820D01*
X188330537Y-115345506D01*
X188251185Y-115248815D01*
X188154494Y-115169463D01*
X188090019Y-115135000D01*
X193365000Y-115135000D01*
X193365000Y-115500000D01*
X193377201Y-115623882D01*
X193413336Y-115743004D01*
X193472017Y-115852787D01*
X193550987Y-115949013D01*
X193647213Y-116027983D01*
X193756996Y-116086664D01*
X193876118Y-116122799D01*
X194000000Y-116135000D01*
X194068330Y-116135000D01*
X194061928Y-116200000D01*
X194061928Y-117800000D01*
X194074188Y-117924482D01*
X194110498Y-118044180D01*
X194169463Y-118154494D01*
X194248815Y-118251185D01*
X194345506Y-118330537D01*
X194455820Y-118389502D01*
X194575518Y-118425812D01*
X194700000Y-118438072D01*
X196300000Y-118438072D01*
X196424482Y-118425812D01*
X196544180Y-118389502D01*
X196654494Y-118330537D01*
X196751185Y-118251185D01*
X196830537Y-118154494D01*
X196889502Y-118044180D01*
X196925812Y-117924482D01*
X196938072Y-117800000D01*
X196938072Y-116200000D01*
X196931670Y-116135000D01*
X197500001Y-116135000D01*
X197623884Y-116122799D01*
X197743005Y-116086663D01*
X197852788Y-116027983D01*
X197949014Y-115949013D01*
X198027984Y-115852787D01*
X198086665Y-115743004D01*
X198122800Y-115623882D01*
X198135001Y-115500000D01*
X198135000Y-113000000D01*
X198128618Y-112910197D01*
X198099020Y-112789286D01*
X198046401Y-112676472D01*
X197972785Y-112576090D01*
X197881000Y-112492000D01*
X196135000Y-111182500D01*
X196135000Y-103500000D01*
X196122799Y-103376118D01*
X196086664Y-103256996D01*
X196027983Y-103147213D01*
X195949013Y-103050987D01*
X195852787Y-102972017D01*
X195743004Y-102913336D01*
X195623882Y-102877201D01*
X195500000Y-102865000D01*
X148000000Y-102865000D01*
X147876118Y-102877201D01*
X147756996Y-102913336D01*
X147647213Y-102972017D01*
X147550987Y-103050987D01*
X147472017Y-103147213D01*
X147413336Y-103256996D01*
X147377201Y-103376118D01*
X147365000Y-103500000D01*
X143520468Y-103500000D01*
X143495226Y-103373102D01*
X143417205Y-103184744D01*
X143303937Y-103015226D01*
X143159774Y-102871063D01*
X142990256Y-102757795D01*
X142801898Y-102679774D01*
X142601939Y-102640000D01*
X142398061Y-102640000D01*
X142198102Y-102679774D01*
X142009744Y-102757795D01*
X141840226Y-102871063D01*
X141696063Y-103015226D01*
X141582795Y-103184744D01*
X141504774Y-103373102D01*
X141465000Y-103573061D01*
X141127000Y-103573061D01*
X141127000Y-99819268D01*
X157165000Y-99819268D01*
X157165000Y-100180732D01*
X157235518Y-100535250D01*
X157373844Y-100869199D01*
X157574662Y-101169744D01*
X157830256Y-101425338D01*
X158130801Y-101626156D01*
X158464750Y-101764482D01*
X158819268Y-101835000D01*
X159180732Y-101835000D01*
X159535250Y-101764482D01*
X159869199Y-101626156D01*
X160169744Y-101425338D01*
X160425338Y-101169744D01*
X160626156Y-100869199D01*
X160764482Y-100535250D01*
X160835000Y-100180732D01*
X160835000Y-99819268D01*
X185105000Y-99819268D01*
X185105000Y-100180732D01*
X185175518Y-100535250D01*
X185313844Y-100869199D01*
X185514662Y-101169744D01*
X185770256Y-101425338D01*
X186070801Y-101626156D01*
X186404750Y-101764482D01*
X186759268Y-101835000D01*
X187120732Y-101835000D01*
X187475250Y-101764482D01*
X187809199Y-101626156D01*
X188109744Y-101425338D01*
X188365338Y-101169744D01*
X188566156Y-100869199D01*
X188704482Y-100535250D01*
X188775000Y-100180732D01*
X188775000Y-99819268D01*
X188704482Y-99464750D01*
X188566156Y-99130801D01*
X188365338Y-98830256D01*
X188109744Y-98574662D01*
X187845443Y-98398061D01*
X191965000Y-98398061D01*
X191965000Y-98601939D01*
X192004774Y-98801898D01*
X192082795Y-98990256D01*
X192089306Y-99000000D01*
X192082795Y-99009744D01*
X192004774Y-99198102D01*
X191965000Y-99398061D01*
X191965000Y-99601939D01*
X192004774Y-99801898D01*
X192082795Y-99990256D01*
X192089306Y-100000000D01*
X192082795Y-100009744D01*
X192004774Y-100198102D01*
X191965000Y-100398061D01*
X191965000Y-100601939D01*
X192004774Y-100801898D01*
X192082795Y-100990256D01*
X192089306Y-101000000D01*
X192082795Y-101009744D01*
X192004774Y-101198102D01*
X191965000Y-101398061D01*
X191965000Y-101601939D01*
X192004774Y-101801898D01*
X192082795Y-101990256D01*
X192196063Y-102159774D01*
X192340226Y-102303937D01*
X192509744Y-102417205D01*
X192698102Y-102495226D01*
X192898061Y-102535000D01*
X193101939Y-102535000D01*
X193301898Y-102495226D01*
X193490256Y-102417205D01*
X193500000Y-102410694D01*
X193509744Y-102417205D01*
X193698102Y-102495226D01*
X193898061Y-102535000D01*
X194101939Y-102535000D01*
X194301898Y-102495226D01*
X194490256Y-102417205D01*
X194500000Y-102410694D01*
X194509744Y-102417205D01*
X194698102Y-102495226D01*
X194898061Y-102535000D01*
X195101939Y-102535000D01*
X195301898Y-102495226D01*
X195490256Y-102417205D01*
X195500000Y-102410694D01*
X195509744Y-102417205D01*
X195698102Y-102495226D01*
X195898061Y-102535000D01*
X196101939Y-102535000D01*
X196301898Y-102495226D01*
X196490256Y-102417205D01*
X196659774Y-102303937D01*
X196803937Y-102159774D01*
X196917205Y-101990256D01*
X196995226Y-101801898D01*
X197035000Y-101601939D01*
X197035000Y-101398061D01*
X196995226Y-101198102D01*
X196917205Y-101009744D01*
X196910694Y-101000000D01*
X196917205Y-100990256D01*
X196995226Y-100801898D01*
X197035000Y-100601939D01*
X197035000Y-100398061D01*
X196995226Y-100198102D01*
X196917205Y-100009744D01*
X196910694Y-100000000D01*
X196917205Y-99990256D01*
X196995226Y-99801898D01*
X197035000Y-99601939D01*
X197035000Y-99398061D01*
X196995226Y-99198102D01*
X196917205Y-99009744D01*
X196910694Y-99000000D01*
X196917205Y-98990256D01*
X196995226Y-98801898D01*
X197035000Y-98601939D01*
X197035000Y-98398061D01*
X196995226Y-98198102D01*
X196917205Y-98009744D01*
X196803937Y-97840226D01*
X196659774Y-97696063D01*
X196490256Y-97582795D01*
X196301898Y-97504774D01*
X196101939Y-97465000D01*
X195898061Y-97465000D01*
X195698102Y-97504774D01*
X195509744Y-97582795D01*
X195500000Y-97589306D01*
X195490256Y-97582795D01*
X195301898Y-97504774D01*
X195101939Y-97465000D01*
X194898061Y-97465000D01*
X194698102Y-97504774D01*
X194509744Y-97582795D01*
X194500000Y-97589306D01*
X194490256Y-97582795D01*
X194301898Y-97504774D01*
X194101939Y-97465000D01*
X193898061Y-97465000D01*
X193698102Y-97504774D01*
X193509744Y-97582795D01*
X193500000Y-97589306D01*
X193490256Y-97582795D01*
X193301898Y-97504774D01*
X193101939Y-97465000D01*
X192898061Y-97465000D01*
X192698102Y-97504774D01*
X192509744Y-97582795D01*
X192340226Y-97696063D01*
X192196063Y-97840226D01*
X192082795Y-98009744D01*
X192004774Y-98198102D01*
X191965000Y-98398061D01*
X187845443Y-98398061D01*
X187809199Y-98373844D01*
X187475250Y-98235518D01*
X187120732Y-98165000D01*
X186759268Y-98165000D01*
X186404750Y-98235518D01*
X186070801Y-98373844D01*
X185770256Y-98574662D01*
X185514662Y-98830256D01*
X185313844Y-99130801D01*
X185175518Y-99464750D01*
X185105000Y-99819268D01*
X160835000Y-99819268D01*
X160764482Y-99464750D01*
X160626156Y-99130801D01*
X160425338Y-98830256D01*
X160169744Y-98574662D01*
X159869199Y-98373844D01*
X159535250Y-98235518D01*
X159180732Y-98165000D01*
X158819268Y-98165000D01*
X158464750Y-98235518D01*
X158130801Y-98373844D01*
X157830256Y-98574662D01*
X157574662Y-98830256D01*
X157373844Y-99130801D01*
X157235518Y-99464750D01*
X157165000Y-99819268D01*
X141127000Y-99819268D01*
X141127000Y-97398061D01*
X141465000Y-97398061D01*
X141465000Y-97601939D01*
X141504774Y-97801898D01*
X141582795Y-97990256D01*
X141696063Y-98159774D01*
X141840226Y-98303937D01*
X142009744Y-98417205D01*
X142198102Y-98495226D01*
X142398061Y-98535000D01*
X142601939Y-98535000D01*
X142801898Y-98495226D01*
X142990256Y-98417205D01*
X143159774Y-98303937D01*
X143303937Y-98159774D01*
X143417205Y-97990256D01*
X143495226Y-97801898D01*
X143535000Y-97601939D01*
X143535000Y-97398061D01*
X143495226Y-97198102D01*
X143417205Y-97009744D01*
X143303937Y-96840226D01*
X143159774Y-96696063D01*
X142990256Y-96582795D01*
X142801898Y-96504774D01*
X142601939Y-96465000D01*
X142398061Y-96465000D01*
X142198102Y-96504774D01*
X142009744Y-96582795D01*
X141840226Y-96696063D01*
X141696063Y-96840226D01*
X141582795Y-97009744D01*
X141504774Y-97198102D01*
X141465000Y-97398061D01*
X141127000Y-97398061D01*
X141127000Y-94898061D01*
X145465000Y-94898061D01*
X145465000Y-95101939D01*
X145504774Y-95301898D01*
X145582795Y-95490256D01*
X145696063Y-95659774D01*
X145840226Y-95803937D01*
X146009744Y-95917205D01*
X146198102Y-95995226D01*
X146398061Y-96035000D01*
X146601939Y-96035000D01*
X146801898Y-95995226D01*
X146990256Y-95917205D01*
X147159774Y-95803937D01*
X147303937Y-95659774D01*
X147417205Y-95490256D01*
X147495226Y-95301898D01*
X147535000Y-95101939D01*
X147535000Y-94898061D01*
X147495226Y-94698102D01*
X147417205Y-94509744D01*
X147303937Y-94340226D01*
X147159774Y-94196063D01*
X146990256Y-94082795D01*
X146801898Y-94004774D01*
X146601939Y-93965000D01*
X146398061Y-93965000D01*
X146198102Y-94004774D01*
X146009744Y-94082795D01*
X145840226Y-94196063D01*
X145696063Y-94340226D01*
X145582795Y-94509744D01*
X145504774Y-94698102D01*
X145465000Y-94898061D01*
X141127000Y-94898061D01*
X141127000Y-93465774D01*
X141198102Y-93495226D01*
X141398061Y-93535000D01*
X141601939Y-93535000D01*
X141801898Y-93495226D01*
X141990256Y-93417205D01*
X142159774Y-93303937D01*
X142303937Y-93159774D01*
X142417205Y-92990256D01*
X142495226Y-92801898D01*
X142535000Y-92601939D01*
X142535000Y-92398061D01*
X142495226Y-92198102D01*
X142417205Y-92009744D01*
X142303937Y-91840226D01*
X142159774Y-91696063D01*
X141990256Y-91582795D01*
X141801898Y-91504774D01*
X141601939Y-91465000D01*
X141398061Y-91465000D01*
X141198102Y-91504774D01*
X141127000Y-91534226D01*
X141127000Y-89819268D01*
X157165000Y-89819268D01*
X157165000Y-90180732D01*
X157235518Y-90535250D01*
X157373844Y-90869199D01*
X157574662Y-91169744D01*
X157830256Y-91425338D01*
X158130801Y-91626156D01*
X158464750Y-91764482D01*
X158819268Y-91835000D01*
X159180732Y-91835000D01*
X159535250Y-91764482D01*
X159869199Y-91626156D01*
X160169744Y-91425338D01*
X160425338Y-91169744D01*
X160626156Y-90869199D01*
X160764482Y-90535250D01*
X160835000Y-90180732D01*
X160835000Y-89898061D01*
X181690000Y-89898061D01*
X181690000Y-90101939D01*
X181729774Y-90301898D01*
X181807795Y-90490256D01*
X181921063Y-90659774D01*
X182065226Y-90803937D01*
X182234744Y-90917205D01*
X182423102Y-90995226D01*
X182623061Y-91035000D01*
X182826939Y-91035000D01*
X183026898Y-90995226D01*
X183215256Y-90917205D01*
X183384774Y-90803937D01*
X183528937Y-90659774D01*
X183642205Y-90490256D01*
X183720226Y-90301898D01*
X183760000Y-90101939D01*
X183760000Y-89898061D01*
X183744328Y-89819268D01*
X185105000Y-89819268D01*
X185105000Y-90180732D01*
X185175518Y-90535250D01*
X185313844Y-90869199D01*
X185514662Y-91169744D01*
X185770256Y-91425338D01*
X186070801Y-91626156D01*
X186404750Y-91764482D01*
X186759268Y-91835000D01*
X187120732Y-91835000D01*
X187475250Y-91764482D01*
X187809199Y-91626156D01*
X188109744Y-91425338D01*
X188365338Y-91169744D01*
X188566156Y-90869199D01*
X188704482Y-90535250D01*
X188775000Y-90180732D01*
X188775000Y-89819268D01*
X188704482Y-89464750D01*
X188566156Y-89130801D01*
X188365338Y-88830256D01*
X188109744Y-88574662D01*
X187809199Y-88373844D01*
X187475250Y-88235518D01*
X187120732Y-88165000D01*
X186759268Y-88165000D01*
X186404750Y-88235518D01*
X186070801Y-88373844D01*
X185770256Y-88574662D01*
X185514662Y-88830256D01*
X185313844Y-89130801D01*
X185175518Y-89464750D01*
X185105000Y-89819268D01*
X183744328Y-89819268D01*
X183720226Y-89698102D01*
X183642205Y-89509744D01*
X183528937Y-89340226D01*
X183384774Y-89196063D01*
X183215256Y-89082795D01*
X183026898Y-89004774D01*
X182826939Y-88965000D01*
X182623061Y-88965000D01*
X182423102Y-89004774D01*
X182234744Y-89082795D01*
X182065226Y-89196063D01*
X181921063Y-89340226D01*
X181807795Y-89509744D01*
X181729774Y-89698102D01*
X181690000Y-89898061D01*
X160835000Y-89898061D01*
X160835000Y-89819268D01*
X160764482Y-89464750D01*
X160626156Y-89130801D01*
X160425338Y-88830256D01*
X160169744Y-88574662D01*
X159869199Y-88373844D01*
X159535250Y-88235518D01*
X159180732Y-88165000D01*
X158819268Y-88165000D01*
X158464750Y-88235518D01*
X158130801Y-88373844D01*
X157830256Y-88574662D01*
X157574662Y-88830256D01*
X157373844Y-89130801D01*
X157235518Y-89464750D01*
X157165000Y-89819268D01*
X141127000Y-89819268D01*
X141127000Y-89030015D01*
X141301898Y-88995226D01*
X141490256Y-88917205D01*
X141659774Y-88803937D01*
X141803937Y-88659774D01*
X141917205Y-88490256D01*
X141995226Y-88301898D01*
X142035000Y-88101939D01*
X142035000Y-87898061D01*
X141995226Y-87698102D01*
X141917205Y-87509744D01*
X141803937Y-87340226D01*
X141763711Y-87300000D01*
X185561928Y-87300000D01*
X185574188Y-87424482D01*
X185610498Y-87544180D01*
X185669463Y-87654494D01*
X185748815Y-87751185D01*
X185845506Y-87830537D01*
X185955820Y-87889502D01*
X186075518Y-87925812D01*
X186200000Y-87938072D01*
X186714250Y-87935000D01*
X186873000Y-87776250D01*
X186873000Y-86627000D01*
X187127000Y-86627000D01*
X187127000Y-87776250D01*
X187285750Y-87935000D01*
X187800000Y-87938072D01*
X187924482Y-87925812D01*
X188044180Y-87889502D01*
X188154494Y-87830537D01*
X188251185Y-87751185D01*
X188330537Y-87654494D01*
X188389502Y-87544180D01*
X188425812Y-87424482D01*
X188438072Y-87300000D01*
X188435000Y-86785750D01*
X188276250Y-86627000D01*
X187127000Y-86627000D01*
X186873000Y-86627000D01*
X185723750Y-86627000D01*
X185565000Y-86785750D01*
X185561928Y-87300000D01*
X141763711Y-87300000D01*
X141659774Y-87196063D01*
X141490256Y-87082795D01*
X141301898Y-87004774D01*
X141127000Y-86969985D01*
X141127000Y-82398061D01*
X143965000Y-82398061D01*
X143965000Y-82601939D01*
X144004774Y-82801898D01*
X144082795Y-82990256D01*
X144196063Y-83159774D01*
X144340226Y-83303937D01*
X144509744Y-83417205D01*
X144698102Y-83495226D01*
X144898061Y-83535000D01*
X145101939Y-83535000D01*
X145301898Y-83495226D01*
X145490256Y-83417205D01*
X145659774Y-83303937D01*
X145803937Y-83159774D01*
X145917205Y-82990256D01*
X145995226Y-82801898D01*
X146035000Y-82601939D01*
X146035000Y-82398061D01*
X145995226Y-82198102D01*
X145917205Y-82009744D01*
X145803937Y-81840226D01*
X145659774Y-81696063D01*
X145490256Y-81582795D01*
X145301898Y-81504774D01*
X145101939Y-81465000D01*
X144898061Y-81465000D01*
X144698102Y-81504774D01*
X144509744Y-81582795D01*
X144340226Y-81696063D01*
X144196063Y-81840226D01*
X144082795Y-82009744D01*
X144004774Y-82198102D01*
X143965000Y-82398061D01*
X141127000Y-82398061D01*
X141127000Y-77556414D01*
X141196063Y-77659774D01*
X141340226Y-77803937D01*
X141509744Y-77917205D01*
X141698102Y-77995226D01*
X141898061Y-78035000D01*
X142101939Y-78035000D01*
X142301898Y-77995226D01*
X142490256Y-77917205D01*
X142659774Y-77803937D01*
X142803937Y-77659774D01*
X142917205Y-77490256D01*
X142995226Y-77301898D01*
X143035000Y-77101939D01*
X143035000Y-76898061D01*
X142995226Y-76698102D01*
X142917205Y-76509744D01*
X142803937Y-76340226D01*
X142659774Y-76196063D01*
X142490256Y-76082795D01*
X142301898Y-76004774D01*
X142101939Y-75965000D01*
X141898061Y-75965000D01*
X141698102Y-76004774D01*
X141509744Y-76082795D01*
X141340226Y-76196063D01*
X141196063Y-76340226D01*
X141127000Y-76443586D01*
X141127000Y-74398061D01*
X144965000Y-74398061D01*
X144965000Y-74601939D01*
X145004774Y-74801898D01*
X145082795Y-74990256D01*
X145196063Y-75159774D01*
X145340226Y-75303937D01*
X145509744Y-75417205D01*
X145698102Y-75495226D01*
X145898061Y-75535000D01*
X146101939Y-75535000D01*
X146301898Y-75495226D01*
X146490256Y-75417205D01*
X146659774Y-75303937D01*
X146803937Y-75159774D01*
X146917205Y-74990256D01*
X146995226Y-74801898D01*
X147035000Y-74601939D01*
X147035000Y-74398061D01*
X146995226Y-74198102D01*
X146917205Y-74009744D01*
X146803937Y-73840226D01*
X146659774Y-73696063D01*
X146490256Y-73582795D01*
X146301898Y-73504774D01*
X146277898Y-73500000D01*
X147365000Y-73500000D01*
X147365000Y-84500000D01*
X147377201Y-84623882D01*
X147413336Y-84743004D01*
X147472017Y-84852787D01*
X147550987Y-84949013D01*
X147647213Y-85027983D01*
X147756996Y-85086664D01*
X147876118Y-85122799D01*
X148000000Y-85135000D01*
X185909981Y-85135000D01*
X185845506Y-85169463D01*
X185748815Y-85248815D01*
X185669463Y-85345506D01*
X185610498Y-85455820D01*
X185574188Y-85575518D01*
X185561928Y-85700000D01*
X185565000Y-86214250D01*
X185723750Y-86373000D01*
X186873000Y-86373000D01*
X186873000Y-86353000D01*
X187127000Y-86353000D01*
X187127000Y-86373000D01*
X188276250Y-86373000D01*
X188435000Y-86214250D01*
X188438072Y-85700000D01*
X188425812Y-85575518D01*
X188389502Y-85455820D01*
X188330537Y-85345506D01*
X188251185Y-85248815D01*
X188154494Y-85169463D01*
X188090019Y-85135000D01*
X193365000Y-85135000D01*
X193365000Y-85500000D01*
X193377201Y-85623882D01*
X193413336Y-85743004D01*
X193472017Y-85852787D01*
X193550987Y-85949013D01*
X193647213Y-86027983D01*
X193756996Y-86086664D01*
X193876118Y-86122799D01*
X194000000Y-86135000D01*
X194068330Y-86135000D01*
X194061928Y-86200000D01*
X194061928Y-87800000D01*
X194074188Y-87924482D01*
X194110498Y-88044180D01*
X194169463Y-88154494D01*
X194248815Y-88251185D01*
X194345506Y-88330537D01*
X194455820Y-88389502D01*
X194575518Y-88425812D01*
X194700000Y-88438072D01*
X196300000Y-88438072D01*
X196424482Y-88425812D01*
X196544180Y-88389502D01*
X196654494Y-88330537D01*
X196751185Y-88251185D01*
X196830537Y-88154494D01*
X196889502Y-88044180D01*
X196925812Y-87924482D01*
X196938072Y-87800000D01*
X196938072Y-86200000D01*
X196931670Y-86135000D01*
X197500001Y-86135000D01*
X197623884Y-86122799D01*
X197743005Y-86086663D01*
X197852788Y-86027983D01*
X197949014Y-85949013D01*
X198027984Y-85852787D01*
X198086665Y-85743004D01*
X198122800Y-85623882D01*
X198135001Y-85500000D01*
X198135000Y-83000000D01*
X198128618Y-82910197D01*
X198099020Y-82789286D01*
X198046401Y-82676472D01*
X197972785Y-82576090D01*
X197881000Y-82492000D01*
X196135000Y-81182500D01*
X196135000Y-73500000D01*
X196122799Y-73376118D01*
X196086664Y-73256996D01*
X196027983Y-73147213D01*
X195949013Y-73050987D01*
X195852787Y-72972017D01*
X195743004Y-72913336D01*
X195623882Y-72877201D01*
X195500000Y-72865000D01*
X148000000Y-72865000D01*
X147876118Y-72877201D01*
X147756996Y-72913336D01*
X147647213Y-72972017D01*
X147550987Y-73050987D01*
X147472017Y-73147213D01*
X147413336Y-73256996D01*
X147377201Y-73376118D01*
X147365000Y-73500000D01*
X146277898Y-73500000D01*
X146101939Y-73465000D01*
X145898061Y-73465000D01*
X145698102Y-73504774D01*
X145509744Y-73582795D01*
X145340226Y-73696063D01*
X145196063Y-73840226D01*
X145082795Y-74009744D01*
X145004774Y-74198102D01*
X144965000Y-74398061D01*
X141127000Y-74398061D01*
X141127000Y-72965774D01*
X141198102Y-72995226D01*
X141398061Y-73035000D01*
X141601939Y-73035000D01*
X141801898Y-72995226D01*
X141990256Y-72917205D01*
X142159774Y-72803937D01*
X142303937Y-72659774D01*
X142417205Y-72490256D01*
X142495226Y-72301898D01*
X142535000Y-72101939D01*
X142535000Y-71898061D01*
X142495226Y-71698102D01*
X142417205Y-71509744D01*
X142303937Y-71340226D01*
X142159774Y-71196063D01*
X141990256Y-71082795D01*
X141801898Y-71004774D01*
X141601939Y-70965000D01*
X141398061Y-70965000D01*
X141198102Y-71004774D01*
X141127000Y-71034226D01*
X141127000Y-69819268D01*
X157165000Y-69819268D01*
X157165000Y-70180732D01*
X157235518Y-70535250D01*
X157373844Y-70869199D01*
X157574662Y-71169744D01*
X157830256Y-71425338D01*
X158130801Y-71626156D01*
X158464750Y-71764482D01*
X158819268Y-71835000D01*
X159180732Y-71835000D01*
X159535250Y-71764482D01*
X159869199Y-71626156D01*
X160169744Y-71425338D01*
X160425338Y-71169744D01*
X160626156Y-70869199D01*
X160764482Y-70535250D01*
X160835000Y-70180732D01*
X160835000Y-69819268D01*
X185105000Y-69819268D01*
X185105000Y-70180732D01*
X185175518Y-70535250D01*
X185313844Y-70869199D01*
X185514662Y-71169744D01*
X185770256Y-71425338D01*
X186070801Y-71626156D01*
X186404750Y-71764482D01*
X186759268Y-71835000D01*
X187120732Y-71835000D01*
X187475250Y-71764482D01*
X187809199Y-71626156D01*
X188109744Y-71425338D01*
X188365338Y-71169744D01*
X188566156Y-70869199D01*
X188704482Y-70535250D01*
X188775000Y-70180732D01*
X188775000Y-69819268D01*
X188704482Y-69464750D01*
X188566156Y-69130801D01*
X188365338Y-68830256D01*
X188109744Y-68574662D01*
X187845443Y-68398061D01*
X191965000Y-68398061D01*
X191965000Y-68601939D01*
X192004774Y-68801898D01*
X192082795Y-68990256D01*
X192089306Y-69000000D01*
X192082795Y-69009744D01*
X192004774Y-69198102D01*
X191965000Y-69398061D01*
X191965000Y-69601939D01*
X192004774Y-69801898D01*
X192082795Y-69990256D01*
X192089306Y-70000000D01*
X192082795Y-70009744D01*
X192004774Y-70198102D01*
X191965000Y-70398061D01*
X191965000Y-70601939D01*
X192004774Y-70801898D01*
X192082795Y-70990256D01*
X192089306Y-71000000D01*
X192082795Y-71009744D01*
X192004774Y-71198102D01*
X191965000Y-71398061D01*
X191965000Y-71601939D01*
X192004774Y-71801898D01*
X192082795Y-71990256D01*
X192196063Y-72159774D01*
X192340226Y-72303937D01*
X192509744Y-72417205D01*
X192698102Y-72495226D01*
X192898061Y-72535000D01*
X193101939Y-72535000D01*
X193301898Y-72495226D01*
X193490256Y-72417205D01*
X193500000Y-72410694D01*
X193509744Y-72417205D01*
X193698102Y-72495226D01*
X193898061Y-72535000D01*
X194101939Y-72535000D01*
X194301898Y-72495226D01*
X194490256Y-72417205D01*
X194500000Y-72410694D01*
X194509744Y-72417205D01*
X194698102Y-72495226D01*
X194898061Y-72535000D01*
X195101939Y-72535000D01*
X195301898Y-72495226D01*
X195490256Y-72417205D01*
X195500000Y-72410694D01*
X195509744Y-72417205D01*
X195698102Y-72495226D01*
X195898061Y-72535000D01*
X196101939Y-72535000D01*
X196301898Y-72495226D01*
X196490256Y-72417205D01*
X196659774Y-72303937D01*
X196803937Y-72159774D01*
X196917205Y-71990256D01*
X196995226Y-71801898D01*
X197035000Y-71601939D01*
X197035000Y-71398061D01*
X196995226Y-71198102D01*
X196917205Y-71009744D01*
X196910694Y-71000000D01*
X196917205Y-70990256D01*
X196995226Y-70801898D01*
X197035000Y-70601939D01*
X197035000Y-70398061D01*
X196995226Y-70198102D01*
X196917205Y-70009744D01*
X196910694Y-70000000D01*
X196917205Y-69990256D01*
X196995226Y-69801898D01*
X197035000Y-69601939D01*
X197035000Y-69398061D01*
X196995226Y-69198102D01*
X196917205Y-69009744D01*
X196910694Y-69000000D01*
X196917205Y-68990256D01*
X196995226Y-68801898D01*
X197035000Y-68601939D01*
X197035000Y-68398061D01*
X196995226Y-68198102D01*
X196917205Y-68009744D01*
X196803937Y-67840226D01*
X196659774Y-67696063D01*
X196490256Y-67582795D01*
X196301898Y-67504774D01*
X196101939Y-67465000D01*
X195898061Y-67465000D01*
X195698102Y-67504774D01*
X195509744Y-67582795D01*
X195500000Y-67589306D01*
X195490256Y-67582795D01*
X195301898Y-67504774D01*
X195101939Y-67465000D01*
X194898061Y-67465000D01*
X194698102Y-67504774D01*
X194509744Y-67582795D01*
X194500000Y-67589306D01*
X194490256Y-67582795D01*
X194301898Y-67504774D01*
X194101939Y-67465000D01*
X193898061Y-67465000D01*
X193698102Y-67504774D01*
X193509744Y-67582795D01*
X193500000Y-67589306D01*
X193490256Y-67582795D01*
X193301898Y-67504774D01*
X193101939Y-67465000D01*
X192898061Y-67465000D01*
X192698102Y-67504774D01*
X192509744Y-67582795D01*
X192340226Y-67696063D01*
X192196063Y-67840226D01*
X192082795Y-68009744D01*
X192004774Y-68198102D01*
X191965000Y-68398061D01*
X187845443Y-68398061D01*
X187809199Y-68373844D01*
X187475250Y-68235518D01*
X187120732Y-68165000D01*
X186759268Y-68165000D01*
X186404750Y-68235518D01*
X186070801Y-68373844D01*
X185770256Y-68574662D01*
X185514662Y-68830256D01*
X185313844Y-69130801D01*
X185175518Y-69464750D01*
X185105000Y-69819268D01*
X160835000Y-69819268D01*
X160764482Y-69464750D01*
X160626156Y-69130801D01*
X160425338Y-68830256D01*
X160169744Y-68574662D01*
X159869199Y-68373844D01*
X159535250Y-68235518D01*
X159180732Y-68165000D01*
X158819268Y-68165000D01*
X158464750Y-68235518D01*
X158130801Y-68373844D01*
X157830256Y-68574662D01*
X157574662Y-68830256D01*
X157373844Y-69130801D01*
X157235518Y-69464750D01*
X157165000Y-69819268D01*
X141127000Y-69819268D01*
X141127000Y-66000000D01*
X141124560Y-65975224D01*
X141117333Y-65951399D01*
X141105597Y-65929443D01*
X141089803Y-65910197D01*
X141070557Y-65894403D01*
X141048601Y-65882667D01*
X141024776Y-65875440D01*
X141000000Y-65873000D01*
X127056414Y-65873000D01*
X127159774Y-65803937D01*
X127303937Y-65659774D01*
X127417205Y-65490256D01*
X127495226Y-65301898D01*
X127535000Y-65101939D01*
X127535000Y-64898061D01*
X127495226Y-64698102D01*
X127417205Y-64509744D01*
X127410694Y-64500000D01*
X127417205Y-64490256D01*
X127495226Y-64301898D01*
X127535000Y-64101939D01*
X127535000Y-63898061D01*
X127527164Y-63858665D01*
X128065000Y-63858665D01*
X128065000Y-64141335D01*
X128120147Y-64418574D01*
X128228320Y-64679727D01*
X128385363Y-64914759D01*
X128585241Y-65114637D01*
X128820273Y-65271680D01*
X129081426Y-65379853D01*
X129358665Y-65435000D01*
X129641335Y-65435000D01*
X129918574Y-65379853D01*
X130179727Y-65271680D01*
X130414759Y-65114637D01*
X130614637Y-64914759D01*
X130771680Y-64679727D01*
X130879853Y-64418574D01*
X130935000Y-64141335D01*
X130935000Y-63858665D01*
X136565000Y-63858665D01*
X136565000Y-64141335D01*
X136620147Y-64418574D01*
X136728320Y-64679727D01*
X136885363Y-64914759D01*
X137085241Y-65114637D01*
X137320273Y-65271680D01*
X137581426Y-65379853D01*
X137858665Y-65435000D01*
X138141335Y-65435000D01*
X138418574Y-65379853D01*
X138679727Y-65271680D01*
X138914759Y-65114637D01*
X139114637Y-64914759D01*
X139271680Y-64679727D01*
X139379853Y-64418574D01*
X139435000Y-64141335D01*
X139435000Y-63858665D01*
X139379853Y-63581426D01*
X139271680Y-63320273D01*
X139114637Y-63085241D01*
X138914759Y-62885363D01*
X138679727Y-62728320D01*
X138418574Y-62620147D01*
X138141335Y-62565000D01*
X137858665Y-62565000D01*
X137581426Y-62620147D01*
X137320273Y-62728320D01*
X137085241Y-62885363D01*
X136885363Y-63085241D01*
X136728320Y-63320273D01*
X136620147Y-63581426D01*
X136565000Y-63858665D01*
X130935000Y-63858665D01*
X130879853Y-63581426D01*
X130771680Y-63320273D01*
X130614637Y-63085241D01*
X130414759Y-62885363D01*
X130179727Y-62728320D01*
X129918574Y-62620147D01*
X129641335Y-62565000D01*
X129358665Y-62565000D01*
X129081426Y-62620147D01*
X128820273Y-62728320D01*
X128585241Y-62885363D01*
X128385363Y-63085241D01*
X128228320Y-63320273D01*
X128120147Y-63581426D01*
X128065000Y-63858665D01*
X127527164Y-63858665D01*
X127495226Y-63698102D01*
X127417205Y-63509744D01*
X127410694Y-63500000D01*
X127417205Y-63490256D01*
X127495226Y-63301898D01*
X127535000Y-63101939D01*
X127535000Y-62898061D01*
X127495226Y-62698102D01*
X127417205Y-62509744D01*
X127410694Y-62500000D01*
X127417205Y-62490256D01*
X127495226Y-62301898D01*
X127535000Y-62101939D01*
X127535000Y-61898061D01*
X127495226Y-61698102D01*
X127417205Y-61509744D01*
X127303937Y-61340226D01*
X127159774Y-61196063D01*
X126990256Y-61082795D01*
X126801898Y-61004774D01*
X126601939Y-60965000D01*
X126398061Y-60965000D01*
X126198102Y-61004774D01*
X126009744Y-61082795D01*
X126000000Y-61089306D01*
X125990256Y-61082795D01*
X125801898Y-61004774D01*
X125601939Y-60965000D01*
X125398061Y-60965000D01*
X125198102Y-61004774D01*
X125009744Y-61082795D01*
X125000000Y-61089306D01*
X124990256Y-61082795D01*
X124801898Y-61004774D01*
X124601939Y-60965000D01*
X124398061Y-60965000D01*
X124198102Y-61004774D01*
X124009744Y-61082795D01*
X124000000Y-61089306D01*
X123990256Y-61082795D01*
X123801898Y-61004774D01*
X123601939Y-60965000D01*
X123398061Y-60965000D01*
X123198102Y-61004774D01*
X123009744Y-61082795D01*
X122840226Y-61196063D01*
X122696063Y-61340226D01*
X122582795Y-61509744D01*
X122504774Y-61698102D01*
X122465000Y-61898061D01*
X122465000Y-62101939D01*
X122504774Y-62301898D01*
X122582795Y-62490256D01*
X122589306Y-62500000D01*
X122582795Y-62509744D01*
X122504774Y-62698102D01*
X122465000Y-62898061D01*
X122465000Y-63101939D01*
X122504774Y-63301898D01*
X122582795Y-63490256D01*
X122589306Y-63500000D01*
X122582795Y-63509744D01*
X122504774Y-63698102D01*
X122465000Y-63898061D01*
X122465000Y-64101939D01*
X122504774Y-64301898D01*
X122582795Y-64490256D01*
X122589306Y-64500000D01*
X122582795Y-64509744D01*
X122504774Y-64698102D01*
X122465000Y-64898061D01*
X122465000Y-65101939D01*
X122504774Y-65301898D01*
X122582795Y-65490256D01*
X122696063Y-65659774D01*
X122840226Y-65803937D01*
X122943586Y-65873000D01*
X105635000Y-65873000D01*
X105635000Y-65872998D01*
X105476252Y-65872998D01*
X105635000Y-65714250D01*
X105638072Y-65047500D01*
X105625812Y-64923018D01*
X105589502Y-64803320D01*
X105587728Y-64800000D01*
X111061928Y-64800000D01*
X111074188Y-64924482D01*
X111110498Y-65044180D01*
X111169463Y-65154494D01*
X111248815Y-65251185D01*
X111345506Y-65330537D01*
X111455820Y-65389502D01*
X111575518Y-65425812D01*
X111700000Y-65438072D01*
X112214250Y-65435000D01*
X112373000Y-65276250D01*
X112373000Y-64127000D01*
X112627000Y-64127000D01*
X112627000Y-65276250D01*
X112785750Y-65435000D01*
X113300000Y-65438072D01*
X113424482Y-65425812D01*
X113544180Y-65389502D01*
X113654494Y-65330537D01*
X113751185Y-65251185D01*
X113830537Y-65154494D01*
X113889502Y-65044180D01*
X113925812Y-64924482D01*
X113938072Y-64800000D01*
X119561928Y-64800000D01*
X119574188Y-64924482D01*
X119610498Y-65044180D01*
X119669463Y-65154494D01*
X119748815Y-65251185D01*
X119845506Y-65330537D01*
X119955820Y-65389502D01*
X120075518Y-65425812D01*
X120200000Y-65438072D01*
X120714250Y-65435000D01*
X120873000Y-65276250D01*
X120873000Y-64127000D01*
X121127000Y-64127000D01*
X121127000Y-65276250D01*
X121285750Y-65435000D01*
X121800000Y-65438072D01*
X121924482Y-65425812D01*
X122044180Y-65389502D01*
X122154494Y-65330537D01*
X122251185Y-65251185D01*
X122330537Y-65154494D01*
X122389502Y-65044180D01*
X122425812Y-64924482D01*
X122438072Y-64800000D01*
X122435000Y-64285750D01*
X122276250Y-64127000D01*
X121127000Y-64127000D01*
X120873000Y-64127000D01*
X119723750Y-64127000D01*
X119565000Y-64285750D01*
X119561928Y-64800000D01*
X113938072Y-64800000D01*
X113935000Y-64285750D01*
X113776250Y-64127000D01*
X112627000Y-64127000D01*
X112373000Y-64127000D01*
X111223750Y-64127000D01*
X111065000Y-64285750D01*
X111061928Y-64800000D01*
X105587728Y-64800000D01*
X105530537Y-64693006D01*
X105451185Y-64596315D01*
X105354494Y-64516963D01*
X105270554Y-64472095D01*
X105373845Y-64346235D01*
X105521255Y-64070449D01*
X105612030Y-63771204D01*
X105642681Y-63460000D01*
X105617074Y-63200000D01*
X111061928Y-63200000D01*
X111065000Y-63714250D01*
X111223750Y-63873000D01*
X112373000Y-63873000D01*
X112373000Y-62723750D01*
X112627000Y-62723750D01*
X112627000Y-63873000D01*
X113776250Y-63873000D01*
X113935000Y-63714250D01*
X113938072Y-63200000D01*
X119561928Y-63200000D01*
X119565000Y-63714250D01*
X119723750Y-63873000D01*
X120873000Y-63873000D01*
X120873000Y-62723750D01*
X121127000Y-62723750D01*
X121127000Y-63873000D01*
X122276250Y-63873000D01*
X122435000Y-63714250D01*
X122438072Y-63200000D01*
X122425812Y-63075518D01*
X122389502Y-62955820D01*
X122330537Y-62845506D01*
X122251185Y-62748815D01*
X122154494Y-62669463D01*
X122044180Y-62610498D01*
X121924482Y-62574188D01*
X121800000Y-62561928D01*
X121285750Y-62565000D01*
X121127000Y-62723750D01*
X120873000Y-62723750D01*
X120714250Y-62565000D01*
X120200000Y-62561928D01*
X120075518Y-62574188D01*
X119955820Y-62610498D01*
X119845506Y-62669463D01*
X119748815Y-62748815D01*
X119669463Y-62845506D01*
X119610498Y-62955820D01*
X119574188Y-63075518D01*
X119561928Y-63200000D01*
X113938072Y-63200000D01*
X113925812Y-63075518D01*
X113889502Y-62955820D01*
X113830537Y-62845506D01*
X113751185Y-62748815D01*
X113654494Y-62669463D01*
X113544180Y-62610498D01*
X113424482Y-62574188D01*
X113300000Y-62561928D01*
X112785750Y-62565000D01*
X112627000Y-62723750D01*
X112373000Y-62723750D01*
X112214250Y-62565000D01*
X111700000Y-62561928D01*
X111575518Y-62574188D01*
X111455820Y-62610498D01*
X111345506Y-62669463D01*
X111248815Y-62748815D01*
X111169463Y-62845506D01*
X111110498Y-62955820D01*
X111074188Y-63075518D01*
X111061928Y-63200000D01*
X105617074Y-63200000D01*
X105612030Y-63148796D01*
X105521255Y-62849551D01*
X105373845Y-62573765D01*
X105175463Y-62332037D01*
X105002391Y-62190000D01*
X105175463Y-62047963D01*
X105373845Y-61806235D01*
X105521255Y-61530449D01*
X105612030Y-61231204D01*
X105642681Y-60920000D01*
X105612030Y-60608796D01*
X105521255Y-60309551D01*
X105373845Y-60033765D01*
X105197812Y-59819268D01*
X157165000Y-59819268D01*
X157165000Y-60180732D01*
X157235518Y-60535250D01*
X157373844Y-60869199D01*
X157574662Y-61169744D01*
X157830256Y-61425338D01*
X158130801Y-61626156D01*
X158464750Y-61764482D01*
X158819268Y-61835000D01*
X159180732Y-61835000D01*
X159535250Y-61764482D01*
X159869199Y-61626156D01*
X160169744Y-61425338D01*
X160425338Y-61169744D01*
X160626156Y-60869199D01*
X160764482Y-60535250D01*
X160835000Y-60180732D01*
X160835000Y-59898061D01*
X181690000Y-59898061D01*
X181690000Y-60101939D01*
X181729774Y-60301898D01*
X181807795Y-60490256D01*
X181921063Y-60659774D01*
X182065226Y-60803937D01*
X182234744Y-60917205D01*
X182423102Y-60995226D01*
X182623061Y-61035000D01*
X182826939Y-61035000D01*
X183026898Y-60995226D01*
X183215256Y-60917205D01*
X183384774Y-60803937D01*
X183528937Y-60659774D01*
X183642205Y-60490256D01*
X183720226Y-60301898D01*
X183760000Y-60101939D01*
X183760000Y-59898061D01*
X183744328Y-59819268D01*
X185105000Y-59819268D01*
X185105000Y-60180732D01*
X185175518Y-60535250D01*
X185313844Y-60869199D01*
X185514662Y-61169744D01*
X185770256Y-61425338D01*
X186070801Y-61626156D01*
X186404750Y-61764482D01*
X186759268Y-61835000D01*
X187120732Y-61835000D01*
X187475250Y-61764482D01*
X187809199Y-61626156D01*
X188109744Y-61425338D01*
X188365338Y-61169744D01*
X188566156Y-60869199D01*
X188704482Y-60535250D01*
X188775000Y-60180732D01*
X188775000Y-59819268D01*
X188704482Y-59464750D01*
X188566156Y-59130801D01*
X188365338Y-58830256D01*
X188109744Y-58574662D01*
X187809199Y-58373844D01*
X187475250Y-58235518D01*
X187120732Y-58165000D01*
X186759268Y-58165000D01*
X186404750Y-58235518D01*
X186070801Y-58373844D01*
X185770256Y-58574662D01*
X185514662Y-58830256D01*
X185313844Y-59130801D01*
X185175518Y-59464750D01*
X185105000Y-59819268D01*
X183744328Y-59819268D01*
X183720226Y-59698102D01*
X183642205Y-59509744D01*
X183528937Y-59340226D01*
X183384774Y-59196063D01*
X183215256Y-59082795D01*
X183026898Y-59004774D01*
X182826939Y-58965000D01*
X182623061Y-58965000D01*
X182423102Y-59004774D01*
X182234744Y-59082795D01*
X182065226Y-59196063D01*
X181921063Y-59340226D01*
X181807795Y-59509744D01*
X181729774Y-59698102D01*
X181690000Y-59898061D01*
X160835000Y-59898061D01*
X160835000Y-59819268D01*
X160764482Y-59464750D01*
X160626156Y-59130801D01*
X160425338Y-58830256D01*
X160169744Y-58574662D01*
X159869199Y-58373844D01*
X159535250Y-58235518D01*
X159180732Y-58165000D01*
X158819268Y-58165000D01*
X158464750Y-58235518D01*
X158130801Y-58373844D01*
X157830256Y-58574662D01*
X157574662Y-58830256D01*
X157373844Y-59130801D01*
X157235518Y-59464750D01*
X157165000Y-59819268D01*
X105197812Y-59819268D01*
X105175463Y-59792037D01*
X104933735Y-59593655D01*
X104657949Y-59446245D01*
X104358704Y-59355470D01*
X104125486Y-59332500D01*
X103874514Y-59332500D01*
X103641296Y-59355470D01*
X103342051Y-59446245D01*
X103066265Y-59593655D01*
X102824537Y-59792037D01*
X102626155Y-60033765D01*
X102478745Y-60309551D01*
X102387970Y-60608796D01*
X102357319Y-60920000D01*
X102387970Y-61231204D01*
X102478745Y-61530449D01*
X102626155Y-61806235D01*
X102824537Y-62047963D01*
X102997609Y-62190000D01*
X102824537Y-62332037D01*
X102626155Y-62573765D01*
X102478745Y-62849551D01*
X102387970Y-63148796D01*
X102357319Y-63460000D01*
X102387970Y-63771204D01*
X102478745Y-64070449D01*
X102626155Y-64346235D01*
X102729446Y-64472095D01*
X102645506Y-64516963D01*
X102548815Y-64596315D01*
X102469463Y-64693006D01*
X102410498Y-64803320D01*
X102374188Y-64923018D01*
X102361928Y-65047500D01*
X102365000Y-65714250D01*
X102523748Y-65872998D01*
X102365000Y-65872998D01*
X102365000Y-65873000D01*
X100660000Y-65873000D01*
X100660000Y-50660000D01*
X103095845Y-50660000D01*
X102555330Y-51021161D01*
G37*
X102555330Y-51021161D02*
X102021161Y-51555330D01*
X101601467Y-52183446D01*
X101312377Y-52881372D01*
X101165000Y-53622285D01*
X101165000Y-54377715D01*
X101312377Y-55118628D01*
X101601467Y-55816554D01*
X102021161Y-56444670D01*
X102555330Y-56978839D01*
X103183446Y-57398533D01*
X103881372Y-57687623D01*
X104622285Y-57835000D01*
X105377715Y-57835000D01*
X106118628Y-57687623D01*
X106816554Y-57398533D01*
X106964018Y-57300000D01*
X185561928Y-57300000D01*
X185574188Y-57424482D01*
X185610498Y-57544180D01*
X185669463Y-57654494D01*
X185748815Y-57751185D01*
X185845506Y-57830537D01*
X185955820Y-57889502D01*
X186075518Y-57925812D01*
X186200000Y-57938072D01*
X186714250Y-57935000D01*
X186873000Y-57776250D01*
X186873000Y-56627000D01*
X187127000Y-56627000D01*
X187127000Y-57776250D01*
X187285750Y-57935000D01*
X187800000Y-57938072D01*
X187924482Y-57925812D01*
X188044180Y-57889502D01*
X188154494Y-57830537D01*
X188251185Y-57751185D01*
X188330537Y-57654494D01*
X188389502Y-57544180D01*
X188425812Y-57424482D01*
X188438072Y-57300000D01*
X188435000Y-56785750D01*
X188276250Y-56627000D01*
X187127000Y-56627000D01*
X186873000Y-56627000D01*
X185723750Y-56627000D01*
X185565000Y-56785750D01*
X185561928Y-57300000D01*
X106964018Y-57300000D01*
X107444670Y-56978839D01*
X107978839Y-56444670D01*
X108398533Y-55816554D01*
X108446811Y-55700000D01*
X185561928Y-55700000D01*
X185565000Y-56214250D01*
X185723750Y-56373000D01*
X186873000Y-56373000D01*
X186873000Y-55223750D01*
X187127000Y-55223750D01*
X187127000Y-56373000D01*
X188276250Y-56373000D01*
X188435000Y-56214250D01*
X188438072Y-55700000D01*
X188425812Y-55575518D01*
X188389502Y-55455820D01*
X188330537Y-55345506D01*
X188251185Y-55248815D01*
X188154494Y-55169463D01*
X188044180Y-55110498D01*
X187924482Y-55074188D01*
X187800000Y-55061928D01*
X187285750Y-55065000D01*
X187127000Y-55223750D01*
X186873000Y-55223750D01*
X186714250Y-55065000D01*
X186200000Y-55061928D01*
X186075518Y-55074188D01*
X185955820Y-55110498D01*
X185845506Y-55169463D01*
X185748815Y-55248815D01*
X185669463Y-55345506D01*
X185610498Y-55455820D01*
X185574188Y-55575518D01*
X185561928Y-55700000D01*
X108446811Y-55700000D01*
X108687623Y-55118628D01*
X108835000Y-54377715D01*
X108835000Y-53898061D01*
X180965000Y-53898061D01*
X180965000Y-54101939D01*
X181004774Y-54301898D01*
X181082795Y-54490256D01*
X181196063Y-54659774D01*
X181340226Y-54803937D01*
X181509744Y-54917205D01*
X181698102Y-54995226D01*
X181898061Y-55035000D01*
X182101939Y-55035000D01*
X182301898Y-54995226D01*
X182490256Y-54917205D01*
X182659774Y-54803937D01*
X182803937Y-54659774D01*
X182917205Y-54490256D01*
X182995226Y-54301898D01*
X183035000Y-54101939D01*
X183035000Y-53898061D01*
X182995226Y-53698102D01*
X182917205Y-53509744D01*
X182803937Y-53340226D01*
X182659774Y-53196063D01*
X182490256Y-53082795D01*
X182301898Y-53004774D01*
X182101939Y-52965000D01*
X181898061Y-52965000D01*
X181698102Y-53004774D01*
X181509744Y-53082795D01*
X181340226Y-53196063D01*
X181196063Y-53340226D01*
X181082795Y-53509744D01*
X181004774Y-53698102D01*
X180965000Y-53898061D01*
X108835000Y-53898061D01*
X108835000Y-53622285D01*
X108687623Y-52881372D01*
X108678218Y-52858665D01*
X185565000Y-52858665D01*
X185565000Y-53141335D01*
X185620147Y-53418574D01*
X185728320Y-53679727D01*
X185885363Y-53914759D01*
X186085241Y-54114637D01*
X186320273Y-54271680D01*
X186581426Y-54379853D01*
X186858665Y-54435000D01*
X187141335Y-54435000D01*
X187418574Y-54379853D01*
X187679727Y-54271680D01*
X187914759Y-54114637D01*
X188114637Y-53914759D01*
X188271680Y-53679727D01*
X188379853Y-53418574D01*
X188435000Y-53141335D01*
X188435000Y-52858665D01*
X188379853Y-52581426D01*
X188271680Y-52320273D01*
X188114637Y-52085241D01*
X187914759Y-51885363D01*
X187679727Y-51728320D01*
X187418574Y-51620147D01*
X187141335Y-51565000D01*
X186858665Y-51565000D01*
X186581426Y-51620147D01*
X186320273Y-51728320D01*
X186085241Y-51885363D01*
X185885363Y-52085241D01*
X185728320Y-52320273D01*
X185620147Y-52581426D01*
X185565000Y-52858665D01*
X108678218Y-52858665D01*
X108398533Y-52183446D01*
X107978839Y-51555330D01*
X107444670Y-51021161D01*
X106904155Y-50660000D01*
X193095845Y-50660000D01*
X192555330Y-51021161D01*
X192021161Y-51555330D01*
X191601467Y-52183446D01*
X191312377Y-52881372D01*
X191165000Y-53622285D01*
X191165000Y-54377715D01*
X191312377Y-55118628D01*
X191601467Y-55816554D01*
X192021161Y-56444670D01*
X192555330Y-56978839D01*
X193183446Y-57398533D01*
X193881372Y-57687623D01*
X194622285Y-57835000D01*
X195377715Y-57835000D01*
X196118628Y-57687623D01*
X196816554Y-57398533D01*
X197444670Y-56978839D01*
X197978839Y-56444670D01*
X198398533Y-55816554D01*
X198687623Y-55118628D01*
X198835000Y-54377715D01*
X198835000Y-53622285D01*
X198687623Y-52881372D01*
X198398533Y-52183446D01*
X197978839Y-51555330D01*
X197444670Y-51021161D01*
X196904155Y-50660000D01*
X199340000Y-50660000D01*
X199340000Y-58509216D01*
X199244180Y-58457998D01*
X199124482Y-58421688D01*
X199000000Y-58409428D01*
X197000000Y-58409428D01*
X196875518Y-58421688D01*
X196755820Y-58457998D01*
X196645506Y-58516963D01*
X196548815Y-58596315D01*
X196469463Y-58693006D01*
X196410498Y-58803320D01*
X196374188Y-58923018D01*
X196361928Y-59047500D01*
X196361928Y-60952500D01*
X196374188Y-61076982D01*
X196410498Y-61196680D01*
X196469463Y-61306994D01*
X196548815Y-61403685D01*
X196645506Y-61483037D01*
X196729446Y-61527905D01*
X196626155Y-61653765D01*
X196478745Y-61929551D01*
X196387970Y-62228796D01*
X196357319Y-62540000D01*
X196387970Y-62851204D01*
X196478745Y-63150449D01*
X196626155Y-63426235D01*
X196824537Y-63667963D01*
X196997609Y-63810000D01*
X196824537Y-63952037D01*
X196626155Y-64193765D01*
X196478745Y-64469551D01*
X196387970Y-64768796D01*
X196357319Y-65080000D01*
X196387970Y-65391204D01*
X196478745Y-65690449D01*
X196626155Y-65966235D01*
X196824537Y-66207963D01*
X197066265Y-66406345D01*
X197342051Y-66553755D01*
X197641296Y-66644530D01*
X197874514Y-66667500D01*
X198125486Y-66667500D01*
X198358704Y-66644530D01*
X198657949Y-66553755D01*
X198933735Y-66406345D01*
X199175463Y-66207963D01*
X199340000Y-66007475D01*
X199340000Y-73509216D01*
X199244180Y-73457998D01*
X199124482Y-73421688D01*
X199000000Y-73409428D01*
X197000000Y-73409428D01*
X196875518Y-73421688D01*
X196755820Y-73457998D01*
X196645506Y-73516963D01*
X196548815Y-73596315D01*
X196469463Y-73693006D01*
X196410498Y-73803320D01*
X196374188Y-73923018D01*
X196361928Y-74047500D01*
X196361928Y-75952500D01*
X196374188Y-76076982D01*
X196410498Y-76196680D01*
X196469463Y-76306994D01*
X196548815Y-76403685D01*
X196645506Y-76483037D01*
X196729446Y-76527905D01*
X196626155Y-76653765D01*
X196478745Y-76929551D01*
X196387970Y-77228796D01*
X196357319Y-77540000D01*
X196387970Y-77851204D01*
X196478745Y-78150449D01*
X196626155Y-78426235D01*
X196824537Y-78667963D01*
X196997609Y-78810000D01*
X196824537Y-78952037D01*
X196626155Y-79193765D01*
X196478745Y-79469551D01*
X196387970Y-79768796D01*
X196357319Y-80080000D01*
X196387970Y-80391204D01*
X196478745Y-80690449D01*
X196626155Y-80966235D01*
X196824537Y-81207963D01*
X197066265Y-81406345D01*
X197342051Y-81553755D01*
X197641296Y-81644530D01*
X197874514Y-81667500D01*
X198125486Y-81667500D01*
X198358704Y-81644530D01*
X198657949Y-81553755D01*
X198933735Y-81406345D01*
X199175463Y-81207963D01*
X199340000Y-81007475D01*
X199340000Y-88509216D01*
X199244180Y-88457998D01*
X199124482Y-88421688D01*
X199000000Y-88409428D01*
X197000000Y-88409428D01*
X196875518Y-88421688D01*
X196755820Y-88457998D01*
X196645506Y-88516963D01*
X196548815Y-88596315D01*
X196469463Y-88693006D01*
X196410498Y-88803320D01*
X196374188Y-88923018D01*
X196361928Y-89047500D01*
X196361928Y-90952500D01*
X196374188Y-91076982D01*
X196410498Y-91196680D01*
X196469463Y-91306994D01*
X196548815Y-91403685D01*
X196645506Y-91483037D01*
X196729446Y-91527905D01*
X196626155Y-91653765D01*
X196478745Y-91929551D01*
X196387970Y-92228796D01*
X196357319Y-92540000D01*
X196387970Y-92851204D01*
X196478745Y-93150449D01*
X196626155Y-93426235D01*
X196824537Y-93667963D01*
X196997609Y-93810000D01*
X196824537Y-93952037D01*
X196626155Y-94193765D01*
X196478745Y-94469551D01*
X196387970Y-94768796D01*
X196357319Y-95080000D01*
X196387970Y-95391204D01*
X196478745Y-95690449D01*
X196626155Y-95966235D01*
X196824537Y-96207963D01*
X197066265Y-96406345D01*
X197342051Y-96553755D01*
X197641296Y-96644530D01*
X197874514Y-96667500D01*
X198125486Y-96667500D01*
X198358704Y-96644530D01*
X198657949Y-96553755D01*
X198933735Y-96406345D01*
X199175463Y-96207963D01*
X199340000Y-96007474D01*
X199340001Y-103509216D01*
X199244180Y-103457998D01*
X199124482Y-103421688D01*
X199000000Y-103409428D01*
X197000000Y-103409428D01*
X196875518Y-103421688D01*
X196755820Y-103457998D01*
X196645506Y-103516963D01*
X196548815Y-103596315D01*
X196469463Y-103693006D01*
X196410498Y-103803320D01*
X196374188Y-103923018D01*
X196361928Y-104047500D01*
X196361928Y-105952500D01*
X196374188Y-106076982D01*
X196410498Y-106196680D01*
X196469463Y-106306994D01*
X196548815Y-106403685D01*
X196645506Y-106483037D01*
X196729446Y-106527905D01*
X196626155Y-106653765D01*
X196478745Y-106929551D01*
X196387970Y-107228796D01*
X196357319Y-107540000D01*
X196387970Y-107851204D01*
X196478745Y-108150449D01*
X196626155Y-108426235D01*
X196824537Y-108667963D01*
X196997609Y-108810000D01*
X196824537Y-108952037D01*
X196626155Y-109193765D01*
X196478745Y-109469551D01*
X196387970Y-109768796D01*
X196357319Y-110080000D01*
X196387970Y-110391204D01*
X196478745Y-110690449D01*
X196626155Y-110966235D01*
X196824537Y-111207963D01*
X197066265Y-111406345D01*
X197342051Y-111553755D01*
X197641296Y-111644530D01*
X197874514Y-111667500D01*
X198125486Y-111667500D01*
X198358704Y-111644530D01*
X198657949Y-111553755D01*
X198933735Y-111406345D01*
X199175463Y-111207963D01*
X199340001Y-111007474D01*
X199340001Y-118509216D01*
X199244180Y-118457998D01*
X199124482Y-118421688D01*
X199000000Y-118409428D01*
X197000000Y-118409428D01*
X196875518Y-118421688D01*
X196755820Y-118457998D01*
X196645506Y-118516963D01*
X196548815Y-118596315D01*
X196469463Y-118693006D01*
X196410498Y-118803320D01*
X196374188Y-118923018D01*
X196361928Y-119047500D01*
X196361928Y-120952500D01*
X196374188Y-121076982D01*
X196410498Y-121196680D01*
X196469463Y-121306994D01*
X196548815Y-121403685D01*
X196645506Y-121483037D01*
X196729446Y-121527905D01*
X196626155Y-121653765D01*
X196478745Y-121929551D01*
X196387970Y-122228796D01*
X196357319Y-122540000D01*
X196387970Y-122851204D01*
X196478745Y-123150449D01*
X196626155Y-123426235D01*
X196824537Y-123667963D01*
X196997609Y-123810000D01*
X196824537Y-123952037D01*
X196626155Y-124193765D01*
X196478745Y-124469551D01*
X196387970Y-124768796D01*
X196357319Y-125080000D01*
X196387970Y-125391204D01*
X196478745Y-125690449D01*
X196626155Y-125966235D01*
X196824537Y-126207963D01*
X197066265Y-126406345D01*
X197342051Y-126553755D01*
X197641296Y-126644530D01*
X197874514Y-126667500D01*
X198125486Y-126667500D01*
X198358704Y-126644530D01*
X198657949Y-126553755D01*
X198933735Y-126406345D01*
X199175463Y-126207963D01*
X199340001Y-126007474D01*
X199340001Y-133509216D01*
X199244180Y-133457998D01*
X199124482Y-133421688D01*
X199000000Y-133409428D01*
X197000000Y-133409428D01*
X196875518Y-133421688D01*
X196755820Y-133457998D01*
X196645506Y-133516963D01*
X196548815Y-133596315D01*
X196469463Y-133693006D01*
X196410498Y-133803320D01*
X196374188Y-133923018D01*
X196361928Y-134047500D01*
X196361928Y-135952500D01*
X196374188Y-136076982D01*
X196410498Y-136196680D01*
X196469463Y-136306994D01*
X196548815Y-136403685D01*
X196645506Y-136483037D01*
X196729446Y-136527905D01*
X196626155Y-136653765D01*
X196478745Y-136929551D01*
X196387970Y-137228796D01*
X196357319Y-137540000D01*
X196387970Y-137851204D01*
X196478745Y-138150449D01*
X196626155Y-138426235D01*
X196824537Y-138667963D01*
X196997609Y-138810000D01*
X196824537Y-138952037D01*
X196626155Y-139193765D01*
X196478745Y-139469551D01*
X196387970Y-139768796D01*
X196357319Y-140080000D01*
X196387970Y-140391204D01*
X196478745Y-140690449D01*
X196626155Y-140966235D01*
X196824537Y-141207963D01*
X197066265Y-141406345D01*
X197342051Y-141553755D01*
X197641296Y-141644530D01*
X197874514Y-141667500D01*
X198125486Y-141667500D01*
X198358704Y-141644530D01*
X198657949Y-141553755D01*
X198933735Y-141406345D01*
X199175463Y-141207963D01*
X199340001Y-141007474D01*
X199340001Y-149340000D01*
X196904155Y-149340000D01*
X197444670Y-148978839D01*
X197978839Y-148444670D01*
X198398533Y-147816554D01*
X198687623Y-147118628D01*
X198835000Y-146377715D01*
X198835000Y-145622285D01*
X198687623Y-144881372D01*
X198398533Y-144183446D01*
X197978839Y-143555330D01*
X197444670Y-143021161D01*
X196816554Y-142601467D01*
X196118628Y-142312377D01*
X195377715Y-142165000D01*
X194622285Y-142165000D01*
X193881372Y-142312377D01*
X193183446Y-142601467D01*
X192555330Y-143021161D01*
X192021161Y-143555330D01*
X191601467Y-144183446D01*
X191312377Y-144881372D01*
X191165000Y-145622285D01*
X191165000Y-146377715D01*
X191312377Y-147118628D01*
X191601467Y-147816554D01*
X192021161Y-148444670D01*
X192555330Y-148978839D01*
X193095845Y-149340000D01*
X141127000Y-149340000D01*
X141127000Y-149300427D01*
X141167204Y-149240257D01*
X141245225Y-149051899D01*
X141284999Y-148851940D01*
X141284999Y-148648062D01*
X141245225Y-148448103D01*
X141167204Y-148259745D01*
X141127000Y-148199575D01*
X141127000Y-144040000D01*
X141857319Y-144040000D01*
X141887970Y-144351204D01*
X141978745Y-144650449D01*
X142126155Y-144926235D01*
X142324537Y-145167963D01*
X142497609Y-145310000D01*
X142324537Y-145452037D01*
X142126155Y-145693765D01*
X141978745Y-145969551D01*
X141887970Y-146268796D01*
X141857319Y-146580000D01*
X141887970Y-146891204D01*
X141978745Y-147190449D01*
X142126155Y-147466235D01*
X142324537Y-147707963D01*
X142566265Y-147906345D01*
X142842051Y-148053755D01*
X143141296Y-148144530D01*
X143374514Y-148167500D01*
X143625486Y-148167500D01*
X143858704Y-148144530D01*
X144157949Y-148053755D01*
X144433735Y-147906345D01*
X144675463Y-147707963D01*
X144873845Y-147466235D01*
X145021255Y-147190449D01*
X145112030Y-146891204D01*
X145142681Y-146580000D01*
X145112030Y-146268796D01*
X145091161Y-146200000D01*
X185561928Y-146200000D01*
X185561928Y-147800000D01*
X185574188Y-147924482D01*
X185610498Y-148044180D01*
X185669463Y-148154494D01*
X185748815Y-148251185D01*
X185845506Y-148330537D01*
X185955820Y-148389502D01*
X186075518Y-148425812D01*
X186200000Y-148438072D01*
X187800000Y-148438072D01*
X187924482Y-148425812D01*
X188044180Y-148389502D01*
X188154494Y-148330537D01*
X188251185Y-148251185D01*
X188330537Y-148154494D01*
X188389502Y-148044180D01*
X188425812Y-147924482D01*
X188438072Y-147800000D01*
X188438072Y-146200000D01*
X188425812Y-146075518D01*
X188389502Y-145955820D01*
X188330537Y-145845506D01*
X188251185Y-145748815D01*
X188154494Y-145669463D01*
X188044180Y-145610498D01*
X187924482Y-145574188D01*
X187800000Y-145561928D01*
X186200000Y-145561928D01*
X186075518Y-145574188D01*
X185955820Y-145610498D01*
X185845506Y-145669463D01*
X185748815Y-145748815D01*
X185669463Y-145845506D01*
X185610498Y-145955820D01*
X185574188Y-146075518D01*
X185561928Y-146200000D01*
X145091161Y-146200000D01*
X145021255Y-145969551D01*
X144873845Y-145693765D01*
X144675463Y-145452037D01*
X144502391Y-145310000D01*
X144675463Y-145167963D01*
X144873845Y-144926235D01*
X145021255Y-144650449D01*
X145112030Y-144351204D01*
X145142681Y-144040000D01*
X145112030Y-143728796D01*
X145021255Y-143429551D01*
X144873845Y-143153765D01*
X144770554Y-143027905D01*
X144854494Y-142983037D01*
X144951185Y-142903685D01*
X145030537Y-142806994D01*
X145089502Y-142696680D01*
X145125812Y-142576982D01*
X145138072Y-142452500D01*
X145138072Y-140547500D01*
X145125812Y-140423018D01*
X145089502Y-140303320D01*
X145030537Y-140193006D01*
X144951185Y-140096315D01*
X144854494Y-140016963D01*
X144744180Y-139957998D01*
X144624482Y-139921688D01*
X144500000Y-139909428D01*
X142500000Y-139909428D01*
X142375518Y-139921688D01*
X142255820Y-139957998D01*
X142145506Y-140016963D01*
X142048815Y-140096315D01*
X141969463Y-140193006D01*
X141910498Y-140303320D01*
X141874188Y-140423018D01*
X141861928Y-140547500D01*
X141861928Y-142452500D01*
X141874188Y-142576982D01*
X141910498Y-142696680D01*
X141969463Y-142806994D01*
X142048815Y-142903685D01*
X142145506Y-142983037D01*
X142229446Y-143027905D01*
X142126155Y-143153765D01*
X141978745Y-143429551D01*
X141887970Y-143728796D01*
X141857319Y-144040000D01*
X141127000Y-144040000D01*
X141127000Y-133500000D01*
X147365000Y-133500000D01*
X147365000Y-144500000D01*
X147377201Y-144623882D01*
X147413336Y-144743004D01*
X147472017Y-144852787D01*
X147550987Y-144949013D01*
X147647213Y-145027983D01*
X147756996Y-145086664D01*
X147876118Y-145122799D01*
X148000000Y-145135000D01*
X190000000Y-145135000D01*
X190123882Y-145122799D01*
X190243004Y-145086664D01*
X190352787Y-145027983D01*
X190449013Y-144949013D01*
X192974149Y-142423877D01*
X192990256Y-142417205D01*
X193159774Y-142303937D01*
X193303937Y-142159774D01*
X193417205Y-141990256D01*
X193423877Y-141974149D01*
X195949013Y-139449013D01*
X196027983Y-139352787D01*
X196086664Y-139243004D01*
X196122799Y-139123882D01*
X196135000Y-139000000D01*
X196135000Y-133500000D01*
X196122799Y-133376118D01*
X196086664Y-133256996D01*
X196027983Y-133147213D01*
X195949013Y-133050987D01*
X195852787Y-132972017D01*
X195743004Y-132913336D01*
X195623882Y-132877201D01*
X195500000Y-132865000D01*
X148000000Y-132865000D01*
X147876118Y-132877201D01*
X147756996Y-132913336D01*
X147647213Y-132972017D01*
X147550987Y-133050987D01*
X147472017Y-133147213D01*
X147413336Y-133256996D01*
X147377201Y-133376118D01*
X147365000Y-133500000D01*
X141127000Y-133500000D01*
X141127000Y-132222308D01*
X141204482Y-132035250D01*
X141275000Y-131680732D01*
X141275000Y-131319268D01*
X141204482Y-130964750D01*
X141127000Y-130777692D01*
X141127000Y-130398061D01*
X142465000Y-130398061D01*
X142465000Y-130601939D01*
X142504774Y-130801898D01*
X142582795Y-130990256D01*
X142696063Y-131159774D01*
X142840226Y-131303937D01*
X143009744Y-131417205D01*
X143198102Y-131495226D01*
X143398061Y-131535000D01*
X143601939Y-131535000D01*
X143801898Y-131495226D01*
X143990256Y-131417205D01*
X144159774Y-131303937D01*
X144303937Y-131159774D01*
X144417205Y-130990256D01*
X144495226Y-130801898D01*
X144535000Y-130601939D01*
X144535000Y-130398061D01*
X144495226Y-130198102D01*
X144417205Y-130009744D01*
X144303937Y-129840226D01*
X144282979Y-129819268D01*
X157165000Y-129819268D01*
X157165000Y-130180732D01*
X157235518Y-130535250D01*
X157373844Y-130869199D01*
X157574662Y-131169744D01*
X157830256Y-131425338D01*
X158130801Y-131626156D01*
X158464750Y-131764482D01*
X158819268Y-131835000D01*
X159180732Y-131835000D01*
X159535250Y-131764482D01*
X159869199Y-131626156D01*
X160169744Y-131425338D01*
X160425338Y-131169744D01*
X160626156Y-130869199D01*
X160764482Y-130535250D01*
X160835000Y-130180732D01*
X160835000Y-129819268D01*
X185105000Y-129819268D01*
X185105000Y-130180732D01*
X185175518Y-130535250D01*
X185313844Y-130869199D01*
X185514662Y-131169744D01*
X185770256Y-131425338D01*
X186070801Y-131626156D01*
X186404750Y-131764482D01*
X186759268Y-131835000D01*
X187120732Y-131835000D01*
X187475250Y-131764482D01*
X187809199Y-131626156D01*
X188109744Y-131425338D01*
X188365338Y-131169744D01*
X188566156Y-130869199D01*
X188704482Y-130535250D01*
X188775000Y-130180732D01*
X188775000Y-129819268D01*
X188704482Y-129464750D01*
X188566156Y-129130801D01*
X188365338Y-128830256D01*
X188109744Y-128574662D01*
X187845443Y-128398061D01*
X191965000Y-128398061D01*
X191965000Y-128601939D01*
X192004774Y-128801898D01*
X192082795Y-128990256D01*
X192089306Y-129000000D01*
X192082795Y-129009744D01*
X192004774Y-129198102D01*
X191965000Y-129398061D01*
X191965000Y-129601939D01*
X192004774Y-129801898D01*
X192082795Y-129990256D01*
X192089306Y-130000000D01*
X192082795Y-130009744D01*
X192004774Y-130198102D01*
X191965000Y-130398061D01*
X191965000Y-130601939D01*
X192004774Y-130801898D01*
X192082795Y-130990256D01*
X192089306Y-131000000D01*
X192082795Y-131009744D01*
X192004774Y-131198102D01*
X191965000Y-131398061D01*
X191965000Y-131601939D01*
X192004774Y-131801898D01*
X192082795Y-131990256D01*
X192196063Y-132159774D01*
X192340226Y-132303937D01*
X192509744Y-132417205D01*
X192698102Y-132495226D01*
X192898061Y-132535000D01*
X193101939Y-132535000D01*
X193301898Y-132495226D01*
X193490256Y-132417205D01*
X193500000Y-132410694D01*
X193509744Y-132417205D01*
X193698102Y-132495226D01*
X193898061Y-132535000D01*
X194101939Y-132535000D01*
X194301898Y-132495226D01*
X194490256Y-132417205D01*
X194500000Y-132410694D01*
X194509744Y-132417205D01*
X194698102Y-132495226D01*
X194898061Y-132535000D01*
X195101939Y-132535000D01*
X195301898Y-132495226D01*
X195490256Y-132417205D01*
X195500000Y-132410694D01*
X195509744Y-132417205D01*
X195698102Y-132495226D01*
X195898061Y-132535000D01*
X196101939Y-132535000D01*
X196301898Y-132495226D01*
X196490256Y-132417205D01*
X196659774Y-132303937D01*
X196803937Y-132159774D01*
X196917205Y-131990256D01*
X196995226Y-131801898D01*
X197035000Y-131601939D01*
X197035000Y-131398061D01*
X196995226Y-131198102D01*
X196917205Y-131009744D01*
X196910694Y-131000000D01*
X196917205Y-130990256D01*
X196995226Y-130801898D01*
X197035000Y-130601939D01*
X197035000Y-130398061D01*
X196995226Y-130198102D01*
X196917205Y-130009744D01*
X196910694Y-130000000D01*
X196917205Y-129990256D01*
X196995226Y-129801898D01*
X197035000Y-129601939D01*
X197035000Y-129398061D01*
X196995226Y-129198102D01*
X196917205Y-129009744D01*
X196910694Y-129000000D01*
X196917205Y-128990256D01*
X196995226Y-128801898D01*
X197035000Y-128601939D01*
X197035000Y-128398061D01*
X196995226Y-128198102D01*
X196917205Y-128009744D01*
X196803937Y-127840226D01*
X196659774Y-127696063D01*
X196490256Y-127582795D01*
X196301898Y-127504774D01*
X196101939Y-127465000D01*
X195898061Y-127465000D01*
X195698102Y-127504774D01*
X195509744Y-127582795D01*
X195500000Y-127589306D01*
X195490256Y-127582795D01*
X195301898Y-127504774D01*
X195101939Y-127465000D01*
X194898061Y-127465000D01*
X194698102Y-127504774D01*
X194509744Y-127582795D01*
X194500000Y-127589306D01*
X194490256Y-127582795D01*
X194301898Y-127504774D01*
X194101939Y-127465000D01*
X193898061Y-127465000D01*
X193698102Y-127504774D01*
X193509744Y-127582795D01*
X193500000Y-127589306D01*
X193490256Y-127582795D01*
X193301898Y-127504774D01*
X193101939Y-127465000D01*
X192898061Y-127465000D01*
X192698102Y-127504774D01*
X192509744Y-127582795D01*
X192340226Y-127696063D01*
X192196063Y-127840226D01*
X192082795Y-128009744D01*
X192004774Y-128198102D01*
X191965000Y-128398061D01*
X187845443Y-128398061D01*
X187809199Y-128373844D01*
X187475250Y-128235518D01*
X187120732Y-128165000D01*
X186759268Y-128165000D01*
X186404750Y-128235518D01*
X186070801Y-128373844D01*
X185770256Y-128574662D01*
X185514662Y-128830256D01*
X185313844Y-129130801D01*
X185175518Y-129464750D01*
X185105000Y-129819268D01*
X160835000Y-129819268D01*
X160764482Y-129464750D01*
X160626156Y-129130801D01*
X160425338Y-128830256D01*
X160169744Y-128574662D01*
X159869199Y-128373844D01*
X159535250Y-128235518D01*
X159180732Y-128165000D01*
X158819268Y-128165000D01*
X158464750Y-128235518D01*
X158130801Y-128373844D01*
X157830256Y-128574662D01*
X157574662Y-128830256D01*
X157373844Y-129130801D01*
X157235518Y-129464750D01*
X157165000Y-129819268D01*
X144282979Y-129819268D01*
X144159774Y-129696063D01*
X143990256Y-129582795D01*
X143801898Y-129504774D01*
X143601939Y-129465000D01*
X143398061Y-129465000D01*
X143198102Y-129504774D01*
X143009744Y-129582795D01*
X142840226Y-129696063D01*
X142696063Y-129840226D01*
X142582795Y-130009744D01*
X142504774Y-130198102D01*
X142465000Y-130398061D01*
X141127000Y-130398061D01*
X141127000Y-124898061D01*
X141465000Y-124898061D01*
X141465000Y-125101939D01*
X141504774Y-125301898D01*
X141582795Y-125490256D01*
X141696063Y-125659774D01*
X141840226Y-125803937D01*
X142009744Y-125917205D01*
X142198102Y-125995226D01*
X142398061Y-126035000D01*
X142601939Y-126035000D01*
X142801898Y-125995226D01*
X142990256Y-125917205D01*
X143159774Y-125803937D01*
X143303937Y-125659774D01*
X143417205Y-125490256D01*
X143495226Y-125301898D01*
X143535000Y-125101939D01*
X143535000Y-124898061D01*
X143495226Y-124698102D01*
X143417205Y-124509744D01*
X143303937Y-124340226D01*
X143159774Y-124196063D01*
X142990256Y-124082795D01*
X142801898Y-124004774D01*
X142601939Y-123965000D01*
X142398061Y-123965000D01*
X142198102Y-124004774D01*
X142009744Y-124082795D01*
X141840226Y-124196063D01*
X141696063Y-124340226D01*
X141582795Y-124509744D01*
X141504774Y-124698102D01*
X141465000Y-124898061D01*
X141127000Y-124898061D01*
X141127000Y-118898061D01*
X141465000Y-118898061D01*
X141465000Y-119101939D01*
X141504774Y-119301898D01*
X141582795Y-119490256D01*
X141696063Y-119659774D01*
X141840226Y-119803937D01*
X142009744Y-119917205D01*
X142198102Y-119995226D01*
X142398061Y-120035000D01*
X142601939Y-120035000D01*
X142801898Y-119995226D01*
X142990256Y-119917205D01*
X143136829Y-119819268D01*
X157165000Y-119819268D01*
X157165000Y-120180732D01*
X157235518Y-120535250D01*
X157373844Y-120869199D01*
X157574662Y-121169744D01*
X157830256Y-121425338D01*
X158130801Y-121626156D01*
X158464750Y-121764482D01*
X158819268Y-121835000D01*
X159180732Y-121835000D01*
X159535250Y-121764482D01*
X159869199Y-121626156D01*
X160169744Y-121425338D01*
X160425338Y-121169744D01*
X160626156Y-120869199D01*
X160764482Y-120535250D01*
X160835000Y-120180732D01*
X160835000Y-119898061D01*
X181690000Y-119898061D01*
X181690000Y-120101939D01*
X181729774Y-120301898D01*
X181807795Y-120490256D01*
X181921063Y-120659774D01*
X182065226Y-120803937D01*
X182234744Y-120917205D01*
X182423102Y-120995226D01*
X182623061Y-121035000D01*
X182826939Y-121035000D01*
X183026898Y-120995226D01*
X183215256Y-120917205D01*
X183384774Y-120803937D01*
X183528937Y-120659774D01*
X183642205Y-120490256D01*
X183720226Y-120301898D01*
X183760000Y-120101939D01*
X183760000Y-119898061D01*
X183744328Y-119819268D01*
X185105000Y-119819268D01*
X185105000Y-120180732D01*
X185175518Y-120535250D01*
X185313844Y-120869199D01*
X185514662Y-121169744D01*
X185770256Y-121425338D01*
X186070801Y-121626156D01*
X186404750Y-121764482D01*
X186759268Y-121835000D01*
X187120732Y-121835000D01*
X187475250Y-121764482D01*
X187809199Y-121626156D01*
X188109744Y-121425338D01*
X188365338Y-121169744D01*
X188566156Y-120869199D01*
X188704482Y-120535250D01*
X188775000Y-120180732D01*
X188775000Y-119819268D01*
X188704482Y-119464750D01*
X188566156Y-119130801D01*
X188365338Y-118830256D01*
X188109744Y-118574662D01*
X187809199Y-118373844D01*
X187475250Y-118235518D01*
X187120732Y-118165000D01*
X186759268Y-118165000D01*
X186404750Y-118235518D01*
X186070801Y-118373844D01*
X185770256Y-118574662D01*
X185514662Y-118830256D01*
X185313844Y-119130801D01*
X185175518Y-119464750D01*
X185105000Y-119819268D01*
X183744328Y-119819268D01*
X183720226Y-119698102D01*
X183642205Y-119509744D01*
X183528937Y-119340226D01*
X183384774Y-119196063D01*
X183215256Y-119082795D01*
X183026898Y-119004774D01*
X182826939Y-118965000D01*
X182623061Y-118965000D01*
X182423102Y-119004774D01*
X182234744Y-119082795D01*
X182065226Y-119196063D01*
X181921063Y-119340226D01*
X181807795Y-119509744D01*
X181729774Y-119698102D01*
X181690000Y-119898061D01*
X160835000Y-119898061D01*
X160835000Y-119819268D01*
X160764482Y-119464750D01*
X160626156Y-119130801D01*
X160425338Y-118830256D01*
X160169744Y-118574662D01*
X159869199Y-118373844D01*
X159535250Y-118235518D01*
X159180732Y-118165000D01*
X158819268Y-118165000D01*
X158464750Y-118235518D01*
X158130801Y-118373844D01*
X157830256Y-118574662D01*
X157574662Y-118830256D01*
X157373844Y-119130801D01*
X157235518Y-119464750D01*
X157165000Y-119819268D01*
X143136829Y-119819268D01*
X143159774Y-119803937D01*
X143303937Y-119659774D01*
X143417205Y-119490256D01*
X143495226Y-119301898D01*
X143535000Y-119101939D01*
X143535000Y-118898061D01*
X143495226Y-118698102D01*
X143417205Y-118509744D01*
X143303937Y-118340226D01*
X143159774Y-118196063D01*
X142990256Y-118082795D01*
X142801898Y-118004774D01*
X142601939Y-117965000D01*
X142398061Y-117965000D01*
X142198102Y-118004774D01*
X142009744Y-118082795D01*
X141840226Y-118196063D01*
X141696063Y-118340226D01*
X141582795Y-118509744D01*
X141504774Y-118698102D01*
X141465000Y-118898061D01*
X141127000Y-118898061D01*
X141127000Y-116398061D01*
X145465000Y-116398061D01*
X145465000Y-116601939D01*
X145504774Y-116801898D01*
X145582795Y-116990256D01*
X145696063Y-117159774D01*
X145840226Y-117303937D01*
X146009744Y-117417205D01*
X146198102Y-117495226D01*
X146398061Y-117535000D01*
X146601939Y-117535000D01*
X146801898Y-117495226D01*
X146990256Y-117417205D01*
X147159774Y-117303937D01*
X147163711Y-117300000D01*
X185561928Y-117300000D01*
X185574188Y-117424482D01*
X185610498Y-117544180D01*
X185669463Y-117654494D01*
X185748815Y-117751185D01*
X185845506Y-117830537D01*
X185955820Y-117889502D01*
X186075518Y-117925812D01*
X186200000Y-117938072D01*
X186714250Y-117935000D01*
X186873000Y-117776250D01*
X186873000Y-116627000D01*
X187127000Y-116627000D01*
X187127000Y-117776250D01*
X187285750Y-117935000D01*
X187800000Y-117938072D01*
X187924482Y-117925812D01*
X188044180Y-117889502D01*
X188154494Y-117830537D01*
X188251185Y-117751185D01*
X188330537Y-117654494D01*
X188389502Y-117544180D01*
X188425812Y-117424482D01*
X188438072Y-117300000D01*
X188435000Y-116785750D01*
X188276250Y-116627000D01*
X187127000Y-116627000D01*
X186873000Y-116627000D01*
X185723750Y-116627000D01*
X185565000Y-116785750D01*
X185561928Y-117300000D01*
X147163711Y-117300000D01*
X147303937Y-117159774D01*
X147417205Y-116990256D01*
X147495226Y-116801898D01*
X147535000Y-116601939D01*
X147535000Y-116398061D01*
X147495226Y-116198102D01*
X147417205Y-116009744D01*
X147303937Y-115840226D01*
X147159774Y-115696063D01*
X146990256Y-115582795D01*
X146801898Y-115504774D01*
X146601939Y-115465000D01*
X146398061Y-115465000D01*
X146198102Y-115504774D01*
X146009744Y-115582795D01*
X145840226Y-115696063D01*
X145696063Y-115840226D01*
X145582795Y-116009744D01*
X145504774Y-116198102D01*
X145465000Y-116398061D01*
X141127000Y-116398061D01*
X141127000Y-114825836D01*
X141159774Y-114803937D01*
X141303937Y-114659774D01*
X141417205Y-114490256D01*
X141495226Y-114301898D01*
X141535000Y-114101939D01*
X141535000Y-113898061D01*
X141495226Y-113698102D01*
X141417205Y-113509744D01*
X141303937Y-113340226D01*
X141159774Y-113196063D01*
X141127000Y-113174164D01*
X141127000Y-109530015D01*
X141301898Y-109495226D01*
X141490256Y-109417205D01*
X141659774Y-109303937D01*
X141803937Y-109159774D01*
X141917205Y-108990256D01*
X141995226Y-108801898D01*
X142035000Y-108601939D01*
X142035000Y-108398061D01*
X141995226Y-108198102D01*
X141917205Y-108009744D01*
X141803937Y-107840226D01*
X141659774Y-107696063D01*
X141490256Y-107582795D01*
X141301898Y-107504774D01*
X141127000Y-107469985D01*
X141127000Y-103573061D01*
X141465000Y-103573061D01*
X141465000Y-103776939D01*
X141504774Y-103976898D01*
X141582795Y-104165256D01*
X141696063Y-104334774D01*
X141840226Y-104478937D01*
X142009744Y-104592205D01*
X142198102Y-104670226D01*
X142398061Y-104710000D01*
X142601939Y-104710000D01*
X142801898Y-104670226D01*
X142990256Y-104592205D01*
X143159774Y-104478937D01*
X143303937Y-104334774D01*
X143417205Y-104165256D01*
X143495226Y-103976898D01*
X143535000Y-103776939D01*
X143535000Y-103573061D01*
X143520468Y-103500000D01*
X147365000Y-103500000D01*
X147365000Y-114500000D01*
X147377201Y-114623882D01*
X147413336Y-114743004D01*
X147472017Y-114852787D01*
X147550987Y-114949013D01*
X147647213Y-115027983D01*
X147756996Y-115086664D01*
X147876118Y-115122799D01*
X148000000Y-115135000D01*
X185909981Y-115135000D01*
X185845506Y-115169463D01*
X185748815Y-115248815D01*
X185669463Y-115345506D01*
X185610498Y-115455820D01*
X185574188Y-115575518D01*
X185561928Y-115700000D01*
X185565000Y-116214250D01*
X185723750Y-116373000D01*
X186873000Y-116373000D01*
X186873000Y-116353000D01*
X187127000Y-116353000D01*
X187127000Y-116373000D01*
X188276250Y-116373000D01*
X188435000Y-116214250D01*
X188438072Y-115700000D01*
X188425812Y-115575518D01*
X188389502Y-115455820D01*
X188330537Y-115345506D01*
X188251185Y-115248815D01*
X188154494Y-115169463D01*
X188090019Y-115135000D01*
X193365000Y-115135000D01*
X193365000Y-115500000D01*
X193377201Y-115623882D01*
X193413336Y-115743004D01*
X193472017Y-115852787D01*
X193550987Y-115949013D01*
X193647213Y-116027983D01*
X193756996Y-116086664D01*
X193876118Y-116122799D01*
X194000000Y-116135000D01*
X194068330Y-116135000D01*
X194061928Y-116200000D01*
X194061928Y-117800000D01*
X194074188Y-117924482D01*
X194110498Y-118044180D01*
X194169463Y-118154494D01*
X194248815Y-118251185D01*
X194345506Y-118330537D01*
X194455820Y-118389502D01*
X194575518Y-118425812D01*
X194700000Y-118438072D01*
X196300000Y-118438072D01*
X196424482Y-118425812D01*
X196544180Y-118389502D01*
X196654494Y-118330537D01*
X196751185Y-118251185D01*
X196830537Y-118154494D01*
X196889502Y-118044180D01*
X196925812Y-117924482D01*
X196938072Y-117800000D01*
X196938072Y-116200000D01*
X196931670Y-116135000D01*
X197500001Y-116135000D01*
X197623884Y-116122799D01*
X197743005Y-116086663D01*
X197852788Y-116027983D01*
X197949014Y-115949013D01*
X198027984Y-115852787D01*
X198086665Y-115743004D01*
X198122800Y-115623882D01*
X198135001Y-115500000D01*
X198135000Y-113000000D01*
X198128618Y-112910197D01*
X198099020Y-112789286D01*
X198046401Y-112676472D01*
X197972785Y-112576090D01*
X197881000Y-112492000D01*
X196135000Y-111182500D01*
X196135000Y-103500000D01*
X196122799Y-103376118D01*
X196086664Y-103256996D01*
X196027983Y-103147213D01*
X195949013Y-103050987D01*
X195852787Y-102972017D01*
X195743004Y-102913336D01*
X195623882Y-102877201D01*
X195500000Y-102865000D01*
X148000000Y-102865000D01*
X147876118Y-102877201D01*
X147756996Y-102913336D01*
X147647213Y-102972017D01*
X147550987Y-103050987D01*
X147472017Y-103147213D01*
X147413336Y-103256996D01*
X147377201Y-103376118D01*
X147365000Y-103500000D01*
X143520468Y-103500000D01*
X143495226Y-103373102D01*
X143417205Y-103184744D01*
X143303937Y-103015226D01*
X143159774Y-102871063D01*
X142990256Y-102757795D01*
X142801898Y-102679774D01*
X142601939Y-102640000D01*
X142398061Y-102640000D01*
X142198102Y-102679774D01*
X142009744Y-102757795D01*
X141840226Y-102871063D01*
X141696063Y-103015226D01*
X141582795Y-103184744D01*
X141504774Y-103373102D01*
X141465000Y-103573061D01*
X141127000Y-103573061D01*
X141127000Y-99819268D01*
X157165000Y-99819268D01*
X157165000Y-100180732D01*
X157235518Y-100535250D01*
X157373844Y-100869199D01*
X157574662Y-101169744D01*
X157830256Y-101425338D01*
X158130801Y-101626156D01*
X158464750Y-101764482D01*
X158819268Y-101835000D01*
X159180732Y-101835000D01*
X159535250Y-101764482D01*
X159869199Y-101626156D01*
X160169744Y-101425338D01*
X160425338Y-101169744D01*
X160626156Y-100869199D01*
X160764482Y-100535250D01*
X160835000Y-100180732D01*
X160835000Y-99819268D01*
X185105000Y-99819268D01*
X185105000Y-100180732D01*
X185175518Y-100535250D01*
X185313844Y-100869199D01*
X185514662Y-101169744D01*
X185770256Y-101425338D01*
X186070801Y-101626156D01*
X186404750Y-101764482D01*
X186759268Y-101835000D01*
X187120732Y-101835000D01*
X187475250Y-101764482D01*
X187809199Y-101626156D01*
X188109744Y-101425338D01*
X188365338Y-101169744D01*
X188566156Y-100869199D01*
X188704482Y-100535250D01*
X188775000Y-100180732D01*
X188775000Y-99819268D01*
X188704482Y-99464750D01*
X188566156Y-99130801D01*
X188365338Y-98830256D01*
X188109744Y-98574662D01*
X187845443Y-98398061D01*
X191965000Y-98398061D01*
X191965000Y-98601939D01*
X192004774Y-98801898D01*
X192082795Y-98990256D01*
X192089306Y-99000000D01*
X192082795Y-99009744D01*
X192004774Y-99198102D01*
X191965000Y-99398061D01*
X191965000Y-99601939D01*
X192004774Y-99801898D01*
X192082795Y-99990256D01*
X192089306Y-100000000D01*
X192082795Y-100009744D01*
X192004774Y-100198102D01*
X191965000Y-100398061D01*
X191965000Y-100601939D01*
X192004774Y-100801898D01*
X192082795Y-100990256D01*
X192089306Y-101000000D01*
X192082795Y-101009744D01*
X192004774Y-101198102D01*
X191965000Y-101398061D01*
X191965000Y-101601939D01*
X192004774Y-101801898D01*
X192082795Y-101990256D01*
X192196063Y-102159774D01*
X192340226Y-102303937D01*
X192509744Y-102417205D01*
X192698102Y-102495226D01*
X192898061Y-102535000D01*
X193101939Y-102535000D01*
X193301898Y-102495226D01*
X193490256Y-102417205D01*
X193500000Y-102410694D01*
X193509744Y-102417205D01*
X193698102Y-102495226D01*
X193898061Y-102535000D01*
X194101939Y-102535000D01*
X194301898Y-102495226D01*
X194490256Y-102417205D01*
X194500000Y-102410694D01*
X194509744Y-102417205D01*
X194698102Y-102495226D01*
X194898061Y-102535000D01*
X195101939Y-102535000D01*
X195301898Y-102495226D01*
X195490256Y-102417205D01*
X195500000Y-102410694D01*
X195509744Y-102417205D01*
X195698102Y-102495226D01*
X195898061Y-102535000D01*
X196101939Y-102535000D01*
X196301898Y-102495226D01*
X196490256Y-102417205D01*
X196659774Y-102303937D01*
X196803937Y-102159774D01*
X196917205Y-101990256D01*
X196995226Y-101801898D01*
X197035000Y-101601939D01*
X197035000Y-101398061D01*
X196995226Y-101198102D01*
X196917205Y-101009744D01*
X196910694Y-101000000D01*
X196917205Y-100990256D01*
X196995226Y-100801898D01*
X197035000Y-100601939D01*
X197035000Y-100398061D01*
X196995226Y-100198102D01*
X196917205Y-100009744D01*
X196910694Y-100000000D01*
X196917205Y-99990256D01*
X196995226Y-99801898D01*
X197035000Y-99601939D01*
X197035000Y-99398061D01*
X196995226Y-99198102D01*
X196917205Y-99009744D01*
X196910694Y-99000000D01*
X196917205Y-98990256D01*
X196995226Y-98801898D01*
X197035000Y-98601939D01*
X197035000Y-98398061D01*
X196995226Y-98198102D01*
X196917205Y-98009744D01*
X196803937Y-97840226D01*
X196659774Y-97696063D01*
X196490256Y-97582795D01*
X196301898Y-97504774D01*
X196101939Y-97465000D01*
X195898061Y-97465000D01*
X195698102Y-97504774D01*
X195509744Y-97582795D01*
X195500000Y-97589306D01*
X195490256Y-97582795D01*
X195301898Y-97504774D01*
X195101939Y-97465000D01*
X194898061Y-97465000D01*
X194698102Y-97504774D01*
X194509744Y-97582795D01*
X194500000Y-97589306D01*
X194490256Y-97582795D01*
X194301898Y-97504774D01*
X194101939Y-97465000D01*
X193898061Y-97465000D01*
X193698102Y-97504774D01*
X193509744Y-97582795D01*
X193500000Y-97589306D01*
X193490256Y-97582795D01*
X193301898Y-97504774D01*
X193101939Y-97465000D01*
X192898061Y-97465000D01*
X192698102Y-97504774D01*
X192509744Y-97582795D01*
X192340226Y-97696063D01*
X192196063Y-97840226D01*
X192082795Y-98009744D01*
X192004774Y-98198102D01*
X191965000Y-98398061D01*
X187845443Y-98398061D01*
X187809199Y-98373844D01*
X187475250Y-98235518D01*
X187120732Y-98165000D01*
X186759268Y-98165000D01*
X186404750Y-98235518D01*
X186070801Y-98373844D01*
X185770256Y-98574662D01*
X185514662Y-98830256D01*
X185313844Y-99130801D01*
X185175518Y-99464750D01*
X185105000Y-99819268D01*
X160835000Y-99819268D01*
X160764482Y-99464750D01*
X160626156Y-99130801D01*
X160425338Y-98830256D01*
X160169744Y-98574662D01*
X159869199Y-98373844D01*
X159535250Y-98235518D01*
X159180732Y-98165000D01*
X158819268Y-98165000D01*
X158464750Y-98235518D01*
X158130801Y-98373844D01*
X157830256Y-98574662D01*
X157574662Y-98830256D01*
X157373844Y-99130801D01*
X157235518Y-99464750D01*
X157165000Y-99819268D01*
X141127000Y-99819268D01*
X141127000Y-97398061D01*
X141465000Y-97398061D01*
X141465000Y-97601939D01*
X141504774Y-97801898D01*
X141582795Y-97990256D01*
X141696063Y-98159774D01*
X141840226Y-98303937D01*
X142009744Y-98417205D01*
X142198102Y-98495226D01*
X142398061Y-98535000D01*
X142601939Y-98535000D01*
X142801898Y-98495226D01*
X142990256Y-98417205D01*
X143159774Y-98303937D01*
X143303937Y-98159774D01*
X143417205Y-97990256D01*
X143495226Y-97801898D01*
X143535000Y-97601939D01*
X143535000Y-97398061D01*
X143495226Y-97198102D01*
X143417205Y-97009744D01*
X143303937Y-96840226D01*
X143159774Y-96696063D01*
X142990256Y-96582795D01*
X142801898Y-96504774D01*
X142601939Y-96465000D01*
X142398061Y-96465000D01*
X142198102Y-96504774D01*
X142009744Y-96582795D01*
X141840226Y-96696063D01*
X141696063Y-96840226D01*
X141582795Y-97009744D01*
X141504774Y-97198102D01*
X141465000Y-97398061D01*
X141127000Y-97398061D01*
X141127000Y-94898061D01*
X145465000Y-94898061D01*
X145465000Y-95101939D01*
X145504774Y-95301898D01*
X145582795Y-95490256D01*
X145696063Y-95659774D01*
X145840226Y-95803937D01*
X146009744Y-95917205D01*
X146198102Y-95995226D01*
X146398061Y-96035000D01*
X146601939Y-96035000D01*
X146801898Y-95995226D01*
X146990256Y-95917205D01*
X147159774Y-95803937D01*
X147303937Y-95659774D01*
X147417205Y-95490256D01*
X147495226Y-95301898D01*
X147535000Y-95101939D01*
X147535000Y-94898061D01*
X147495226Y-94698102D01*
X147417205Y-94509744D01*
X147303937Y-94340226D01*
X147159774Y-94196063D01*
X146990256Y-94082795D01*
X146801898Y-94004774D01*
X146601939Y-93965000D01*
X146398061Y-93965000D01*
X146198102Y-94004774D01*
X146009744Y-94082795D01*
X145840226Y-94196063D01*
X145696063Y-94340226D01*
X145582795Y-94509744D01*
X145504774Y-94698102D01*
X145465000Y-94898061D01*
X141127000Y-94898061D01*
X141127000Y-93465774D01*
X141198102Y-93495226D01*
X141398061Y-93535000D01*
X141601939Y-93535000D01*
X141801898Y-93495226D01*
X141990256Y-93417205D01*
X142159774Y-93303937D01*
X142303937Y-93159774D01*
X142417205Y-92990256D01*
X142495226Y-92801898D01*
X142535000Y-92601939D01*
X142535000Y-92398061D01*
X142495226Y-92198102D01*
X142417205Y-92009744D01*
X142303937Y-91840226D01*
X142159774Y-91696063D01*
X141990256Y-91582795D01*
X141801898Y-91504774D01*
X141601939Y-91465000D01*
X141398061Y-91465000D01*
X141198102Y-91504774D01*
X141127000Y-91534226D01*
X141127000Y-89819268D01*
X157165000Y-89819268D01*
X157165000Y-90180732D01*
X157235518Y-90535250D01*
X157373844Y-90869199D01*
X157574662Y-91169744D01*
X157830256Y-91425338D01*
X158130801Y-91626156D01*
X158464750Y-91764482D01*
X158819268Y-91835000D01*
X159180732Y-91835000D01*
X159535250Y-91764482D01*
X159869199Y-91626156D01*
X160169744Y-91425338D01*
X160425338Y-91169744D01*
X160626156Y-90869199D01*
X160764482Y-90535250D01*
X160835000Y-90180732D01*
X160835000Y-89898061D01*
X181690000Y-89898061D01*
X181690000Y-90101939D01*
X181729774Y-90301898D01*
X181807795Y-90490256D01*
X181921063Y-90659774D01*
X182065226Y-90803937D01*
X182234744Y-90917205D01*
X182423102Y-90995226D01*
X182623061Y-91035000D01*
X182826939Y-91035000D01*
X183026898Y-90995226D01*
X183215256Y-90917205D01*
X183384774Y-90803937D01*
X183528937Y-90659774D01*
X183642205Y-90490256D01*
X183720226Y-90301898D01*
X183760000Y-90101939D01*
X183760000Y-89898061D01*
X183744328Y-89819268D01*
X185105000Y-89819268D01*
X185105000Y-90180732D01*
X185175518Y-90535250D01*
X185313844Y-90869199D01*
X185514662Y-91169744D01*
X185770256Y-91425338D01*
X186070801Y-91626156D01*
X186404750Y-91764482D01*
X186759268Y-91835000D01*
X187120732Y-91835000D01*
X187475250Y-91764482D01*
X187809199Y-91626156D01*
X188109744Y-91425338D01*
X188365338Y-91169744D01*
X188566156Y-90869199D01*
X188704482Y-90535250D01*
X188775000Y-90180732D01*
X188775000Y-89819268D01*
X188704482Y-89464750D01*
X188566156Y-89130801D01*
X188365338Y-88830256D01*
X188109744Y-88574662D01*
X187809199Y-88373844D01*
X187475250Y-88235518D01*
X187120732Y-88165000D01*
X186759268Y-88165000D01*
X186404750Y-88235518D01*
X186070801Y-88373844D01*
X185770256Y-88574662D01*
X185514662Y-88830256D01*
X185313844Y-89130801D01*
X185175518Y-89464750D01*
X185105000Y-89819268D01*
X183744328Y-89819268D01*
X183720226Y-89698102D01*
X183642205Y-89509744D01*
X183528937Y-89340226D01*
X183384774Y-89196063D01*
X183215256Y-89082795D01*
X183026898Y-89004774D01*
X182826939Y-88965000D01*
X182623061Y-88965000D01*
X182423102Y-89004774D01*
X182234744Y-89082795D01*
X182065226Y-89196063D01*
X181921063Y-89340226D01*
X181807795Y-89509744D01*
X181729774Y-89698102D01*
X181690000Y-89898061D01*
X160835000Y-89898061D01*
X160835000Y-89819268D01*
X160764482Y-89464750D01*
X160626156Y-89130801D01*
X160425338Y-88830256D01*
X160169744Y-88574662D01*
X159869199Y-88373844D01*
X159535250Y-88235518D01*
X159180732Y-88165000D01*
X158819268Y-88165000D01*
X158464750Y-88235518D01*
X158130801Y-88373844D01*
X157830256Y-88574662D01*
X157574662Y-88830256D01*
X157373844Y-89130801D01*
X157235518Y-89464750D01*
X157165000Y-89819268D01*
X141127000Y-89819268D01*
X141127000Y-89030015D01*
X141301898Y-88995226D01*
X141490256Y-88917205D01*
X141659774Y-88803937D01*
X141803937Y-88659774D01*
X141917205Y-88490256D01*
X141995226Y-88301898D01*
X142035000Y-88101939D01*
X142035000Y-87898061D01*
X141995226Y-87698102D01*
X141917205Y-87509744D01*
X141803937Y-87340226D01*
X141763711Y-87300000D01*
X185561928Y-87300000D01*
X185574188Y-87424482D01*
X185610498Y-87544180D01*
X185669463Y-87654494D01*
X185748815Y-87751185D01*
X185845506Y-87830537D01*
X185955820Y-87889502D01*
X186075518Y-87925812D01*
X186200000Y-87938072D01*
X186714250Y-87935000D01*
X186873000Y-87776250D01*
X186873000Y-86627000D01*
X187127000Y-86627000D01*
X187127000Y-87776250D01*
X187285750Y-87935000D01*
X187800000Y-87938072D01*
X187924482Y-87925812D01*
X188044180Y-87889502D01*
X188154494Y-87830537D01*
X188251185Y-87751185D01*
X188330537Y-87654494D01*
X188389502Y-87544180D01*
X188425812Y-87424482D01*
X188438072Y-87300000D01*
X188435000Y-86785750D01*
X188276250Y-86627000D01*
X187127000Y-86627000D01*
X186873000Y-86627000D01*
X185723750Y-86627000D01*
X185565000Y-86785750D01*
X185561928Y-87300000D01*
X141763711Y-87300000D01*
X141659774Y-87196063D01*
X141490256Y-87082795D01*
X141301898Y-87004774D01*
X141127000Y-86969985D01*
X141127000Y-82398061D01*
X143965000Y-82398061D01*
X143965000Y-82601939D01*
X144004774Y-82801898D01*
X144082795Y-82990256D01*
X144196063Y-83159774D01*
X144340226Y-83303937D01*
X144509744Y-83417205D01*
X144698102Y-83495226D01*
X144898061Y-83535000D01*
X145101939Y-83535000D01*
X145301898Y-83495226D01*
X145490256Y-83417205D01*
X145659774Y-83303937D01*
X145803937Y-83159774D01*
X145917205Y-82990256D01*
X145995226Y-82801898D01*
X146035000Y-82601939D01*
X146035000Y-82398061D01*
X145995226Y-82198102D01*
X145917205Y-82009744D01*
X145803937Y-81840226D01*
X145659774Y-81696063D01*
X145490256Y-81582795D01*
X145301898Y-81504774D01*
X145101939Y-81465000D01*
X144898061Y-81465000D01*
X144698102Y-81504774D01*
X144509744Y-81582795D01*
X144340226Y-81696063D01*
X144196063Y-81840226D01*
X144082795Y-82009744D01*
X144004774Y-82198102D01*
X143965000Y-82398061D01*
X141127000Y-82398061D01*
X141127000Y-77556414D01*
X141196063Y-77659774D01*
X141340226Y-77803937D01*
X141509744Y-77917205D01*
X141698102Y-77995226D01*
X141898061Y-78035000D01*
X142101939Y-78035000D01*
X142301898Y-77995226D01*
X142490256Y-77917205D01*
X142659774Y-77803937D01*
X142803937Y-77659774D01*
X142917205Y-77490256D01*
X142995226Y-77301898D01*
X143035000Y-77101939D01*
X143035000Y-76898061D01*
X142995226Y-76698102D01*
X142917205Y-76509744D01*
X142803937Y-76340226D01*
X142659774Y-76196063D01*
X142490256Y-76082795D01*
X142301898Y-76004774D01*
X142101939Y-75965000D01*
X141898061Y-75965000D01*
X141698102Y-76004774D01*
X141509744Y-76082795D01*
X141340226Y-76196063D01*
X141196063Y-76340226D01*
X141127000Y-76443586D01*
X141127000Y-74398061D01*
X144965000Y-74398061D01*
X144965000Y-74601939D01*
X145004774Y-74801898D01*
X145082795Y-74990256D01*
X145196063Y-75159774D01*
X145340226Y-75303937D01*
X145509744Y-75417205D01*
X145698102Y-75495226D01*
X145898061Y-75535000D01*
X146101939Y-75535000D01*
X146301898Y-75495226D01*
X146490256Y-75417205D01*
X146659774Y-75303937D01*
X146803937Y-75159774D01*
X146917205Y-74990256D01*
X146995226Y-74801898D01*
X147035000Y-74601939D01*
X147035000Y-74398061D01*
X146995226Y-74198102D01*
X146917205Y-74009744D01*
X146803937Y-73840226D01*
X146659774Y-73696063D01*
X146490256Y-73582795D01*
X146301898Y-73504774D01*
X146277898Y-73500000D01*
X147365000Y-73500000D01*
X147365000Y-84500000D01*
X147377201Y-84623882D01*
X147413336Y-84743004D01*
X147472017Y-84852787D01*
X147550987Y-84949013D01*
X147647213Y-85027983D01*
X147756996Y-85086664D01*
X147876118Y-85122799D01*
X148000000Y-85135000D01*
X185909981Y-85135000D01*
X185845506Y-85169463D01*
X185748815Y-85248815D01*
X185669463Y-85345506D01*
X185610498Y-85455820D01*
X185574188Y-85575518D01*
X185561928Y-85700000D01*
X185565000Y-86214250D01*
X185723750Y-86373000D01*
X186873000Y-86373000D01*
X186873000Y-86353000D01*
X187127000Y-86353000D01*
X187127000Y-86373000D01*
X188276250Y-86373000D01*
X188435000Y-86214250D01*
X188438072Y-85700000D01*
X188425812Y-85575518D01*
X188389502Y-85455820D01*
X188330537Y-85345506D01*
X188251185Y-85248815D01*
X188154494Y-85169463D01*
X188090019Y-85135000D01*
X193365000Y-85135000D01*
X193365000Y-85500000D01*
X193377201Y-85623882D01*
X193413336Y-85743004D01*
X193472017Y-85852787D01*
X193550987Y-85949013D01*
X193647213Y-86027983D01*
X193756996Y-86086664D01*
X193876118Y-86122799D01*
X194000000Y-86135000D01*
X194068330Y-86135000D01*
X194061928Y-86200000D01*
X194061928Y-87800000D01*
X194074188Y-87924482D01*
X194110498Y-88044180D01*
X194169463Y-88154494D01*
X194248815Y-88251185D01*
X194345506Y-88330537D01*
X194455820Y-88389502D01*
X194575518Y-88425812D01*
X194700000Y-88438072D01*
X196300000Y-88438072D01*
X196424482Y-88425812D01*
X196544180Y-88389502D01*
X196654494Y-88330537D01*
X196751185Y-88251185D01*
X196830537Y-88154494D01*
X196889502Y-88044180D01*
X196925812Y-87924482D01*
X196938072Y-87800000D01*
X196938072Y-86200000D01*
X196931670Y-86135000D01*
X197500001Y-86135000D01*
X197623884Y-86122799D01*
X197743005Y-86086663D01*
X197852788Y-86027983D01*
X197949014Y-85949013D01*
X198027984Y-85852787D01*
X198086665Y-85743004D01*
X198122800Y-85623882D01*
X198135001Y-85500000D01*
X198135000Y-83000000D01*
X198128618Y-82910197D01*
X198099020Y-82789286D01*
X198046401Y-82676472D01*
X197972785Y-82576090D01*
X197881000Y-82492000D01*
X196135000Y-81182500D01*
X196135000Y-73500000D01*
X196122799Y-73376118D01*
X196086664Y-73256996D01*
X196027983Y-73147213D01*
X195949013Y-73050987D01*
X195852787Y-72972017D01*
X195743004Y-72913336D01*
X195623882Y-72877201D01*
X195500000Y-72865000D01*
X148000000Y-72865000D01*
X147876118Y-72877201D01*
X147756996Y-72913336D01*
X147647213Y-72972017D01*
X147550987Y-73050987D01*
X147472017Y-73147213D01*
X147413336Y-73256996D01*
X147377201Y-73376118D01*
X147365000Y-73500000D01*
X146277898Y-73500000D01*
X146101939Y-73465000D01*
X145898061Y-73465000D01*
X145698102Y-73504774D01*
X145509744Y-73582795D01*
X145340226Y-73696063D01*
X145196063Y-73840226D01*
X145082795Y-74009744D01*
X145004774Y-74198102D01*
X144965000Y-74398061D01*
X141127000Y-74398061D01*
X141127000Y-72965774D01*
X141198102Y-72995226D01*
X141398061Y-73035000D01*
X141601939Y-73035000D01*
X141801898Y-72995226D01*
X141990256Y-72917205D01*
X142159774Y-72803937D01*
X142303937Y-72659774D01*
X142417205Y-72490256D01*
X142495226Y-72301898D01*
X142535000Y-72101939D01*
X142535000Y-71898061D01*
X142495226Y-71698102D01*
X142417205Y-71509744D01*
X142303937Y-71340226D01*
X142159774Y-71196063D01*
X141990256Y-71082795D01*
X141801898Y-71004774D01*
X141601939Y-70965000D01*
X141398061Y-70965000D01*
X141198102Y-71004774D01*
X141127000Y-71034226D01*
X141127000Y-69819268D01*
X157165000Y-69819268D01*
X157165000Y-70180732D01*
X157235518Y-70535250D01*
X157373844Y-70869199D01*
X157574662Y-71169744D01*
X157830256Y-71425338D01*
X158130801Y-71626156D01*
X158464750Y-71764482D01*
X158819268Y-71835000D01*
X159180732Y-71835000D01*
X159535250Y-71764482D01*
X159869199Y-71626156D01*
X160169744Y-71425338D01*
X160425338Y-71169744D01*
X160626156Y-70869199D01*
X160764482Y-70535250D01*
X160835000Y-70180732D01*
X160835000Y-69819268D01*
X185105000Y-69819268D01*
X185105000Y-70180732D01*
X185175518Y-70535250D01*
X185313844Y-70869199D01*
X185514662Y-71169744D01*
X185770256Y-71425338D01*
X186070801Y-71626156D01*
X186404750Y-71764482D01*
X186759268Y-71835000D01*
X187120732Y-71835000D01*
X187475250Y-71764482D01*
X187809199Y-71626156D01*
X188109744Y-71425338D01*
X188365338Y-71169744D01*
X188566156Y-70869199D01*
X188704482Y-70535250D01*
X188775000Y-70180732D01*
X188775000Y-69819268D01*
X188704482Y-69464750D01*
X188566156Y-69130801D01*
X188365338Y-68830256D01*
X188109744Y-68574662D01*
X187845443Y-68398061D01*
X191965000Y-68398061D01*
X191965000Y-68601939D01*
X192004774Y-68801898D01*
X192082795Y-68990256D01*
X192089306Y-69000000D01*
X192082795Y-69009744D01*
X192004774Y-69198102D01*
X191965000Y-69398061D01*
X191965000Y-69601939D01*
X192004774Y-69801898D01*
X192082795Y-69990256D01*
X192089306Y-70000000D01*
X192082795Y-70009744D01*
X192004774Y-70198102D01*
X191965000Y-70398061D01*
X191965000Y-70601939D01*
X192004774Y-70801898D01*
X192082795Y-70990256D01*
X192089306Y-71000000D01*
X192082795Y-71009744D01*
X192004774Y-71198102D01*
X191965000Y-71398061D01*
X191965000Y-71601939D01*
X192004774Y-71801898D01*
X192082795Y-71990256D01*
X192196063Y-72159774D01*
X192340226Y-72303937D01*
X192509744Y-72417205D01*
X192698102Y-72495226D01*
X192898061Y-72535000D01*
X193101939Y-72535000D01*
X193301898Y-72495226D01*
X193490256Y-72417205D01*
X193500000Y-72410694D01*
X193509744Y-72417205D01*
X193698102Y-72495226D01*
X193898061Y-72535000D01*
X194101939Y-72535000D01*
X194301898Y-72495226D01*
X194490256Y-72417205D01*
X194500000Y-72410694D01*
X194509744Y-72417205D01*
X194698102Y-72495226D01*
X194898061Y-72535000D01*
X195101939Y-72535000D01*
X195301898Y-72495226D01*
X195490256Y-72417205D01*
X195500000Y-72410694D01*
X195509744Y-72417205D01*
X195698102Y-72495226D01*
X195898061Y-72535000D01*
X196101939Y-72535000D01*
X196301898Y-72495226D01*
X196490256Y-72417205D01*
X196659774Y-72303937D01*
X196803937Y-72159774D01*
X196917205Y-71990256D01*
X196995226Y-71801898D01*
X197035000Y-71601939D01*
X197035000Y-71398061D01*
X196995226Y-71198102D01*
X196917205Y-71009744D01*
X196910694Y-71000000D01*
X196917205Y-70990256D01*
X196995226Y-70801898D01*
X197035000Y-70601939D01*
X197035000Y-70398061D01*
X196995226Y-70198102D01*
X196917205Y-70009744D01*
X196910694Y-70000000D01*
X196917205Y-69990256D01*
X196995226Y-69801898D01*
X197035000Y-69601939D01*
X197035000Y-69398061D01*
X196995226Y-69198102D01*
X196917205Y-69009744D01*
X196910694Y-69000000D01*
X196917205Y-68990256D01*
X196995226Y-68801898D01*
X197035000Y-68601939D01*
X197035000Y-68398061D01*
X196995226Y-68198102D01*
X196917205Y-68009744D01*
X196803937Y-67840226D01*
X196659774Y-67696063D01*
X196490256Y-67582795D01*
X196301898Y-67504774D01*
X196101939Y-67465000D01*
X195898061Y-67465000D01*
X195698102Y-67504774D01*
X195509744Y-67582795D01*
X195500000Y-67589306D01*
X195490256Y-67582795D01*
X195301898Y-67504774D01*
X195101939Y-67465000D01*
X194898061Y-67465000D01*
X194698102Y-67504774D01*
X194509744Y-67582795D01*
X194500000Y-67589306D01*
X194490256Y-67582795D01*
X194301898Y-67504774D01*
X194101939Y-67465000D01*
X193898061Y-67465000D01*
X193698102Y-67504774D01*
X193509744Y-67582795D01*
X193500000Y-67589306D01*
X193490256Y-67582795D01*
X193301898Y-67504774D01*
X193101939Y-67465000D01*
X192898061Y-67465000D01*
X192698102Y-67504774D01*
X192509744Y-67582795D01*
X192340226Y-67696063D01*
X192196063Y-67840226D01*
X192082795Y-68009744D01*
X192004774Y-68198102D01*
X191965000Y-68398061D01*
X187845443Y-68398061D01*
X187809199Y-68373844D01*
X187475250Y-68235518D01*
X187120732Y-68165000D01*
X186759268Y-68165000D01*
X186404750Y-68235518D01*
X186070801Y-68373844D01*
X185770256Y-68574662D01*
X185514662Y-68830256D01*
X185313844Y-69130801D01*
X185175518Y-69464750D01*
X185105000Y-69819268D01*
X160835000Y-69819268D01*
X160764482Y-69464750D01*
X160626156Y-69130801D01*
X160425338Y-68830256D01*
X160169744Y-68574662D01*
X159869199Y-68373844D01*
X159535250Y-68235518D01*
X159180732Y-68165000D01*
X158819268Y-68165000D01*
X158464750Y-68235518D01*
X158130801Y-68373844D01*
X157830256Y-68574662D01*
X157574662Y-68830256D01*
X157373844Y-69130801D01*
X157235518Y-69464750D01*
X157165000Y-69819268D01*
X141127000Y-69819268D01*
X141127000Y-66000000D01*
X141124560Y-65975224D01*
X141117333Y-65951399D01*
X141105597Y-65929443D01*
X141089803Y-65910197D01*
X141070557Y-65894403D01*
X141048601Y-65882667D01*
X141024776Y-65875440D01*
X141000000Y-65873000D01*
X127056414Y-65873000D01*
X127159774Y-65803937D01*
X127303937Y-65659774D01*
X127417205Y-65490256D01*
X127495226Y-65301898D01*
X127535000Y-65101939D01*
X127535000Y-64898061D01*
X127495226Y-64698102D01*
X127417205Y-64509744D01*
X127410694Y-64500000D01*
X127417205Y-64490256D01*
X127495226Y-64301898D01*
X127535000Y-64101939D01*
X127535000Y-63898061D01*
X127527164Y-63858665D01*
X128065000Y-63858665D01*
X128065000Y-64141335D01*
X128120147Y-64418574D01*
X128228320Y-64679727D01*
X128385363Y-64914759D01*
X128585241Y-65114637D01*
X128820273Y-65271680D01*
X129081426Y-65379853D01*
X129358665Y-65435000D01*
X129641335Y-65435000D01*
X129918574Y-65379853D01*
X130179727Y-65271680D01*
X130414759Y-65114637D01*
X130614637Y-64914759D01*
X130771680Y-64679727D01*
X130879853Y-64418574D01*
X130935000Y-64141335D01*
X130935000Y-63858665D01*
X136565000Y-63858665D01*
X136565000Y-64141335D01*
X136620147Y-64418574D01*
X136728320Y-64679727D01*
X136885363Y-64914759D01*
X137085241Y-65114637D01*
X137320273Y-65271680D01*
X137581426Y-65379853D01*
X137858665Y-65435000D01*
X138141335Y-65435000D01*
X138418574Y-65379853D01*
X138679727Y-65271680D01*
X138914759Y-65114637D01*
X139114637Y-64914759D01*
X139271680Y-64679727D01*
X139379853Y-64418574D01*
X139435000Y-64141335D01*
X139435000Y-63858665D01*
X139379853Y-63581426D01*
X139271680Y-63320273D01*
X139114637Y-63085241D01*
X138914759Y-62885363D01*
X138679727Y-62728320D01*
X138418574Y-62620147D01*
X138141335Y-62565000D01*
X137858665Y-62565000D01*
X137581426Y-62620147D01*
X137320273Y-62728320D01*
X137085241Y-62885363D01*
X136885363Y-63085241D01*
X136728320Y-63320273D01*
X136620147Y-63581426D01*
X136565000Y-63858665D01*
X130935000Y-63858665D01*
X130879853Y-63581426D01*
X130771680Y-63320273D01*
X130614637Y-63085241D01*
X130414759Y-62885363D01*
X130179727Y-62728320D01*
X129918574Y-62620147D01*
X129641335Y-62565000D01*
X129358665Y-62565000D01*
X129081426Y-62620147D01*
X128820273Y-62728320D01*
X128585241Y-62885363D01*
X128385363Y-63085241D01*
X128228320Y-63320273D01*
X128120147Y-63581426D01*
X128065000Y-63858665D01*
X127527164Y-63858665D01*
X127495226Y-63698102D01*
X127417205Y-63509744D01*
X127410694Y-63500000D01*
X127417205Y-63490256D01*
X127495226Y-63301898D01*
X127535000Y-63101939D01*
X127535000Y-62898061D01*
X127495226Y-62698102D01*
X127417205Y-62509744D01*
X127410694Y-62500000D01*
X127417205Y-62490256D01*
X127495226Y-62301898D01*
X127535000Y-62101939D01*
X127535000Y-61898061D01*
X127495226Y-61698102D01*
X127417205Y-61509744D01*
X127303937Y-61340226D01*
X127159774Y-61196063D01*
X126990256Y-61082795D01*
X126801898Y-61004774D01*
X126601939Y-60965000D01*
X126398061Y-60965000D01*
X126198102Y-61004774D01*
X126009744Y-61082795D01*
X126000000Y-61089306D01*
X125990256Y-61082795D01*
X125801898Y-61004774D01*
X125601939Y-60965000D01*
X125398061Y-60965000D01*
X125198102Y-61004774D01*
X125009744Y-61082795D01*
X125000000Y-61089306D01*
X124990256Y-61082795D01*
X124801898Y-61004774D01*
X124601939Y-60965000D01*
X124398061Y-60965000D01*
X124198102Y-61004774D01*
X124009744Y-61082795D01*
X124000000Y-61089306D01*
X123990256Y-61082795D01*
X123801898Y-61004774D01*
X123601939Y-60965000D01*
X123398061Y-60965000D01*
X123198102Y-61004774D01*
X123009744Y-61082795D01*
X122840226Y-61196063D01*
X122696063Y-61340226D01*
X122582795Y-61509744D01*
X122504774Y-61698102D01*
X122465000Y-61898061D01*
X122465000Y-62101939D01*
X122504774Y-62301898D01*
X122582795Y-62490256D01*
X122589306Y-62500000D01*
X122582795Y-62509744D01*
X122504774Y-62698102D01*
X122465000Y-62898061D01*
X122465000Y-63101939D01*
X122504774Y-63301898D01*
X122582795Y-63490256D01*
X122589306Y-63500000D01*
X122582795Y-63509744D01*
X122504774Y-63698102D01*
X122465000Y-63898061D01*
X122465000Y-64101939D01*
X122504774Y-64301898D01*
X122582795Y-64490256D01*
X122589306Y-64500000D01*
X122582795Y-64509744D01*
X122504774Y-64698102D01*
X122465000Y-64898061D01*
X122465000Y-65101939D01*
X122504774Y-65301898D01*
X122582795Y-65490256D01*
X122696063Y-65659774D01*
X122840226Y-65803937D01*
X122943586Y-65873000D01*
X105635000Y-65873000D01*
X105635000Y-65872998D01*
X105476252Y-65872998D01*
X105635000Y-65714250D01*
X105638072Y-65047500D01*
X105625812Y-64923018D01*
X105589502Y-64803320D01*
X105587728Y-64800000D01*
X111061928Y-64800000D01*
X111074188Y-64924482D01*
X111110498Y-65044180D01*
X111169463Y-65154494D01*
X111248815Y-65251185D01*
X111345506Y-65330537D01*
X111455820Y-65389502D01*
X111575518Y-65425812D01*
X111700000Y-65438072D01*
X112214250Y-65435000D01*
X112373000Y-65276250D01*
X112373000Y-64127000D01*
X112627000Y-64127000D01*
X112627000Y-65276250D01*
X112785750Y-65435000D01*
X113300000Y-65438072D01*
X113424482Y-65425812D01*
X113544180Y-65389502D01*
X113654494Y-65330537D01*
X113751185Y-65251185D01*
X113830537Y-65154494D01*
X113889502Y-65044180D01*
X113925812Y-64924482D01*
X113938072Y-64800000D01*
X119561928Y-64800000D01*
X119574188Y-64924482D01*
X119610498Y-65044180D01*
X119669463Y-65154494D01*
X119748815Y-65251185D01*
X119845506Y-65330537D01*
X119955820Y-65389502D01*
X120075518Y-65425812D01*
X120200000Y-65438072D01*
X120714250Y-65435000D01*
X120873000Y-65276250D01*
X120873000Y-64127000D01*
X121127000Y-64127000D01*
X121127000Y-65276250D01*
X121285750Y-65435000D01*
X121800000Y-65438072D01*
X121924482Y-65425812D01*
X122044180Y-65389502D01*
X122154494Y-65330537D01*
X122251185Y-65251185D01*
X122330537Y-65154494D01*
X122389502Y-65044180D01*
X122425812Y-64924482D01*
X122438072Y-64800000D01*
X122435000Y-64285750D01*
X122276250Y-64127000D01*
X121127000Y-64127000D01*
X120873000Y-64127000D01*
X119723750Y-64127000D01*
X119565000Y-64285750D01*
X119561928Y-64800000D01*
X113938072Y-64800000D01*
X113935000Y-64285750D01*
X113776250Y-64127000D01*
X112627000Y-64127000D01*
X112373000Y-64127000D01*
X111223750Y-64127000D01*
X111065000Y-64285750D01*
X111061928Y-64800000D01*
X105587728Y-64800000D01*
X105530537Y-64693006D01*
X105451185Y-64596315D01*
X105354494Y-64516963D01*
X105270554Y-64472095D01*
X105373845Y-64346235D01*
X105521255Y-64070449D01*
X105612030Y-63771204D01*
X105642681Y-63460000D01*
X105617074Y-63200000D01*
X111061928Y-63200000D01*
X111065000Y-63714250D01*
X111223750Y-63873000D01*
X112373000Y-63873000D01*
X112373000Y-62723750D01*
X112627000Y-62723750D01*
X112627000Y-63873000D01*
X113776250Y-63873000D01*
X113935000Y-63714250D01*
X113938072Y-63200000D01*
X119561928Y-63200000D01*
X119565000Y-63714250D01*
X119723750Y-63873000D01*
X120873000Y-63873000D01*
X120873000Y-62723750D01*
X121127000Y-62723750D01*
X121127000Y-63873000D01*
X122276250Y-63873000D01*
X122435000Y-63714250D01*
X122438072Y-63200000D01*
X122425812Y-63075518D01*
X122389502Y-62955820D01*
X122330537Y-62845506D01*
X122251185Y-62748815D01*
X122154494Y-62669463D01*
X122044180Y-62610498D01*
X121924482Y-62574188D01*
X121800000Y-62561928D01*
X121285750Y-62565000D01*
X121127000Y-62723750D01*
X120873000Y-62723750D01*
X120714250Y-62565000D01*
X120200000Y-62561928D01*
X120075518Y-62574188D01*
X119955820Y-62610498D01*
X119845506Y-62669463D01*
X119748815Y-62748815D01*
X119669463Y-62845506D01*
X119610498Y-62955820D01*
X119574188Y-63075518D01*
X119561928Y-63200000D01*
X113938072Y-63200000D01*
X113925812Y-63075518D01*
X113889502Y-62955820D01*
X113830537Y-62845506D01*
X113751185Y-62748815D01*
X113654494Y-62669463D01*
X113544180Y-62610498D01*
X113424482Y-62574188D01*
X113300000Y-62561928D01*
X112785750Y-62565000D01*
X112627000Y-62723750D01*
X112373000Y-62723750D01*
X112214250Y-62565000D01*
X111700000Y-62561928D01*
X111575518Y-62574188D01*
X111455820Y-62610498D01*
X111345506Y-62669463D01*
X111248815Y-62748815D01*
X111169463Y-62845506D01*
X111110498Y-62955820D01*
X111074188Y-63075518D01*
X111061928Y-63200000D01*
X105617074Y-63200000D01*
X105612030Y-63148796D01*
X105521255Y-62849551D01*
X105373845Y-62573765D01*
X105175463Y-62332037D01*
X105002391Y-62190000D01*
X105175463Y-62047963D01*
X105373845Y-61806235D01*
X105521255Y-61530449D01*
X105612030Y-61231204D01*
X105642681Y-60920000D01*
X105612030Y-60608796D01*
X105521255Y-60309551D01*
X105373845Y-60033765D01*
X105197812Y-59819268D01*
X157165000Y-59819268D01*
X157165000Y-60180732D01*
X157235518Y-60535250D01*
X157373844Y-60869199D01*
X157574662Y-61169744D01*
X157830256Y-61425338D01*
X158130801Y-61626156D01*
X158464750Y-61764482D01*
X158819268Y-61835000D01*
X159180732Y-61835000D01*
X159535250Y-61764482D01*
X159869199Y-61626156D01*
X160169744Y-61425338D01*
X160425338Y-61169744D01*
X160626156Y-60869199D01*
X160764482Y-60535250D01*
X160835000Y-60180732D01*
X160835000Y-59898061D01*
X181690000Y-59898061D01*
X181690000Y-60101939D01*
X181729774Y-60301898D01*
X181807795Y-60490256D01*
X181921063Y-60659774D01*
X182065226Y-60803937D01*
X182234744Y-60917205D01*
X182423102Y-60995226D01*
X182623061Y-61035000D01*
X182826939Y-61035000D01*
X183026898Y-60995226D01*
X183215256Y-60917205D01*
X183384774Y-60803937D01*
X183528937Y-60659774D01*
X183642205Y-60490256D01*
X183720226Y-60301898D01*
X183760000Y-60101939D01*
X183760000Y-59898061D01*
X183744328Y-59819268D01*
X185105000Y-59819268D01*
X185105000Y-60180732D01*
X185175518Y-60535250D01*
X185313844Y-60869199D01*
X185514662Y-61169744D01*
X185770256Y-61425338D01*
X186070801Y-61626156D01*
X186404750Y-61764482D01*
X186759268Y-61835000D01*
X187120732Y-61835000D01*
X187475250Y-61764482D01*
X187809199Y-61626156D01*
X188109744Y-61425338D01*
X188365338Y-61169744D01*
X188566156Y-60869199D01*
X188704482Y-60535250D01*
X188775000Y-60180732D01*
X188775000Y-59819268D01*
X188704482Y-59464750D01*
X188566156Y-59130801D01*
X188365338Y-58830256D01*
X188109744Y-58574662D01*
X187809199Y-58373844D01*
X187475250Y-58235518D01*
X187120732Y-58165000D01*
X186759268Y-58165000D01*
X186404750Y-58235518D01*
X186070801Y-58373844D01*
X185770256Y-58574662D01*
X185514662Y-58830256D01*
X185313844Y-59130801D01*
X185175518Y-59464750D01*
X185105000Y-59819268D01*
X183744328Y-59819268D01*
X183720226Y-59698102D01*
X183642205Y-59509744D01*
X183528937Y-59340226D01*
X183384774Y-59196063D01*
X183215256Y-59082795D01*
X183026898Y-59004774D01*
X182826939Y-58965000D01*
X182623061Y-58965000D01*
X182423102Y-59004774D01*
X182234744Y-59082795D01*
X182065226Y-59196063D01*
X181921063Y-59340226D01*
X181807795Y-59509744D01*
X181729774Y-59698102D01*
X181690000Y-59898061D01*
X160835000Y-59898061D01*
X160835000Y-59819268D01*
X160764482Y-59464750D01*
X160626156Y-59130801D01*
X160425338Y-58830256D01*
X160169744Y-58574662D01*
X159869199Y-58373844D01*
X159535250Y-58235518D01*
X159180732Y-58165000D01*
X158819268Y-58165000D01*
X158464750Y-58235518D01*
X158130801Y-58373844D01*
X157830256Y-58574662D01*
X157574662Y-58830256D01*
X157373844Y-59130801D01*
X157235518Y-59464750D01*
X157165000Y-59819268D01*
X105197812Y-59819268D01*
X105175463Y-59792037D01*
X104933735Y-59593655D01*
X104657949Y-59446245D01*
X104358704Y-59355470D01*
X104125486Y-59332500D01*
X103874514Y-59332500D01*
X103641296Y-59355470D01*
X103342051Y-59446245D01*
X103066265Y-59593655D01*
X102824537Y-59792037D01*
X102626155Y-60033765D01*
X102478745Y-60309551D01*
X102387970Y-60608796D01*
X102357319Y-60920000D01*
X102387970Y-61231204D01*
X102478745Y-61530449D01*
X102626155Y-61806235D01*
X102824537Y-62047963D01*
X102997609Y-62190000D01*
X102824537Y-62332037D01*
X102626155Y-62573765D01*
X102478745Y-62849551D01*
X102387970Y-63148796D01*
X102357319Y-63460000D01*
X102387970Y-63771204D01*
X102478745Y-64070449D01*
X102626155Y-64346235D01*
X102729446Y-64472095D01*
X102645506Y-64516963D01*
X102548815Y-64596315D01*
X102469463Y-64693006D01*
X102410498Y-64803320D01*
X102374188Y-64923018D01*
X102361928Y-65047500D01*
X102365000Y-65714250D01*
X102523748Y-65872998D01*
X102365000Y-65872998D01*
X102365000Y-65873000D01*
X100660000Y-65873000D01*
X100660000Y-50660000D01*
X103095845Y-50660000D01*
X102555330Y-51021161D01*
G36*
X195373000Y-81500000D02*
G01*
X195375440Y-81524776D01*
X195382667Y-81548601D01*
X195394403Y-81570557D01*
X195410197Y-81589803D01*
X195423800Y-81601600D01*
X197373000Y-83063500D01*
X197373001Y-85373000D01*
X194127000Y-85373000D01*
X194127000Y-84500000D01*
X194126282Y-84492702D01*
X194686903Y-84492702D01*
X194758486Y-84736671D01*
X195013996Y-84857571D01*
X195288184Y-84926300D01*
X195570512Y-84940217D01*
X195850130Y-84898787D01*
X196116292Y-84803603D01*
X196241514Y-84736671D01*
X196313097Y-84492702D01*
X195500000Y-83679605D01*
X194686903Y-84492702D01*
X194126282Y-84492702D01*
X194124560Y-84475224D01*
X194117333Y-84451399D01*
X194105597Y-84429443D01*
X194089803Y-84410197D01*
X194070557Y-84394403D01*
X194048601Y-84382667D01*
X194024776Y-84375440D01*
X194000000Y-84373000D01*
X187435119Y-84373000D01*
X187679727Y-84271680D01*
X187914759Y-84114637D01*
X188114637Y-83914759D01*
X188271680Y-83679727D01*
X188316918Y-83570512D01*
X194059783Y-83570512D01*
X194101213Y-83850130D01*
X194196397Y-84116292D01*
X194263329Y-84241514D01*
X194507298Y-84313097D01*
X195320395Y-83500000D01*
X195679605Y-83500000D01*
X196492702Y-84313097D01*
X196736671Y-84241514D01*
X196857571Y-83986004D01*
X196926300Y-83711816D01*
X196940217Y-83429488D01*
X196898787Y-83149870D01*
X196803603Y-82883708D01*
X196736671Y-82758486D01*
X196492702Y-82686903D01*
X195679605Y-83500000D01*
X195320395Y-83500000D01*
X194507298Y-82686903D01*
X194263329Y-82758486D01*
X194142429Y-83013996D01*
X194073700Y-83288184D01*
X194059783Y-83570512D01*
X188316918Y-83570512D01*
X188379853Y-83418574D01*
X188435000Y-83141335D01*
X188435000Y-82858665D01*
X188379853Y-82581426D01*
X188349149Y-82507298D01*
X194686903Y-82507298D01*
X195500000Y-83320395D01*
X196313097Y-82507298D01*
X196241514Y-82263329D01*
X195986004Y-82142429D01*
X195711816Y-82073700D01*
X195429488Y-82059783D01*
X195149870Y-82101213D01*
X194883708Y-82196397D01*
X194758486Y-82263329D01*
X194686903Y-82507298D01*
X188349149Y-82507298D01*
X188271680Y-82320273D01*
X188114637Y-82085241D01*
X187914759Y-81885363D01*
X187679727Y-81728320D01*
X187651140Y-81716479D01*
X187869199Y-81626156D01*
X188169744Y-81425338D01*
X188425338Y-81169744D01*
X188626156Y-80869199D01*
X188764482Y-80535250D01*
X188835000Y-80180732D01*
X188835000Y-79819268D01*
X188764482Y-79464750D01*
X188626156Y-79130801D01*
X188425338Y-78830256D01*
X188169744Y-78574662D01*
X187869199Y-78373844D01*
X187535250Y-78235518D01*
X187180732Y-78165000D01*
X186819268Y-78165000D01*
X186464750Y-78235518D01*
X186130801Y-78373844D01*
X185830256Y-78574662D01*
X185574662Y-78830256D01*
X185373844Y-79130801D01*
X185235518Y-79464750D01*
X185165000Y-79819268D01*
X185165000Y-80180732D01*
X185235518Y-80535250D01*
X185373844Y-80869199D01*
X185574662Y-81169744D01*
X185830256Y-81425338D01*
X186130801Y-81626156D01*
X186348860Y-81716479D01*
X186320273Y-81728320D01*
X186085241Y-81885363D01*
X185885363Y-82085241D01*
X185728320Y-82320273D01*
X185620147Y-82581426D01*
X185565000Y-82858665D01*
X185565000Y-83141335D01*
X185620147Y-83418574D01*
X185728320Y-83679727D01*
X185885363Y-83914759D01*
X186085241Y-84114637D01*
X186320273Y-84271680D01*
X186564881Y-84373000D01*
X182965774Y-84373000D01*
X182995226Y-84301898D01*
X183035000Y-84101939D01*
X183035000Y-83898061D01*
X182995226Y-83698102D01*
X182917205Y-83509744D01*
X182803937Y-83340226D01*
X182659774Y-83196063D01*
X182490256Y-83082795D01*
X182301898Y-83004774D01*
X182101939Y-82965000D01*
X181898061Y-82965000D01*
X181698102Y-83004774D01*
X181509744Y-83082795D01*
X181340226Y-83196063D01*
X181196063Y-83340226D01*
X181082795Y-83509744D01*
X181004774Y-83698102D01*
X180965000Y-83898061D01*
X180965000Y-84101939D01*
X181004774Y-84301898D01*
X181034226Y-84373000D01*
X148127000Y-84373000D01*
X148127000Y-79819268D01*
X157225000Y-79819268D01*
X157225000Y-80180732D01*
X157295518Y-80535250D01*
X157433844Y-80869199D01*
X157634662Y-81169744D01*
X157890256Y-81425338D01*
X158190801Y-81626156D01*
X158524750Y-81764482D01*
X158879268Y-81835000D01*
X159240732Y-81835000D01*
X159595250Y-81764482D01*
X159929199Y-81626156D01*
X160229744Y-81425338D01*
X160485338Y-81169744D01*
X160686156Y-80869199D01*
X160824482Y-80535250D01*
X160895000Y-80180732D01*
X160895000Y-79898061D01*
X181690000Y-79898061D01*
X181690000Y-80101939D01*
X181729774Y-80301898D01*
X181807795Y-80490256D01*
X181921063Y-80659774D01*
X182065226Y-80803937D01*
X182234744Y-80917205D01*
X182423102Y-80995226D01*
X182623061Y-81035000D01*
X182826939Y-81035000D01*
X183026898Y-80995226D01*
X183215256Y-80917205D01*
X183384774Y-80803937D01*
X183528937Y-80659774D01*
X183642205Y-80490256D01*
X183720226Y-80301898D01*
X183760000Y-80101939D01*
X183760000Y-79898061D01*
X183720226Y-79698102D01*
X183642205Y-79509744D01*
X183528937Y-79340226D01*
X183384774Y-79196063D01*
X183215256Y-79082795D01*
X183026898Y-79004774D01*
X182826939Y-78965000D01*
X182623061Y-78965000D01*
X182423102Y-79004774D01*
X182234744Y-79082795D01*
X182065226Y-79196063D01*
X181921063Y-79340226D01*
X181807795Y-79509744D01*
X181729774Y-79698102D01*
X181690000Y-79898061D01*
X160895000Y-79898061D01*
X160895000Y-79819268D01*
X160824482Y-79464750D01*
X160686156Y-79130801D01*
X160485338Y-78830256D01*
X160229744Y-78574662D01*
X159929199Y-78373844D01*
X159595250Y-78235518D01*
X159240732Y-78165000D01*
X158879268Y-78165000D01*
X158524750Y-78235518D01*
X158190801Y-78373844D01*
X157890256Y-78574662D01*
X157634662Y-78830256D01*
X157433844Y-79130801D01*
X157295518Y-79464750D01*
X157225000Y-79819268D01*
X148127000Y-79819268D01*
X148127000Y-74898061D01*
X180965000Y-74898061D01*
X180965000Y-75101939D01*
X181004774Y-75301898D01*
X181082795Y-75490256D01*
X181196063Y-75659774D01*
X181340226Y-75803937D01*
X181509744Y-75917205D01*
X181698102Y-75995226D01*
X181898061Y-76035000D01*
X182101939Y-76035000D01*
X182301898Y-75995226D01*
X182490256Y-75917205D01*
X182659774Y-75803937D01*
X182803937Y-75659774D01*
X182917205Y-75490256D01*
X182995226Y-75301898D01*
X183035000Y-75101939D01*
X183035000Y-74898061D01*
X182995226Y-74698102D01*
X182917205Y-74509744D01*
X182803937Y-74340226D01*
X182659774Y-74196063D01*
X182490256Y-74082795D01*
X182301898Y-74004774D01*
X182101939Y-73965000D01*
X181898061Y-73965000D01*
X181698102Y-74004774D01*
X181509744Y-74082795D01*
X181340226Y-74196063D01*
X181196063Y-74340226D01*
X181082795Y-74509744D01*
X181004774Y-74698102D01*
X180965000Y-74898061D01*
X148127000Y-74898061D01*
X148127000Y-73627000D01*
X195373000Y-73627000D01*
X195373000Y-81500000D01*
G37*
X195373000Y-81500000D02*
X195375440Y-81524776D01*
X195382667Y-81548601D01*
X195394403Y-81570557D01*
X195410197Y-81589803D01*
X195423800Y-81601600D01*
X197373000Y-83063500D01*
X197373001Y-85373000D01*
X194127000Y-85373000D01*
X194127000Y-84500000D01*
X194126282Y-84492702D01*
X194686903Y-84492702D01*
X194758486Y-84736671D01*
X195013996Y-84857571D01*
X195288184Y-84926300D01*
X195570512Y-84940217D01*
X195850130Y-84898787D01*
X196116292Y-84803603D01*
X196241514Y-84736671D01*
X196313097Y-84492702D01*
X195500000Y-83679605D01*
X194686903Y-84492702D01*
X194126282Y-84492702D01*
X194124560Y-84475224D01*
X194117333Y-84451399D01*
X194105597Y-84429443D01*
X194089803Y-84410197D01*
X194070557Y-84394403D01*
X194048601Y-84382667D01*
X194024776Y-84375440D01*
X194000000Y-84373000D01*
X187435119Y-84373000D01*
X187679727Y-84271680D01*
X187914759Y-84114637D01*
X188114637Y-83914759D01*
X188271680Y-83679727D01*
X188316918Y-83570512D01*
X194059783Y-83570512D01*
X194101213Y-83850130D01*
X194196397Y-84116292D01*
X194263329Y-84241514D01*
X194507298Y-84313097D01*
X195320395Y-83500000D01*
X195679605Y-83500000D01*
X196492702Y-84313097D01*
X196736671Y-84241514D01*
X196857571Y-83986004D01*
X196926300Y-83711816D01*
X196940217Y-83429488D01*
X196898787Y-83149870D01*
X196803603Y-82883708D01*
X196736671Y-82758486D01*
X196492702Y-82686903D01*
X195679605Y-83500000D01*
X195320395Y-83500000D01*
X194507298Y-82686903D01*
X194263329Y-82758486D01*
X194142429Y-83013996D01*
X194073700Y-83288184D01*
X194059783Y-83570512D01*
X188316918Y-83570512D01*
X188379853Y-83418574D01*
X188435000Y-83141335D01*
X188435000Y-82858665D01*
X188379853Y-82581426D01*
X188349149Y-82507298D01*
X194686903Y-82507298D01*
X195500000Y-83320395D01*
X196313097Y-82507298D01*
X196241514Y-82263329D01*
X195986004Y-82142429D01*
X195711816Y-82073700D01*
X195429488Y-82059783D01*
X195149870Y-82101213D01*
X194883708Y-82196397D01*
X194758486Y-82263329D01*
X194686903Y-82507298D01*
X188349149Y-82507298D01*
X188271680Y-82320273D01*
X188114637Y-82085241D01*
X187914759Y-81885363D01*
X187679727Y-81728320D01*
X187651140Y-81716479D01*
X187869199Y-81626156D01*
X188169744Y-81425338D01*
X188425338Y-81169744D01*
X188626156Y-80869199D01*
X188764482Y-80535250D01*
X188835000Y-80180732D01*
X188835000Y-79819268D01*
X188764482Y-79464750D01*
X188626156Y-79130801D01*
X188425338Y-78830256D01*
X188169744Y-78574662D01*
X187869199Y-78373844D01*
X187535250Y-78235518D01*
X187180732Y-78165000D01*
X186819268Y-78165000D01*
X186464750Y-78235518D01*
X186130801Y-78373844D01*
X185830256Y-78574662D01*
X185574662Y-78830256D01*
X185373844Y-79130801D01*
X185235518Y-79464750D01*
X185165000Y-79819268D01*
X185165000Y-80180732D01*
X185235518Y-80535250D01*
X185373844Y-80869199D01*
X185574662Y-81169744D01*
X185830256Y-81425338D01*
X186130801Y-81626156D01*
X186348860Y-81716479D01*
X186320273Y-81728320D01*
X186085241Y-81885363D01*
X185885363Y-82085241D01*
X185728320Y-82320273D01*
X185620147Y-82581426D01*
X185565000Y-82858665D01*
X185565000Y-83141335D01*
X185620147Y-83418574D01*
X185728320Y-83679727D01*
X185885363Y-83914759D01*
X186085241Y-84114637D01*
X186320273Y-84271680D01*
X186564881Y-84373000D01*
X182965774Y-84373000D01*
X182995226Y-84301898D01*
X183035000Y-84101939D01*
X183035000Y-83898061D01*
X182995226Y-83698102D01*
X182917205Y-83509744D01*
X182803937Y-83340226D01*
X182659774Y-83196063D01*
X182490256Y-83082795D01*
X182301898Y-83004774D01*
X182101939Y-82965000D01*
X181898061Y-82965000D01*
X181698102Y-83004774D01*
X181509744Y-83082795D01*
X181340226Y-83196063D01*
X181196063Y-83340226D01*
X181082795Y-83509744D01*
X181004774Y-83698102D01*
X180965000Y-83898061D01*
X180965000Y-84101939D01*
X181004774Y-84301898D01*
X181034226Y-84373000D01*
X148127000Y-84373000D01*
X148127000Y-79819268D01*
X157225000Y-79819268D01*
X157225000Y-80180732D01*
X157295518Y-80535250D01*
X157433844Y-80869199D01*
X157634662Y-81169744D01*
X157890256Y-81425338D01*
X158190801Y-81626156D01*
X158524750Y-81764482D01*
X158879268Y-81835000D01*
X159240732Y-81835000D01*
X159595250Y-81764482D01*
X159929199Y-81626156D01*
X160229744Y-81425338D01*
X160485338Y-81169744D01*
X160686156Y-80869199D01*
X160824482Y-80535250D01*
X160895000Y-80180732D01*
X160895000Y-79898061D01*
X181690000Y-79898061D01*
X181690000Y-80101939D01*
X181729774Y-80301898D01*
X181807795Y-80490256D01*
X181921063Y-80659774D01*
X182065226Y-80803937D01*
X182234744Y-80917205D01*
X182423102Y-80995226D01*
X182623061Y-81035000D01*
X182826939Y-81035000D01*
X183026898Y-80995226D01*
X183215256Y-80917205D01*
X183384774Y-80803937D01*
X183528937Y-80659774D01*
X183642205Y-80490256D01*
X183720226Y-80301898D01*
X183760000Y-80101939D01*
X183760000Y-79898061D01*
X183720226Y-79698102D01*
X183642205Y-79509744D01*
X183528937Y-79340226D01*
X183384774Y-79196063D01*
X183215256Y-79082795D01*
X183026898Y-79004774D01*
X182826939Y-78965000D01*
X182623061Y-78965000D01*
X182423102Y-79004774D01*
X182234744Y-79082795D01*
X182065226Y-79196063D01*
X181921063Y-79340226D01*
X181807795Y-79509744D01*
X181729774Y-79698102D01*
X181690000Y-79898061D01*
X160895000Y-79898061D01*
X160895000Y-79819268D01*
X160824482Y-79464750D01*
X160686156Y-79130801D01*
X160485338Y-78830256D01*
X160229744Y-78574662D01*
X159929199Y-78373844D01*
X159595250Y-78235518D01*
X159240732Y-78165000D01*
X158879268Y-78165000D01*
X158524750Y-78235518D01*
X158190801Y-78373844D01*
X157890256Y-78574662D01*
X157634662Y-78830256D01*
X157433844Y-79130801D01*
X157295518Y-79464750D01*
X157225000Y-79819268D01*
X148127000Y-79819268D01*
X148127000Y-74898061D01*
X180965000Y-74898061D01*
X180965000Y-75101939D01*
X181004774Y-75301898D01*
X181082795Y-75490256D01*
X181196063Y-75659774D01*
X181340226Y-75803937D01*
X181509744Y-75917205D01*
X181698102Y-75995226D01*
X181898061Y-76035000D01*
X182101939Y-76035000D01*
X182301898Y-75995226D01*
X182490256Y-75917205D01*
X182659774Y-75803937D01*
X182803937Y-75659774D01*
X182917205Y-75490256D01*
X182995226Y-75301898D01*
X183035000Y-75101939D01*
X183035000Y-74898061D01*
X182995226Y-74698102D01*
X182917205Y-74509744D01*
X182803937Y-74340226D01*
X182659774Y-74196063D01*
X182490256Y-74082795D01*
X182301898Y-74004774D01*
X182101939Y-73965000D01*
X181898061Y-73965000D01*
X181698102Y-74004774D01*
X181509744Y-74082795D01*
X181340226Y-74196063D01*
X181196063Y-74340226D01*
X181082795Y-74509744D01*
X181004774Y-74698102D01*
X180965000Y-74898061D01*
X148127000Y-74898061D01*
X148127000Y-73627000D01*
X195373000Y-73627000D01*
X195373000Y-81500000D01*
G36*
X195373000Y-111500000D02*
G01*
X195375440Y-111524776D01*
X195382667Y-111548601D01*
X195394403Y-111570557D01*
X195410197Y-111589803D01*
X195423800Y-111601600D01*
X197373000Y-113063500D01*
X197373001Y-115373000D01*
X194127000Y-115373000D01*
X194127000Y-114500000D01*
X194126282Y-114492702D01*
X194686903Y-114492702D01*
X194758486Y-114736671D01*
X195013996Y-114857571D01*
X195288184Y-114926300D01*
X195570512Y-114940217D01*
X195850130Y-114898787D01*
X196116292Y-114803603D01*
X196241514Y-114736671D01*
X196313097Y-114492702D01*
X195500000Y-113679605D01*
X194686903Y-114492702D01*
X194126282Y-114492702D01*
X194124560Y-114475224D01*
X194117333Y-114451399D01*
X194105597Y-114429443D01*
X194089803Y-114410197D01*
X194070557Y-114394403D01*
X194048601Y-114382667D01*
X194024776Y-114375440D01*
X194000000Y-114373000D01*
X187435119Y-114373000D01*
X187679727Y-114271680D01*
X187914759Y-114114637D01*
X188114637Y-113914759D01*
X188271680Y-113679727D01*
X188316918Y-113570512D01*
X194059783Y-113570512D01*
X194101213Y-113850130D01*
X194196397Y-114116292D01*
X194263329Y-114241514D01*
X194507298Y-114313097D01*
X195320395Y-113500000D01*
X195679605Y-113500000D01*
X196492702Y-114313097D01*
X196736671Y-114241514D01*
X196857571Y-113986004D01*
X196926300Y-113711816D01*
X196940217Y-113429488D01*
X196898787Y-113149870D01*
X196803603Y-112883708D01*
X196736671Y-112758486D01*
X196492702Y-112686903D01*
X195679605Y-113500000D01*
X195320395Y-113500000D01*
X194507298Y-112686903D01*
X194263329Y-112758486D01*
X194142429Y-113013996D01*
X194073700Y-113288184D01*
X194059783Y-113570512D01*
X188316918Y-113570512D01*
X188379853Y-113418574D01*
X188435000Y-113141335D01*
X188435000Y-112858665D01*
X188379853Y-112581426D01*
X188349149Y-112507298D01*
X194686903Y-112507298D01*
X195500000Y-113320395D01*
X196313097Y-112507298D01*
X196241514Y-112263329D01*
X195986004Y-112142429D01*
X195711816Y-112073700D01*
X195429488Y-112059783D01*
X195149870Y-112101213D01*
X194883708Y-112196397D01*
X194758486Y-112263329D01*
X194686903Y-112507298D01*
X188349149Y-112507298D01*
X188271680Y-112320273D01*
X188114637Y-112085241D01*
X187914759Y-111885363D01*
X187679727Y-111728320D01*
X187651140Y-111716479D01*
X187869199Y-111626156D01*
X188169744Y-111425338D01*
X188425338Y-111169744D01*
X188626156Y-110869199D01*
X188764482Y-110535250D01*
X188835000Y-110180732D01*
X188835000Y-109819268D01*
X188764482Y-109464750D01*
X188626156Y-109130801D01*
X188425338Y-108830256D01*
X188169744Y-108574662D01*
X187869199Y-108373844D01*
X187535250Y-108235518D01*
X187180732Y-108165000D01*
X186819268Y-108165000D01*
X186464750Y-108235518D01*
X186130801Y-108373844D01*
X185830256Y-108574662D01*
X185574662Y-108830256D01*
X185373844Y-109130801D01*
X185235518Y-109464750D01*
X185165000Y-109819268D01*
X185165000Y-110180732D01*
X185235518Y-110535250D01*
X185373844Y-110869199D01*
X185574662Y-111169744D01*
X185830256Y-111425338D01*
X186130801Y-111626156D01*
X186348860Y-111716479D01*
X186320273Y-111728320D01*
X186085241Y-111885363D01*
X185885363Y-112085241D01*
X185728320Y-112320273D01*
X185620147Y-112581426D01*
X185565000Y-112858665D01*
X185565000Y-113141335D01*
X185620147Y-113418574D01*
X185728320Y-113679727D01*
X185885363Y-113914759D01*
X186085241Y-114114637D01*
X186320273Y-114271680D01*
X186564881Y-114373000D01*
X182965774Y-114373000D01*
X182995226Y-114301898D01*
X183035000Y-114101939D01*
X183035000Y-113898061D01*
X182995226Y-113698102D01*
X182917205Y-113509744D01*
X182803937Y-113340226D01*
X182659774Y-113196063D01*
X182490256Y-113082795D01*
X182301898Y-113004774D01*
X182101939Y-112965000D01*
X181898061Y-112965000D01*
X181698102Y-113004774D01*
X181509744Y-113082795D01*
X181340226Y-113196063D01*
X181196063Y-113340226D01*
X181082795Y-113509744D01*
X181004774Y-113698102D01*
X180965000Y-113898061D01*
X180965000Y-114101939D01*
X181004774Y-114301898D01*
X181034226Y-114373000D01*
X148127000Y-114373000D01*
X148127000Y-109819268D01*
X157225000Y-109819268D01*
X157225000Y-110180732D01*
X157295518Y-110535250D01*
X157433844Y-110869199D01*
X157634662Y-111169744D01*
X157890256Y-111425338D01*
X158190801Y-111626156D01*
X158524750Y-111764482D01*
X158879268Y-111835000D01*
X159240732Y-111835000D01*
X159595250Y-111764482D01*
X159929199Y-111626156D01*
X160229744Y-111425338D01*
X160485338Y-111169744D01*
X160686156Y-110869199D01*
X160824482Y-110535250D01*
X160895000Y-110180732D01*
X160895000Y-109898061D01*
X181690000Y-109898061D01*
X181690000Y-110101939D01*
X181729774Y-110301898D01*
X181807795Y-110490256D01*
X181921063Y-110659774D01*
X182065226Y-110803937D01*
X182234744Y-110917205D01*
X182423102Y-110995226D01*
X182623061Y-111035000D01*
X182826939Y-111035000D01*
X183026898Y-110995226D01*
X183215256Y-110917205D01*
X183384774Y-110803937D01*
X183528937Y-110659774D01*
X183642205Y-110490256D01*
X183720226Y-110301898D01*
X183760000Y-110101939D01*
X183760000Y-109898061D01*
X183720226Y-109698102D01*
X183642205Y-109509744D01*
X183528937Y-109340226D01*
X183384774Y-109196063D01*
X183215256Y-109082795D01*
X183026898Y-109004774D01*
X182826939Y-108965000D01*
X182623061Y-108965000D01*
X182423102Y-109004774D01*
X182234744Y-109082795D01*
X182065226Y-109196063D01*
X181921063Y-109340226D01*
X181807795Y-109509744D01*
X181729774Y-109698102D01*
X181690000Y-109898061D01*
X160895000Y-109898061D01*
X160895000Y-109819268D01*
X160824482Y-109464750D01*
X160686156Y-109130801D01*
X160485338Y-108830256D01*
X160229744Y-108574662D01*
X159929199Y-108373844D01*
X159595250Y-108235518D01*
X159240732Y-108165000D01*
X158879268Y-108165000D01*
X158524750Y-108235518D01*
X158190801Y-108373844D01*
X157890256Y-108574662D01*
X157634662Y-108830256D01*
X157433844Y-109130801D01*
X157295518Y-109464750D01*
X157225000Y-109819268D01*
X148127000Y-109819268D01*
X148127000Y-104898061D01*
X180965000Y-104898061D01*
X180965000Y-105101939D01*
X181004774Y-105301898D01*
X181082795Y-105490256D01*
X181196063Y-105659774D01*
X181340226Y-105803937D01*
X181509744Y-105917205D01*
X181698102Y-105995226D01*
X181898061Y-106035000D01*
X182101939Y-106035000D01*
X182301898Y-105995226D01*
X182490256Y-105917205D01*
X182659774Y-105803937D01*
X182803937Y-105659774D01*
X182917205Y-105490256D01*
X182995226Y-105301898D01*
X183035000Y-105101939D01*
X183035000Y-104898061D01*
X182995226Y-104698102D01*
X182917205Y-104509744D01*
X182803937Y-104340226D01*
X182659774Y-104196063D01*
X182490256Y-104082795D01*
X182301898Y-104004774D01*
X182101939Y-103965000D01*
X181898061Y-103965000D01*
X181698102Y-104004774D01*
X181509744Y-104082795D01*
X181340226Y-104196063D01*
X181196063Y-104340226D01*
X181082795Y-104509744D01*
X181004774Y-104698102D01*
X180965000Y-104898061D01*
X148127000Y-104898061D01*
X148127000Y-103627000D01*
X195373000Y-103627000D01*
X195373000Y-111500000D01*
G37*
X195373000Y-111500000D02*
X195375440Y-111524776D01*
X195382667Y-111548601D01*
X195394403Y-111570557D01*
X195410197Y-111589803D01*
X195423800Y-111601600D01*
X197373000Y-113063500D01*
X197373001Y-115373000D01*
X194127000Y-115373000D01*
X194127000Y-114500000D01*
X194126282Y-114492702D01*
X194686903Y-114492702D01*
X194758486Y-114736671D01*
X195013996Y-114857571D01*
X195288184Y-114926300D01*
X195570512Y-114940217D01*
X195850130Y-114898787D01*
X196116292Y-114803603D01*
X196241514Y-114736671D01*
X196313097Y-114492702D01*
X195500000Y-113679605D01*
X194686903Y-114492702D01*
X194126282Y-114492702D01*
X194124560Y-114475224D01*
X194117333Y-114451399D01*
X194105597Y-114429443D01*
X194089803Y-114410197D01*
X194070557Y-114394403D01*
X194048601Y-114382667D01*
X194024776Y-114375440D01*
X194000000Y-114373000D01*
X187435119Y-114373000D01*
X187679727Y-114271680D01*
X187914759Y-114114637D01*
X188114637Y-113914759D01*
X188271680Y-113679727D01*
X188316918Y-113570512D01*
X194059783Y-113570512D01*
X194101213Y-113850130D01*
X194196397Y-114116292D01*
X194263329Y-114241514D01*
X194507298Y-114313097D01*
X195320395Y-113500000D01*
X195679605Y-113500000D01*
X196492702Y-114313097D01*
X196736671Y-114241514D01*
X196857571Y-113986004D01*
X196926300Y-113711816D01*
X196940217Y-113429488D01*
X196898787Y-113149870D01*
X196803603Y-112883708D01*
X196736671Y-112758486D01*
X196492702Y-112686903D01*
X195679605Y-113500000D01*
X195320395Y-113500000D01*
X194507298Y-112686903D01*
X194263329Y-112758486D01*
X194142429Y-113013996D01*
X194073700Y-113288184D01*
X194059783Y-113570512D01*
X188316918Y-113570512D01*
X188379853Y-113418574D01*
X188435000Y-113141335D01*
X188435000Y-112858665D01*
X188379853Y-112581426D01*
X188349149Y-112507298D01*
X194686903Y-112507298D01*
X195500000Y-113320395D01*
X196313097Y-112507298D01*
X196241514Y-112263329D01*
X195986004Y-112142429D01*
X195711816Y-112073700D01*
X195429488Y-112059783D01*
X195149870Y-112101213D01*
X194883708Y-112196397D01*
X194758486Y-112263329D01*
X194686903Y-112507298D01*
X188349149Y-112507298D01*
X188271680Y-112320273D01*
X188114637Y-112085241D01*
X187914759Y-111885363D01*
X187679727Y-111728320D01*
X187651140Y-111716479D01*
X187869199Y-111626156D01*
X188169744Y-111425338D01*
X188425338Y-111169744D01*
X188626156Y-110869199D01*
X188764482Y-110535250D01*
X188835000Y-110180732D01*
X188835000Y-109819268D01*
X188764482Y-109464750D01*
X188626156Y-109130801D01*
X188425338Y-108830256D01*
X188169744Y-108574662D01*
X187869199Y-108373844D01*
X187535250Y-108235518D01*
X187180732Y-108165000D01*
X186819268Y-108165000D01*
X186464750Y-108235518D01*
X186130801Y-108373844D01*
X185830256Y-108574662D01*
X185574662Y-108830256D01*
X185373844Y-109130801D01*
X185235518Y-109464750D01*
X185165000Y-109819268D01*
X185165000Y-110180732D01*
X185235518Y-110535250D01*
X185373844Y-110869199D01*
X185574662Y-111169744D01*
X185830256Y-111425338D01*
X186130801Y-111626156D01*
X186348860Y-111716479D01*
X186320273Y-111728320D01*
X186085241Y-111885363D01*
X185885363Y-112085241D01*
X185728320Y-112320273D01*
X185620147Y-112581426D01*
X185565000Y-112858665D01*
X185565000Y-113141335D01*
X185620147Y-113418574D01*
X185728320Y-113679727D01*
X185885363Y-113914759D01*
X186085241Y-114114637D01*
X186320273Y-114271680D01*
X186564881Y-114373000D01*
X182965774Y-114373000D01*
X182995226Y-114301898D01*
X183035000Y-114101939D01*
X183035000Y-113898061D01*
X182995226Y-113698102D01*
X182917205Y-113509744D01*
X182803937Y-113340226D01*
X182659774Y-113196063D01*
X182490256Y-113082795D01*
X182301898Y-113004774D01*
X182101939Y-112965000D01*
X181898061Y-112965000D01*
X181698102Y-113004774D01*
X181509744Y-113082795D01*
X181340226Y-113196063D01*
X181196063Y-113340226D01*
X181082795Y-113509744D01*
X181004774Y-113698102D01*
X180965000Y-113898061D01*
X180965000Y-114101939D01*
X181004774Y-114301898D01*
X181034226Y-114373000D01*
X148127000Y-114373000D01*
X148127000Y-109819268D01*
X157225000Y-109819268D01*
X157225000Y-110180732D01*
X157295518Y-110535250D01*
X157433844Y-110869199D01*
X157634662Y-111169744D01*
X157890256Y-111425338D01*
X158190801Y-111626156D01*
X158524750Y-111764482D01*
X158879268Y-111835000D01*
X159240732Y-111835000D01*
X159595250Y-111764482D01*
X159929199Y-111626156D01*
X160229744Y-111425338D01*
X160485338Y-111169744D01*
X160686156Y-110869199D01*
X160824482Y-110535250D01*
X160895000Y-110180732D01*
X160895000Y-109898061D01*
X181690000Y-109898061D01*
X181690000Y-110101939D01*
X181729774Y-110301898D01*
X181807795Y-110490256D01*
X181921063Y-110659774D01*
X182065226Y-110803937D01*
X182234744Y-110917205D01*
X182423102Y-110995226D01*
X182623061Y-111035000D01*
X182826939Y-111035000D01*
X183026898Y-110995226D01*
X183215256Y-110917205D01*
X183384774Y-110803937D01*
X183528937Y-110659774D01*
X183642205Y-110490256D01*
X183720226Y-110301898D01*
X183760000Y-110101939D01*
X183760000Y-109898061D01*
X183720226Y-109698102D01*
X183642205Y-109509744D01*
X183528937Y-109340226D01*
X183384774Y-109196063D01*
X183215256Y-109082795D01*
X183026898Y-109004774D01*
X182826939Y-108965000D01*
X182623061Y-108965000D01*
X182423102Y-109004774D01*
X182234744Y-109082795D01*
X182065226Y-109196063D01*
X181921063Y-109340226D01*
X181807795Y-109509744D01*
X181729774Y-109698102D01*
X181690000Y-109898061D01*
X160895000Y-109898061D01*
X160895000Y-109819268D01*
X160824482Y-109464750D01*
X160686156Y-109130801D01*
X160485338Y-108830256D01*
X160229744Y-108574662D01*
X159929199Y-108373844D01*
X159595250Y-108235518D01*
X159240732Y-108165000D01*
X158879268Y-108165000D01*
X158524750Y-108235518D01*
X158190801Y-108373844D01*
X157890256Y-108574662D01*
X157634662Y-108830256D01*
X157433844Y-109130801D01*
X157295518Y-109464750D01*
X157225000Y-109819268D01*
X148127000Y-109819268D01*
X148127000Y-104898061D01*
X180965000Y-104898061D01*
X180965000Y-105101939D01*
X181004774Y-105301898D01*
X181082795Y-105490256D01*
X181196063Y-105659774D01*
X181340226Y-105803937D01*
X181509744Y-105917205D01*
X181698102Y-105995226D01*
X181898061Y-106035000D01*
X182101939Y-106035000D01*
X182301898Y-105995226D01*
X182490256Y-105917205D01*
X182659774Y-105803937D01*
X182803937Y-105659774D01*
X182917205Y-105490256D01*
X182995226Y-105301898D01*
X183035000Y-105101939D01*
X183035000Y-104898061D01*
X182995226Y-104698102D01*
X182917205Y-104509744D01*
X182803937Y-104340226D01*
X182659774Y-104196063D01*
X182490256Y-104082795D01*
X182301898Y-104004774D01*
X182101939Y-103965000D01*
X181898061Y-103965000D01*
X181698102Y-104004774D01*
X181509744Y-104082795D01*
X181340226Y-104196063D01*
X181196063Y-104340226D01*
X181082795Y-104509744D01*
X181004774Y-104698102D01*
X180965000Y-104898061D01*
X148127000Y-104898061D01*
X148127000Y-103627000D01*
X195373000Y-103627000D01*
X195373000Y-111500000D01*
G36*
X195373000Y-138947394D02*
G01*
X189947394Y-144373000D01*
X188052607Y-144373000D01*
X187992704Y-144313097D01*
X188236671Y-144241514D01*
X188357571Y-143986004D01*
X188426300Y-143711816D01*
X188440217Y-143429488D01*
X188398787Y-143149870D01*
X188303603Y-142883708D01*
X188236671Y-142758486D01*
X187992702Y-142686903D01*
X187179605Y-143500000D01*
X187193748Y-143514143D01*
X187014143Y-143693748D01*
X187000000Y-143679605D01*
X186985858Y-143693748D01*
X186806253Y-143514143D01*
X186820395Y-143500000D01*
X186007298Y-142686903D01*
X185763329Y-142758486D01*
X185642429Y-143013996D01*
X185573700Y-143288184D01*
X185559783Y-143570512D01*
X185601213Y-143850130D01*
X185696397Y-144116292D01*
X185763329Y-144241514D01*
X186007296Y-144313097D01*
X185947393Y-144373000D01*
X148127000Y-144373000D01*
X148127000Y-142507298D01*
X186186903Y-142507298D01*
X187000000Y-143320395D01*
X187813097Y-142507298D01*
X187741514Y-142263329D01*
X187486004Y-142142429D01*
X187211816Y-142073700D01*
X186929488Y-142059783D01*
X186649870Y-142101213D01*
X186383708Y-142196397D01*
X186258486Y-142263329D01*
X186186903Y-142507298D01*
X148127000Y-142507298D01*
X148127000Y-139819268D01*
X157225000Y-139819268D01*
X157225000Y-140180732D01*
X157295518Y-140535250D01*
X157433844Y-140869199D01*
X157634662Y-141169744D01*
X157890256Y-141425338D01*
X158190801Y-141626156D01*
X158524750Y-141764482D01*
X158879268Y-141835000D01*
X159240732Y-141835000D01*
X159595250Y-141764482D01*
X159929199Y-141626156D01*
X160229744Y-141425338D01*
X160485338Y-141169744D01*
X160686156Y-140869199D01*
X160824482Y-140535250D01*
X160895000Y-140180732D01*
X160895000Y-139819268D01*
X185165000Y-139819268D01*
X185165000Y-140180732D01*
X185235518Y-140535250D01*
X185373844Y-140869199D01*
X185574662Y-141169744D01*
X185830256Y-141425338D01*
X186130801Y-141626156D01*
X186464750Y-141764482D01*
X186819268Y-141835000D01*
X187180732Y-141835000D01*
X187535250Y-141764482D01*
X187869199Y-141626156D01*
X188169744Y-141425338D01*
X188425338Y-141169744D01*
X188626156Y-140869199D01*
X188764482Y-140535250D01*
X188835000Y-140180732D01*
X188835000Y-139819268D01*
X188764482Y-139464750D01*
X188626156Y-139130801D01*
X188425338Y-138830256D01*
X188169744Y-138574662D01*
X187869199Y-138373844D01*
X187535250Y-138235518D01*
X187180732Y-138165000D01*
X186819268Y-138165000D01*
X186464750Y-138235518D01*
X186130801Y-138373844D01*
X185830256Y-138574662D01*
X185574662Y-138830256D01*
X185373844Y-139130801D01*
X185235518Y-139464750D01*
X185165000Y-139819268D01*
X160895000Y-139819268D01*
X160824482Y-139464750D01*
X160686156Y-139130801D01*
X160485338Y-138830256D01*
X160229744Y-138574662D01*
X159929199Y-138373844D01*
X159595250Y-138235518D01*
X159240732Y-138165000D01*
X158879268Y-138165000D01*
X158524750Y-138235518D01*
X158190801Y-138373844D01*
X157890256Y-138574662D01*
X157634662Y-138830256D01*
X157433844Y-139130801D01*
X157295518Y-139464750D01*
X157225000Y-139819268D01*
X148127000Y-139819268D01*
X148127000Y-134898061D01*
X180965000Y-134898061D01*
X180965000Y-135101939D01*
X181004774Y-135301898D01*
X181082795Y-135490256D01*
X181089306Y-135500000D01*
X181082795Y-135509744D01*
X181004774Y-135698102D01*
X180965000Y-135898061D01*
X180965000Y-136101939D01*
X181004774Y-136301898D01*
X181082795Y-136490256D01*
X181196063Y-136659774D01*
X181340226Y-136803937D01*
X181509744Y-136917205D01*
X181698102Y-136995226D01*
X181898061Y-137035000D01*
X182101939Y-137035000D01*
X182301898Y-136995226D01*
X182490256Y-136917205D01*
X182659774Y-136803937D01*
X182803937Y-136659774D01*
X182917205Y-136490256D01*
X182995226Y-136301898D01*
X183035000Y-136101939D01*
X183035000Y-135898061D01*
X182995226Y-135698102D01*
X182917205Y-135509744D01*
X182910694Y-135500000D01*
X182917205Y-135490256D01*
X182995226Y-135301898D01*
X183035000Y-135101939D01*
X183035000Y-134898061D01*
X182995226Y-134698102D01*
X182917205Y-134509744D01*
X182803937Y-134340226D01*
X182659774Y-134196063D01*
X182490256Y-134082795D01*
X182301898Y-134004774D01*
X182101939Y-133965000D01*
X181898061Y-133965000D01*
X181698102Y-134004774D01*
X181509744Y-134082795D01*
X181340226Y-134196063D01*
X181196063Y-134340226D01*
X181082795Y-134509744D01*
X181004774Y-134698102D01*
X180965000Y-134898061D01*
X148127000Y-134898061D01*
X148127000Y-133627000D01*
X195373000Y-133627000D01*
X195373000Y-138947394D01*
G37*
X195373000Y-138947394D02*
X189947394Y-144373000D01*
X188052607Y-144373000D01*
X187992704Y-144313097D01*
X188236671Y-144241514D01*
X188357571Y-143986004D01*
X188426300Y-143711816D01*
X188440217Y-143429488D01*
X188398787Y-143149870D01*
X188303603Y-142883708D01*
X188236671Y-142758486D01*
X187992702Y-142686903D01*
X187179605Y-143500000D01*
X187193748Y-143514143D01*
X187014143Y-143693748D01*
X187000000Y-143679605D01*
X186985858Y-143693748D01*
X186806253Y-143514143D01*
X186820395Y-143500000D01*
X186007298Y-142686903D01*
X185763329Y-142758486D01*
X185642429Y-143013996D01*
X185573700Y-143288184D01*
X185559783Y-143570512D01*
X185601213Y-143850130D01*
X185696397Y-144116292D01*
X185763329Y-144241514D01*
X186007296Y-144313097D01*
X185947393Y-144373000D01*
X148127000Y-144373000D01*
X148127000Y-142507298D01*
X186186903Y-142507298D01*
X187000000Y-143320395D01*
X187813097Y-142507298D01*
X187741514Y-142263329D01*
X187486004Y-142142429D01*
X187211816Y-142073700D01*
X186929488Y-142059783D01*
X186649870Y-142101213D01*
X186383708Y-142196397D01*
X186258486Y-142263329D01*
X186186903Y-142507298D01*
X148127000Y-142507298D01*
X148127000Y-139819268D01*
X157225000Y-139819268D01*
X157225000Y-140180732D01*
X157295518Y-140535250D01*
X157433844Y-140869199D01*
X157634662Y-141169744D01*
X157890256Y-141425338D01*
X158190801Y-141626156D01*
X158524750Y-141764482D01*
X158879268Y-141835000D01*
X159240732Y-141835000D01*
X159595250Y-141764482D01*
X159929199Y-141626156D01*
X160229744Y-141425338D01*
X160485338Y-141169744D01*
X160686156Y-140869199D01*
X160824482Y-140535250D01*
X160895000Y-140180732D01*
X160895000Y-139819268D01*
X185165000Y-139819268D01*
X185165000Y-140180732D01*
X185235518Y-140535250D01*
X185373844Y-140869199D01*
X185574662Y-141169744D01*
X185830256Y-141425338D01*
X186130801Y-141626156D01*
X186464750Y-141764482D01*
X186819268Y-141835000D01*
X187180732Y-141835000D01*
X187535250Y-141764482D01*
X187869199Y-141626156D01*
X188169744Y-141425338D01*
X188425338Y-141169744D01*
X188626156Y-140869199D01*
X188764482Y-140535250D01*
X188835000Y-140180732D01*
X188835000Y-139819268D01*
X188764482Y-139464750D01*
X188626156Y-139130801D01*
X188425338Y-138830256D01*
X188169744Y-138574662D01*
X187869199Y-138373844D01*
X187535250Y-138235518D01*
X187180732Y-138165000D01*
X186819268Y-138165000D01*
X186464750Y-138235518D01*
X186130801Y-138373844D01*
X185830256Y-138574662D01*
X185574662Y-138830256D01*
X185373844Y-139130801D01*
X185235518Y-139464750D01*
X185165000Y-139819268D01*
X160895000Y-139819268D01*
X160824482Y-139464750D01*
X160686156Y-139130801D01*
X160485338Y-138830256D01*
X160229744Y-138574662D01*
X159929199Y-138373844D01*
X159595250Y-138235518D01*
X159240732Y-138165000D01*
X158879268Y-138165000D01*
X158524750Y-138235518D01*
X158190801Y-138373844D01*
X157890256Y-138574662D01*
X157634662Y-138830256D01*
X157433844Y-139130801D01*
X157295518Y-139464750D01*
X157225000Y-139819268D01*
X148127000Y-139819268D01*
X148127000Y-134898061D01*
X180965000Y-134898061D01*
X180965000Y-135101939D01*
X181004774Y-135301898D01*
X181082795Y-135490256D01*
X181089306Y-135500000D01*
X181082795Y-135509744D01*
X181004774Y-135698102D01*
X180965000Y-135898061D01*
X180965000Y-136101939D01*
X181004774Y-136301898D01*
X181082795Y-136490256D01*
X181196063Y-136659774D01*
X181340226Y-136803937D01*
X181509744Y-136917205D01*
X181698102Y-136995226D01*
X181898061Y-137035000D01*
X182101939Y-137035000D01*
X182301898Y-136995226D01*
X182490256Y-136917205D01*
X182659774Y-136803937D01*
X182803937Y-136659774D01*
X182917205Y-136490256D01*
X182995226Y-136301898D01*
X183035000Y-136101939D01*
X183035000Y-135898061D01*
X182995226Y-135698102D01*
X182917205Y-135509744D01*
X182910694Y-135500000D01*
X182917205Y-135490256D01*
X182995226Y-135301898D01*
X183035000Y-135101939D01*
X183035000Y-134898061D01*
X182995226Y-134698102D01*
X182917205Y-134509744D01*
X182803937Y-134340226D01*
X182659774Y-134196063D01*
X182490256Y-134082795D01*
X182301898Y-134004774D01*
X182101939Y-133965000D01*
X181898061Y-133965000D01*
X181698102Y-134004774D01*
X181509744Y-134082795D01*
X181340226Y-134196063D01*
X181196063Y-134340226D01*
X181082795Y-134509744D01*
X181004774Y-134698102D01*
X180965000Y-134898061D01*
X148127000Y-134898061D01*
X148127000Y-133627000D01*
X195373000Y-133627000D01*
X195373000Y-138947394D01*
M02*
