G04 #@! TF.GenerationSoftware,KiCad,Pcbnew,(5.1.6)-1*
G04 #@! TF.CreationDate,2020-07-02T12:50:25+02:00*
G04 #@! TF.ProjectId,LT1166_amp,4c543131-3636-45f6-916d-702e6b696361,rev?*
G04 #@! TF.SameCoordinates,Original*
G04 #@! TF.FileFunction,Legend,Bot*
G04 #@! TF.FilePolarity,Positive*
%FSLAX46Y46*%
G04 Gerber Fmt 4.6, Leading zero omitted, Abs format (unit mm)*
G04 Created by KiCad (PCBNEW (5.1.6)-1) date 2020-07-02 12:50:25*
%MOMM*%
%LPD*%
G01*
G04 APERTURE LIST*
%ADD10C,0.120000*%
%ADD11C,0.150000*%
G04 APERTURE END LIST*
D10*
X185590000Y-55380000D02*
X185590000Y-58560000D01*
X160350000Y-55380000D02*
X185590000Y-55380000D01*
X160350000Y-58560000D02*
X160350000Y-55380000D01*
X185590000Y-64620000D02*
X185590000Y-61440000D01*
X160350000Y-64620000D02*
X185590000Y-64620000D01*
X160350000Y-61440000D02*
X160350000Y-64620000D01*
X160410000Y-84620000D02*
X160410000Y-81440000D01*
X185650000Y-84620000D02*
X160410000Y-84620000D01*
X185650000Y-81440000D02*
X185650000Y-84620000D01*
X160410000Y-75380000D02*
X160410000Y-78560000D01*
X185650000Y-75380000D02*
X160410000Y-75380000D01*
X185650000Y-78560000D02*
X185650000Y-75380000D01*
X185590000Y-65380000D02*
X185590000Y-68560000D01*
X160350000Y-65380000D02*
X185590000Y-65380000D01*
X160350000Y-68560000D02*
X160350000Y-65380000D01*
X185590000Y-74620000D02*
X185590000Y-71440000D01*
X160350000Y-74620000D02*
X185590000Y-74620000D01*
X160350000Y-71440000D02*
X160350000Y-74620000D01*
X112850000Y-132940000D02*
X112850000Y-136120000D01*
X112850000Y-136120000D02*
X138090000Y-136120000D01*
X138090000Y-136120000D02*
X138090000Y-132940000D01*
X112850000Y-130060000D02*
X112850000Y-126880000D01*
X112850000Y-126880000D02*
X138090000Y-126880000D01*
X138090000Y-126880000D02*
X138090000Y-130060000D01*
X160410000Y-144620000D02*
X160410000Y-141440000D01*
X185650000Y-144620000D02*
X160410000Y-144620000D01*
X185650000Y-141440000D02*
X185650000Y-144620000D01*
X160410000Y-135380000D02*
X160410000Y-138560000D01*
X185650000Y-135380000D02*
X160410000Y-135380000D01*
X185650000Y-138560000D02*
X185650000Y-135380000D01*
X185590000Y-125380000D02*
X185590000Y-128560000D01*
X160350000Y-125380000D02*
X185590000Y-125380000D01*
X160350000Y-128560000D02*
X160350000Y-125380000D01*
X185590000Y-134620000D02*
X185590000Y-131440000D01*
X160350000Y-134620000D02*
X185590000Y-134620000D01*
X160350000Y-131440000D02*
X160350000Y-134620000D01*
X185590000Y-115380000D02*
X185590000Y-118560000D01*
X160350000Y-115380000D02*
X185590000Y-115380000D01*
X160350000Y-118560000D02*
X160350000Y-115380000D01*
X185590000Y-124620000D02*
X185590000Y-121440000D01*
X160350000Y-124620000D02*
X185590000Y-124620000D01*
X160350000Y-121440000D02*
X160350000Y-124620000D01*
X160410000Y-114620000D02*
X160410000Y-111440000D01*
X185650000Y-114620000D02*
X160410000Y-114620000D01*
X185650000Y-111440000D02*
X185650000Y-114620000D01*
X160410000Y-105380000D02*
X160410000Y-108560000D01*
X185650000Y-105380000D02*
X160410000Y-105380000D01*
X185650000Y-108560000D02*
X185650000Y-105380000D01*
X185590000Y-95380000D02*
X185590000Y-98560000D01*
X160350000Y-95380000D02*
X185590000Y-95380000D01*
X160350000Y-98560000D02*
X160350000Y-95380000D01*
X185590000Y-104620000D02*
X185590000Y-101440000D01*
X160350000Y-104620000D02*
X185590000Y-104620000D01*
X160350000Y-101440000D02*
X160350000Y-104620000D01*
X185590000Y-85380000D02*
X185590000Y-88560000D01*
X160350000Y-85380000D02*
X185590000Y-85380000D01*
X160350000Y-88560000D02*
X160350000Y-85380000D01*
X185590000Y-94620000D02*
X185590000Y-91440000D01*
X160350000Y-94620000D02*
X185590000Y-94620000D01*
X160350000Y-91440000D02*
X160350000Y-94620000D01*
D11*
X173136666Y-66072380D02*
X173470000Y-65596190D01*
X173708095Y-66072380D02*
X173708095Y-65072380D01*
X173327142Y-65072380D01*
X173231904Y-65120000D01*
X173184285Y-65167619D01*
X173136666Y-65262857D01*
X173136666Y-65405714D01*
X173184285Y-65500952D01*
X173231904Y-65548571D01*
X173327142Y-65596190D01*
X173708095Y-65596190D01*
X172279523Y-65405714D02*
X172279523Y-66072380D01*
X172517619Y-65024761D02*
X172755714Y-65739047D01*
X172136666Y-65739047D01*
X173196666Y-74832380D02*
X173530000Y-74356190D01*
X173768095Y-74832380D02*
X173768095Y-73832380D01*
X173387142Y-73832380D01*
X173291904Y-73880000D01*
X173244285Y-73927619D01*
X173196666Y-74022857D01*
X173196666Y-74165714D01*
X173244285Y-74260952D01*
X173291904Y-74308571D01*
X173387142Y-74356190D01*
X173768095Y-74356190D01*
X172863333Y-73832380D02*
X172196666Y-73832380D01*
X172625238Y-74832380D01*
X173136666Y-76072380D02*
X173470000Y-75596190D01*
X173708095Y-76072380D02*
X173708095Y-75072380D01*
X173327142Y-75072380D01*
X173231904Y-75120000D01*
X173184285Y-75167619D01*
X173136666Y-75262857D01*
X173136666Y-75405714D01*
X173184285Y-75500952D01*
X173231904Y-75548571D01*
X173327142Y-75596190D01*
X173708095Y-75596190D01*
X172279523Y-75072380D02*
X172470000Y-75072380D01*
X172565238Y-75120000D01*
X172612857Y-75167619D01*
X172708095Y-75310476D01*
X172755714Y-75500952D01*
X172755714Y-75881904D01*
X172708095Y-75977142D01*
X172660476Y-76024761D01*
X172565238Y-76072380D01*
X172374761Y-76072380D01*
X172279523Y-76024761D01*
X172231904Y-75977142D01*
X172184285Y-75881904D01*
X172184285Y-75643809D01*
X172231904Y-75548571D01*
X172279523Y-75500952D01*
X172374761Y-75453333D01*
X172565238Y-75453333D01*
X172660476Y-75500952D01*
X172708095Y-75548571D01*
X172755714Y-75643809D01*
X126112857Y-137572380D02*
X126446190Y-137096190D01*
X126684285Y-137572380D02*
X126684285Y-136572380D01*
X126303333Y-136572380D01*
X126208095Y-136620000D01*
X126160476Y-136667619D01*
X126112857Y-136762857D01*
X126112857Y-136905714D01*
X126160476Y-137000952D01*
X126208095Y-137048571D01*
X126303333Y-137096190D01*
X126684285Y-137096190D01*
X125779523Y-136572380D02*
X125160476Y-136572380D01*
X125493809Y-136953333D01*
X125350952Y-136953333D01*
X125255714Y-137000952D01*
X125208095Y-137048571D01*
X125160476Y-137143809D01*
X125160476Y-137381904D01*
X125208095Y-137477142D01*
X125255714Y-137524761D01*
X125350952Y-137572380D01*
X125636666Y-137572380D01*
X125731904Y-137524761D01*
X125779523Y-137477142D01*
X124208095Y-137572380D02*
X124779523Y-137572380D01*
X124493809Y-137572380D02*
X124493809Y-136572380D01*
X124589047Y-136715238D01*
X124684285Y-136810476D01*
X124779523Y-136858095D01*
X173672857Y-134832380D02*
X174006190Y-134356190D01*
X174244285Y-134832380D02*
X174244285Y-133832380D01*
X173863333Y-133832380D01*
X173768095Y-133880000D01*
X173720476Y-133927619D01*
X173672857Y-134022857D01*
X173672857Y-134165714D01*
X173720476Y-134260952D01*
X173768095Y-134308571D01*
X173863333Y-134356190D01*
X174244285Y-134356190D01*
X173291904Y-133927619D02*
X173244285Y-133880000D01*
X173149047Y-133832380D01*
X172910952Y-133832380D01*
X172815714Y-133880000D01*
X172768095Y-133927619D01*
X172720476Y-134022857D01*
X172720476Y-134118095D01*
X172768095Y-134260952D01*
X173339523Y-134832380D01*
X172720476Y-134832380D01*
X172387142Y-133832380D02*
X171720476Y-133832380D01*
X172149047Y-134832380D01*
X173612857Y-136072380D02*
X173946190Y-135596190D01*
X174184285Y-136072380D02*
X174184285Y-135072380D01*
X173803333Y-135072380D01*
X173708095Y-135120000D01*
X173660476Y-135167619D01*
X173612857Y-135262857D01*
X173612857Y-135405714D01*
X173660476Y-135500952D01*
X173708095Y-135548571D01*
X173803333Y-135596190D01*
X174184285Y-135596190D01*
X173231904Y-135167619D02*
X173184285Y-135120000D01*
X173089047Y-135072380D01*
X172850952Y-135072380D01*
X172755714Y-135120000D01*
X172708095Y-135167619D01*
X172660476Y-135262857D01*
X172660476Y-135358095D01*
X172708095Y-135500952D01*
X173279523Y-136072380D01*
X172660476Y-136072380D01*
X171803333Y-135072380D02*
X171993809Y-135072380D01*
X172089047Y-135120000D01*
X172136666Y-135167619D01*
X172231904Y-135310476D01*
X172279523Y-135500952D01*
X172279523Y-135881904D01*
X172231904Y-135977142D01*
X172184285Y-136024761D01*
X172089047Y-136072380D01*
X171898571Y-136072380D01*
X171803333Y-136024761D01*
X171755714Y-135977142D01*
X171708095Y-135881904D01*
X171708095Y-135643809D01*
X171755714Y-135548571D01*
X171803333Y-135500952D01*
X171898571Y-135453333D01*
X172089047Y-135453333D01*
X172184285Y-135500952D01*
X172231904Y-135548571D01*
X172279523Y-135643809D01*
X173612857Y-126072380D02*
X173946190Y-125596190D01*
X174184285Y-126072380D02*
X174184285Y-125072380D01*
X173803333Y-125072380D01*
X173708095Y-125120000D01*
X173660476Y-125167619D01*
X173612857Y-125262857D01*
X173612857Y-125405714D01*
X173660476Y-125500952D01*
X173708095Y-125548571D01*
X173803333Y-125596190D01*
X174184285Y-125596190D01*
X173231904Y-125167619D02*
X173184285Y-125120000D01*
X173089047Y-125072380D01*
X172850952Y-125072380D01*
X172755714Y-125120000D01*
X172708095Y-125167619D01*
X172660476Y-125262857D01*
X172660476Y-125358095D01*
X172708095Y-125500952D01*
X173279523Y-126072380D01*
X172660476Y-126072380D01*
X171803333Y-125405714D02*
X171803333Y-126072380D01*
X172041428Y-125024761D02*
X172279523Y-125739047D01*
X171660476Y-125739047D01*
X173672857Y-104832380D02*
X174006190Y-104356190D01*
X174244285Y-104832380D02*
X174244285Y-103832380D01*
X173863333Y-103832380D01*
X173768095Y-103880000D01*
X173720476Y-103927619D01*
X173672857Y-104022857D01*
X173672857Y-104165714D01*
X173720476Y-104260952D01*
X173768095Y-104308571D01*
X173863333Y-104356190D01*
X174244285Y-104356190D01*
X172720476Y-104832380D02*
X173291904Y-104832380D01*
X173006190Y-104832380D02*
X173006190Y-103832380D01*
X173101428Y-103975238D01*
X173196666Y-104070476D01*
X173291904Y-104118095D01*
X172387142Y-103832380D02*
X171720476Y-103832380D01*
X172149047Y-104832380D01*
X173612857Y-106072380D02*
X173946190Y-105596190D01*
X174184285Y-106072380D02*
X174184285Y-105072380D01*
X173803333Y-105072380D01*
X173708095Y-105120000D01*
X173660476Y-105167619D01*
X173612857Y-105262857D01*
X173612857Y-105405714D01*
X173660476Y-105500952D01*
X173708095Y-105548571D01*
X173803333Y-105596190D01*
X174184285Y-105596190D01*
X172660476Y-106072380D02*
X173231904Y-106072380D01*
X172946190Y-106072380D02*
X172946190Y-105072380D01*
X173041428Y-105215238D01*
X173136666Y-105310476D01*
X173231904Y-105358095D01*
X171803333Y-105072380D02*
X171993809Y-105072380D01*
X172089047Y-105120000D01*
X172136666Y-105167619D01*
X172231904Y-105310476D01*
X172279523Y-105500952D01*
X172279523Y-105881904D01*
X172231904Y-105977142D01*
X172184285Y-106024761D01*
X172089047Y-106072380D01*
X171898571Y-106072380D01*
X171803333Y-106024761D01*
X171755714Y-105977142D01*
X171708095Y-105881904D01*
X171708095Y-105643809D01*
X171755714Y-105548571D01*
X171803333Y-105500952D01*
X171898571Y-105453333D01*
X172089047Y-105453333D01*
X172184285Y-105500952D01*
X172231904Y-105548571D01*
X172279523Y-105643809D01*
X173612857Y-96072380D02*
X173946190Y-95596190D01*
X174184285Y-96072380D02*
X174184285Y-95072380D01*
X173803333Y-95072380D01*
X173708095Y-95120000D01*
X173660476Y-95167619D01*
X173612857Y-95262857D01*
X173612857Y-95405714D01*
X173660476Y-95500952D01*
X173708095Y-95548571D01*
X173803333Y-95596190D01*
X174184285Y-95596190D01*
X172660476Y-96072380D02*
X173231904Y-96072380D01*
X172946190Y-96072380D02*
X172946190Y-95072380D01*
X173041428Y-95215238D01*
X173136666Y-95310476D01*
X173231904Y-95358095D01*
X171803333Y-95405714D02*
X171803333Y-96072380D01*
X172041428Y-95024761D02*
X172279523Y-95739047D01*
X171660476Y-95739047D01*
M02*
